<svg xmlns="http://www.w3.org/2000/svg" width="188" height="80" viewBox="0 0 188 80">
  <defs>
    <style>
      .cls-1 {
        fill: #fff;
      }

      .cls-2 {
        fill: #034ea2;
      }
    </style>
  </defs>
  <g id="Samsung_logo" transform="translate(-972 -5595)">
    <rect id="testimonialBg" class="cls-1" width="188" height="80" rx="6" transform="translate(972 5595)"/>
    <g id="Samsung_Logo-2" data-name="Samsung_Logo" transform="translate(938.216 5586.299)">
      <g id="Group_4642" data-name="Group 4642" transform="translate(46.784 36.701)">
        <g id="Group_4641" data-name="Group 4641" transform="translate(0 0)">
          <g id="Group_4640" data-name="Group 4640">
            <path id="Path_9157" data-name="Path 9157" class="cls-2" d="M3289.7,568.65l-.316-18.25h5.753v23h-8.272l-5.744-18.877H3281l.321,18.877H3275.6v-23h8.635l5.345,18.25Z" transform="translate(-3155.051 -549.666)"/>
            <path id="Path_9158" data-name="Path 9158" class="cls-2" d="M1133.962,552.556l-3.183,21.089H1124.5l4.308-23.245h10.34l4.294,23.245h-6.255l-3.1-21.089Z" transform="translate(-1103.917 -549.666)"/>
            <path id="Path_9159" data-name="Path 9159" class="cls-2" d="M1644.793,568.171l2.872-17.771h9.48l.5,23.245h-5.809l-.153-20.9h-.121l-3.885,20.9h-5.9l-3.89-20.9h-.125l-.144,20.9H1631.8l.516-23.245h9.485l2.867,17.771Z" transform="translate(-1587.642 -549.666)"/>
            <path id="Path_9160" data-name="Path 9160" class="cls-2" d="M692.4,552.022a3.051,3.051,0,0,1,.051,1.724,2.018,2.018,0,0,1-2.263,1.562,2.08,2.08,0,0,1-2.342-2.11v-2.249H681.6l0,1.8c0,5.182,4.08,6.748,8.453,6.748,4.206,0,7.668-1.436,8.216-5.312a11.6,11.6,0,0,0-.023-3.82c-.981-4.866-9.806-6.32-10.461-9.039a3.053,3.053,0,0,1-.023-1.227,1.918,1.918,0,0,1,2.124-1.557,1.986,1.986,0,0,1,2.161,2.11v1.436h5.8v-1.631c0-5.065-4.545-5.855-7.835-5.855-4.136,0-7.515,1.366-8.133,5.149a8.155,8.155,0,0,0,.051,3.142C682.943,547.635,691.2,549.011,692.4,552.022Z" transform="translate(-681.6 -534.6)"/>
            <path id="Path_9161" data-name="Path 9161" class="cls-2" d="M2320.993,554.555a3.011,3.011,0,0,1,.051,1.7,1.991,1.991,0,0,1-2.245,1.548,2.063,2.063,0,0,1-2.314-2.082l0-2.231h-6.171l-.009,1.775c0,5.13,4.043,6.678,8.37,6.678,4.159,0,7.589-1.417,8.133-5.256a11.113,11.113,0,0,0-.019-3.778c-.976-4.819-9.708-6.26-10.359-8.955a2.943,2.943,0,0,1-.023-1.2,1.894,1.894,0,0,1,2.1-1.543,1.95,1.95,0,0,1,2.133,2.082v1.422h5.753V543.1c0-5.01-4.508-5.8-7.77-5.8-4.09,0-7.44,1.348-8.044,5.107a7.972,7.972,0,0,0,.056,3.1C2311.634,550.21,2319.808,551.576,2320.993,554.555Z" transform="translate(-2234.611 -537.174)"/>
            <path id="Path_9162" data-name="Path 9162" class="cls-2" d="M2792.747,569.979a2.089,2.089,0,0,0,2.226-1.687,4.852,4.852,0,0,0,.056-.888V550.2h5.879v16.674c.014.428-.028,1.306-.051,1.524-.414,4.341-3.843,5.749-8.114,5.749s-7.71-1.408-8.119-5.749c-.019-.218-.06-1.1-.051-1.524V550.2h5.874v17.2a5.321,5.321,0,0,0,.056.888A2.119,2.119,0,0,0,2792.747,569.979Z" transform="translate(-2686.842 -549.475)"/>
            <path id="Path_9163" data-name="Path 9163" class="cls-2" d="M3835.035,556.955a2.18,2.18,0,0,0,2.379-1.682,5.447,5.447,0,0,0,.051-.883v-3.374h-2.384v-3.392h8.244v6.241c0,.437-.014.758-.084,1.534-.386,4.229-4.057,5.739-8.175,5.739s-7.789-1.51-8.184-5.739c-.065-.776-.074-1.1-.084-1.534l0-9.787c0-.414.051-1.143.1-1.534.516-4.345,4.039-5.744,8.165-5.744s7.733,1.389,8.161,5.744a13.691,13.691,0,0,1,.051,1.534v.776h-5.86v-1.3a5.849,5.849,0,0,0-.075-.883,2.11,2.11,0,0,0-2.319-1.7,2.14,2.14,0,0,0-2.314,1.7,5.375,5.375,0,0,0-.1,1.1V554.4a4.976,4.976,0,0,0,.06.883A2.149,2.149,0,0,0,3835.035,556.955Z" transform="translate(-3680.636 -536.698)"/>
          </g>
        </g>
      </g>
    </g>
  </g>
</svg>
