<svg xmlns="http://www.w3.org/2000/svg" width="144" height="80" viewBox="0 0 144 80">
  <defs>
    <style>
      .cls-1 {
        fill: #fff;
      }

      .cls-2 {
        fill: #0071c5;
      }
    </style>
  </defs>
  <g id="Intel_logo" transform="translate(-767 -5721)">
    <g id="Group_4660" data-name="Group 4660">
      <rect id="testimonialBg" class="cls-1" width="144" height="80" rx="6" transform="translate(767 5721)"/>
    </g>
    <path id="path4423" class="cls-2" d="M24.045,23V34.329H20.438V20.087l7.446.007a3.945,3.945,0,0,1,4.24,4.256v9.979h-3.6v-9.96c0-.849-.439-1.371-1.5-1.371h-2.98Zm24.526-.17a2.763,2.763,0,0,0-2.585,1.494,3.693,3.693,0,0,0-.345,1.545H51.19c-.071-1.545-.772-3.039-2.618-3.039m-2.931,5.494a2.993,2.993,0,0,0,3.194,3.2,4.056,4.056,0,0,0,3.306-1.358l2.228,2.127a7.119,7.119,0,0,1-5.56,2.263c-3.453,0-6.757-1.883-6.757-7.37,0-4.688,2.885-7.342,6.676-7.342,3.843,0,6.063,3.107,6.063,7.177v1.3H45.641m-6.634,5.989a3.884,3.884,0,0,1-4.185-4.066V16.207h3.6v3.88h2.715V23H38.423V30.02a1.123,1.123,0,0,0,1.25,1.287h1.465v3H39.007M17.229,18.119H13.6v-3.45h3.632Zm.009,16.36c-2.719-.261-3.645-1.911-3.645-3.814l0-10.578h3.641V34.479Zm43.284-.3c-2.714-.262-3.635-1.909-3.635-3.81V14.178h3.635ZM73.229,16.518C69.935.458,38.761-.558,18.668,11.674v1.35C38.741,2.709,67.209,2.769,69.8,17.561c.868,4.891-1.888,9.99-6.81,12.921v3.835c5.925-2.167,12-9.2,10.236-17.8M36.7,44.615C22.836,45.9,8.385,43.884,6.363,33.048c-.99-5.342,1.444-11,4.672-14.522V16.645c-5.812,5.1-8.966,11.548-7.15,19.172C6.2,45.592,18.605,51.132,37.536,49.292c7.49-.731,17.293-3.139,24.108-6.88V37.1c-6.184,3.682-16.417,6.728-24.94,7.517" transform="translate(800.325 5735.357)"/>
    <path id="path4425" class="cls-2" d="M859.032,159.22c0-.176-.1-.232-.338-.232h-.227v.5l.227.006c.235,0,.338-.079.338-.244v-.029Zm.354,1.237h-.269a.064.064,0,0,1-.056-.036l-.367-.622a.083.083,0,0,0-.051-.028h-.165v.617a.066.066,0,0,1-.066.069h-.244a.071.071,0,0,1-.061-.069v-1.561c0-.09.035-.128.112-.14s.32-.019.445-.019c.447,0,.718.132.718.552v.029a.444.444,0,0,1-.33.464l.381.644a.26.26,0,0,1,.011.046.052.052,0,0,1-.058.053m-.639-2.071a1.2,1.2,0,1,0,1.2,1.205,1.206,1.206,0,0,0-1.2-1.205m0,2.651a1.446,1.446,0,1,1,1.45-1.446,1.444,1.444,0,0,1-1.45,1.446" transform="translate(6.017 5591.391)"/>
  </g>
</svg>
