<svg xmlns="http://www.w3.org/2000/svg" width="188" height="80" viewBox="0 0 188 80">
  <defs>
    <style>
      .cls-1 {
        fill: #fff;
      }

      .cls-2 {
        fill: #737373;
      }

      .cls-3 {
        fill: #f25022;
      }

      .cls-4 {
        fill: #7fba00;
      }

      .cls-5 {
        fill: #00a4ef;
      }

      .cls-6 {
        fill: #ffb900;
      }
    </style>
  </defs>
  <g id="Microsoft_logo" transform="translate(-207 -5595)">
    <rect id="testimonialBg" class="cls-1" width="188" height="80" rx="6" transform="translate(207 5595)"/>
    <g id="Microsoft_Logo-2" data-name="Microsoft_Logo" transform="translate(224 5619)">
      <path id="Path_9191" data-name="Path 9191" class="cls-2" d="M179.265,33.965l-.921,2.609h-.077a18.525,18.525,0,0,0-.9-2.558l-4.937-12.407H167.6V41.384h3.2v-12.2c0-.767,0-1.637-.026-2.712-.026-.537-.077-.947-.1-1.253h.077a11.949,11.949,0,0,0,.46,1.688l5.935,14.428h2.251l5.884-14.556a15.5,15.5,0,0,0,.384-1.56h.077c-.077,1.458-.128,2.763-.153,3.556V41.307h3.4V21.558H184.33Zm12.944-6.83h3.326V41.307h-3.326Zm1.688-5.986a1.993,1.993,0,0,0-1.407.563,1.886,1.886,0,0,0,0,2.737,1.971,1.971,0,0,0,1.407.537,2.04,2.04,0,0,0,1.407-.537,1.8,1.8,0,0,0,.588-1.356,1.9,1.9,0,0,0-.588-1.381,1.866,1.866,0,0,0-1.407-.563m13.43,5.858a9.276,9.276,0,0,0-1.867-.2,8.026,8.026,0,0,0-4.042,1,6.681,6.681,0,0,0-2.66,2.737,8.7,8.7,0,0,0-.921,4.093,7.592,7.592,0,0,0,.9,3.658,6.132,6.132,0,0,0,2.507,2.533,7.38,7.38,0,0,0,3.658.9,8.04,8.04,0,0,0,4.016-.947l.026-.026v-3.07l-.128.1a5.717,5.717,0,0,1-1.612.844,4.93,4.93,0,0,1-1.586.307,3.924,3.924,0,0,1-3.121-1.228,4.718,4.718,0,0,1-1.151-3.351,4.836,4.836,0,0,1,1.177-3.453,4.106,4.106,0,0,1,3.121-1.279,5.444,5.444,0,0,1,3.172,1.074l.128.1V27.544l-.026-.026a7.713,7.713,0,0,0-1.586-.512m10.974-.1a3.509,3.509,0,0,0-2.251.793,4.773,4.773,0,0,0-1.279,1.919h-.026V27.135h-3.326V41.307h3.326v-7.24a4.881,4.881,0,0,1,.819-2.993,2.564,2.564,0,0,1,2.149-1.151,8.2,8.2,0,0,1,1,.128,2.624,2.624,0,0,1,.793.333l.128.1V27.16l-.077-.026a2.528,2.528,0,0,0-1.253-.23m9.056-.077a7.333,7.333,0,0,0-5.5,2.047,7.62,7.62,0,0,0-1.97,5.577,7.292,7.292,0,0,0,1.944,5.3,7.988,7.988,0,0,0,10.591-.128,7.594,7.594,0,0,0,1.97-5.5,7.4,7.4,0,0,0-1.867-5.347,6.732,6.732,0,0,0-5.167-1.944m2.66,10.9A3.353,3.353,0,0,1,227.23,38.9a3.494,3.494,0,0,1-2.865-1.228,5.053,5.053,0,0,1-1.023-3.4,5.371,5.371,0,0,1,1.023-3.479,3.518,3.518,0,0,1,2.84-1.228,3.4,3.4,0,0,1,2.763,1.177,5.247,5.247,0,0,1,1.023,3.453,5.918,5.918,0,0,1-.972,3.53m11.793-4.707a7.967,7.967,0,0,1-2.021-1.049,1.452,1.452,0,0,1-.384-1.074,1.188,1.188,0,0,1,.537-1.023,2.465,2.465,0,0,1,1.458-.384,6.622,6.622,0,0,1,1.714.256,4.411,4.411,0,0,1,1.484.691l.128.1V27.416l-.077-.026a9.23,9.23,0,0,0-1.509-.435A10.255,10.255,0,0,0,241.5,26.8a5.927,5.927,0,0,0-3.914,1.228,3.782,3.782,0,0,0-1.509,3.121,4.061,4.061,0,0,0,.333,1.74,3.877,3.877,0,0,0,1.023,1.33,8.915,8.915,0,0,0,2.047,1.151c.767.333,1.356.588,1.714.793a3.472,3.472,0,0,1,.767.614,1.454,1.454,0,0,1,.2.793c0,.947-.716,1.407-2.174,1.407a5.741,5.741,0,0,1-1.842-.333,7.117,7.117,0,0,1-1.867-.947l-.128-.1v3.249l.077.026a9.922,9.922,0,0,0,1.791.563,11.422,11.422,0,0,0,1.919.23,6.23,6.23,0,0,0,4.119-1.228,3.917,3.917,0,0,0,1.56-3.223,3.587,3.587,0,0,0-.819-2.43,10.373,10.373,0,0,0-2.993-1.765M254.4,26.828a7.333,7.333,0,0,0-5.5,2.047,7.727,7.727,0,0,0-1.97,5.577,7.292,7.292,0,0,0,1.944,5.3,7.988,7.988,0,0,0,10.591-.128,7.594,7.594,0,0,0,1.97-5.5,7.4,7.4,0,0,0-1.867-5.347,6.732,6.732,0,0,0-5.167-1.944m2.635,10.9a3.353,3.353,0,0,1-2.788,1.177,3.461,3.461,0,0,1-2.865-1.228,5.053,5.053,0,0,1-1.023-3.4,5.371,5.371,0,0,1,1.023-3.479,3.518,3.518,0,0,1,2.84-1.228,3.436,3.436,0,0,1,2.763,1.177A5.247,5.247,0,0,1,258,34.2a5.581,5.581,0,0,1-.972,3.53m22.179-7.853V27.135H275.86v-4.2l-.1.026-3.172.947-.077.026v3.2H267.5V25.344a2.805,2.805,0,0,1,.563-1.867,1.986,1.986,0,0,1,1.56-.614,3.733,3.733,0,0,1,1.484.333l.128.077V20.381l-.077-.026a6.4,6.4,0,0,0-4.528.358,4.437,4.437,0,0,0-1.816,1.816,5.234,5.234,0,0,0-.665,2.635v1.97h-2.328v2.712h2.328v11.46H267.5V29.872h5.014v7.291c0,2.993,1.407,4.5,4.221,4.5a8.766,8.766,0,0,0,1.407-.153,4.6,4.6,0,0,0,1.049-.333l.026-.026V38.416l-.128.1a2.162,2.162,0,0,1-.691.307,2.342,2.342,0,0,1-.665.1,1.772,1.772,0,0,1-1.458-.537,2.77,2.77,0,0,1-.46-1.816v-6.7h3.4Z" transform="translate(-124.726 -14.958)"/>
      <path id="Path_9192" data-name="Path 9192" class="cls-3" d="M0,0H15.681V15.681H0Z"/>
      <path id="Path_9193" data-name="Path 9193" class="cls-4" d="M67.7,0H83.381V15.681H67.7Z" transform="translate(-50.381)"/>
      <path id="Path_9194" data-name="Path 9194" class="cls-5" d="M0,67.7H15.681V83.381H0Z" transform="translate(0 -50.381)"/>
      <path id="Path_9195" data-name="Path 9195" class="cls-6" d="M67.7,67.7H83.381V83.381H67.7Z" transform="translate(-50.381 -50.381)"/>
    </g>
  </g>
</svg>
