<svg xmlns="http://www.w3.org/2000/svg" width="188" height="80" viewBox="0 0 188 80">
  <defs>
    <style>
      .cls-1 {
        fill: #fff;
      }

      .cls-2 {
        fill: #0077c5;
        fill-rule: evenodd;
      }
    </style>
  </defs>
  <g id="Intuit_logo" transform="translate(-971 -5469)">
    <rect id="testimonialBg" class="cls-1" width="188" height="80" rx="6" transform="translate(971 5469)"/>
    <g id="Intuit_Logo-2" data-name="Intuit_Logo" transform="translate(1002.185 5343.421)">
      <path id="path3040" class="cls-2" d="M122.435,180.288a1.474,1.474,0,1,1,1.507-1.507A1.513,1.513,0,0,1,122.435,180.288Zm0-3.288a1.773,1.773,0,1,0,1.79,1.781A1.782,1.782,0,0,0,122.435,177Zm-.337,1.648v-.572h.33c.189,0,.4.057.4.275,0,.243-.235.3-.44.3Zm1.091-.291c0-.429-.368-.588-.744-.588h-.705v2.008h.358v-.839h.26l.471.84h.44l-.543-.879a.531.531,0,0,0,.463-.54ZM111.922,152.9a3.659,3.659,0,1,0-3.658-3.659,3.658,3.658,0,0,0,3.658,3.659Zm-9.815,3.159v5.367h6.787V180.29h6.056V161.422h6.788v-5.367ZM49.275,152.9a3.658,3.658,0,1,0-3.659-3.658,3.658,3.658,0,0,0,3.659,3.658Zm-9.817,8.524h6.788v18.869H52.3V161.422h6.79v-5.367H39.46v5.367Zm52.348,18.869h6.057V156.07H91.809v24.219Zm-12.252-10.9c0,3.23-1.819,6.558-5.652,6.558-3.886,0-4.541-3.581-4.541-6.458V156.07H63.306v15.137c0,4.946,2.623,9.79,8.933,9.79a8.247,8.247,0,0,0,7.517-4.592h.1v3.886h5.752V156.07H79.555ZM27.444,155.363a8.245,8.245,0,0,0-7.517,4.592h-.1V156.07H14.073v24.219h6.054V166.969c0-3.23,1.817-6.56,5.652-6.56,3.884,0,4.541,3.582,4.541,6.459v13.421h6.054V165.15c0-4.944-2.622-9.788-8.931-9.788ZM1.815,180.289H7.869V156.07H1.815Z" transform="translate(0 0)"/>
    </g>
  </g>
</svg>
