<svg xmlns="http://www.w3.org/2000/svg" xmlns:xlink="http://www.w3.org/1999/xlink" width="144" height="80" viewBox="0 0 144 80">
  <defs>
    <style>
      .cls-1, .cls-4 {
        fill: #fff;
      }

      .cls-2 {
        fill: url(#linear-gradient);
      }

      .cls-3 {
        fill: #1870c5;
      }

      .cls-4 {
        fill-rule: evenodd;
      }
    </style>
    <linearGradient id="linear-gradient" x2="0.011" gradientUnits="objectBoundingBox">
      <stop offset="0" stop-color="#00b8f1"/>
      <stop offset="0.22" stop-color="#06a5e5"/>
      <stop offset="0.794" stop-color="#1870c5"/>
      <stop offset="1" stop-color="#1d61bc"/>
    </linearGradient>
  </defs>
  <g id="SAP_Logo" transform="translate(-767 -5469)">
    <g id="Group_4649" data-name="Group 4649">
      <rect id="testimonialBg" class="cls-1" width="144" height="80" rx="6" transform="translate(767 5469)"/>
      <g id="SAP_Logo-2" data-name="SAP_Logo" transform="translate(801 5491)">
        <path id="path3060" class="cls-2" d="M0,0V37.981H38.8L76.775,0H0Z"/>
        <path id="path5384" class="cls-3" d="M57.206,39.7v2.833h.428V41.3h.481l.775,1.229h.481L58.542,41.3a.766.766,0,0,0,.748-.8c0-.558-.342-.8-1.015-.8Zm.428.374h.588c.289,0,.615.047.615.4,0,.442-.33.481-.695.481h-.508Zm.534-1.416a2.472,2.472,0,1,0,2.459,2.459A2.436,2.436,0,0,0,58.168,38.656Zm0,.4a2.059,2.059,0,0,1,0,4.115,2.058,2.058,0,0,1,0-4.115Z" transform="translate(-8.063 -5.6)"/>
        <path id="path3100" class="cls-4" d="M46.185,19.315H44.521V13.229h1.664c2.222,0,3.99.732,3.99,3,0,2.346-1.768,3.082-3.99,3.082M28.275,23.666a6.912,6.912,0,0,1-2.421-.429l2.4-7.559H28.3l2.347,7.58a7.056,7.056,0,0,1-2.372.409M45.744,8.285H38.187V26.254l-6.6-17.969H25.042L19.4,23.308c-.6-3.787-4.519-5.1-7.6-6.075-2.033-.654-4.2-1.615-4.176-2.68.017-.871,1.162-1.678,3.421-1.557a12.268,12.268,0,0,1,5.53,1.489L19.2,9.911A20.418,20.418,0,0,0,10.64,7.883h-.017a10.4,10.4,0,0,0-7.559,2.765,6.394,6.394,0,0,0-1.809,4.41A5.921,5.921,0,0,0,3.85,20.331a17.835,17.835,0,0,0,5.138,2.352c2.1.647,3.813,1.213,3.793,2.417a1.752,1.752,0,0,1-.5,1.175,3.324,3.324,0,0,1-2.436.769,10.466,10.466,0,0,1-6.259-1.786L1.256,29.9A17.436,17.436,0,0,0,9.81,32.172H10.2a10.36,10.36,0,0,0,6.5-2.183l.277-.242-.756,2.032h6.862l1.153-3.505a13.124,13.124,0,0,0,7.974.033l1.108,3.472h11.2v-7.26h2.443c5.9,0,9.395-3,9.395-8.043,0-5.61-3.393-8.183-10.617-8.183" transform="translate(-0.182 -1.142)"/>
      </g>
    </g>
  </g>
</svg>
