<svg xmlns="http://www.w3.org/2000/svg" width="57" height="49.221" viewBox="0 0 57 49.221"><defs><style>.a{fill:rgba(244,163,76,0.93);}</style></defs><g transform="translate(0 -34.936)"><path class="a" d="M55.052,34.936H1.948A1.951,1.951,0,0,0,0,36.884v6.857a.835.835,0,0,0,1.67,0V36.884a.279.279,0,0,1,.278-.278h53.1a.279.279,0,0,1,.278.278V77.6a.279.279,0,0,1-.278.278h-10.7V76.142h8.4a.835.835,0,0,0,.835-.835V66.564a.835.835,0,0,0-1.67,0v7.909H44.352v-3.7l.08.007a2.555,2.555,0,0,0,2.153-.462,2.564,2.564,0,0,0,.46-2.154,1.267,1.267,0,0,1,.577-1.423c1.473-1.225,1.5-2.536,0-3.783a1.268,1.268,0,0,1-.577-1.424c.163-1.868-.709-2.783-2.613-2.616a1.26,1.26,0,0,1-1.419-.577c-1.223-1.476-2.535-1.5-3.78,0a1.26,1.26,0,0,1-1.418.577c-1.869-.164-2.78.713-2.613,2.616a1.267,1.267,0,0,1-.577,1.424c-1.473,1.224-1.5,2.536,0,3.783a1.268,1.268,0,0,1,.577,1.424c-.175,2,.78,2.774,2.693,2.609v3.7H5.085V40.013H51.915v22.1a.835.835,0,0,0,1.67,0V39.178a.835.835,0,0,0-.835-.835H4.25a.835.835,0,0,0-.835.835V75.307a.835.835,0,0,0,.835.835H37.895V77.88H1.948A.279.279,0,0,1,1.67,77.6V47.972a.835.835,0,0,0-1.67,0V77.6a1.951,1.951,0,0,0,1.948,1.948H37.895v3.78a.835.835,0,0,0,1.187.757l2.041-.95,2.041.95a.852.852,0,0,0,1.187-.757v-3.78h10.7A1.951,1.951,0,0,0,57,77.6V36.884a1.95,1.95,0,0,0-1.948-1.948ZM37.668,69.111c-.836.074-.876.029-.8-.807a2.881,2.881,0,0,0-1.173-2.853c-.678-.563-.677-.651,0-1.215a2.88,2.88,0,0,0,1.173-2.853c-.073-.836-.033-.88.8-.807A2.872,2.872,0,0,0,40.519,59.4c.561-.677.647-.677,1.208,0a2.874,2.874,0,0,0,2.851,1.176c.836-.074.876-.029.8.807a2.88,2.88,0,0,0,1.173,2.853c.677.563.678.651,0,1.215A2.88,2.88,0,0,0,45.381,68.3c.073.835.033.88-.8.807a3.489,3.489,0,0,0-1.643.119,3.331,3.331,0,0,0-1.208,1.057,3.088,3.088,0,0,1-.6.618,3.091,3.091,0,0,1-.6-.618,3.331,3.331,0,0,0-1.208-1.057,3.656,3.656,0,0,0-1.643-.119Zm3.807,12.348a.835.835,0,0,0-.7,0l-1.206.561V71.739a1.866,1.866,0,0,0,3.117,0V82.02Z"/><path class="a" d="M90.8,129.991h28.784a.835.835,0,0,0,0-1.67H90.8A.835.835,0,0,0,90.8,129.991Z" transform="translate(-79.971 -82.989)"/><path class="a" d="M126.979,174.774a.835.835,0,0,0-.835-.835H90.8a.835.835,0,0,0,0,1.67h35.344A.835.835,0,0,0,126.979,174.774Z" transform="translate(-79.972 -123.528)"/><path class="a" d="M111.716,220.391a.835.835,0,0,0-.835-.835H90.8a.835.835,0,0,0,0,1.67h20.081A.835.835,0,0,0,111.716,220.391Z" transform="translate(-79.972 -164.067)"/><path class="a" d="M103.319,273.836l-1.366,0c-.876,0-1.358-.233-1.537-1.161-.163-.848-1.386-.74-1.61,0-.1.328-.6,1.266-1.038,1.189-.232-.041-.333-.4-.419-.584a7.121,7.121,0,0,1-.393-1.126c-.44-1.618-.527-3.307-.8-4.956-.159-.956-1.617-.686-1.64.222a25.55,25.55,0,0,1-1.577,8.453c-.382,1.006,1.232,1.44,1.61.444a23.61,23.61,0,0,0,.956-3.2,8.468,8.468,0,0,0,.478,1.161,1.987,1.987,0,0,0,2.546,1.105,2.85,2.85,0,0,0,1.021-.746c.79.911,1.965.87,3.062.868q2.479,0,4.959-.011a.835.835,0,0,0,0-1.67l-4.252.01Z" transform="translate(-82.539 -205.873)"/><path class="a" d="M343.355,280.808a3.261,3.261,0,1,0-3.261-3.261A3.265,3.265,0,0,0,343.355,280.808Zm0-4.853a1.591,1.591,0,1,1-1.591,1.591A1.593,1.593,0,0,1,343.355,275.956Z" transform="translate(-302.232 -212.704)"/></g></svg>