<svg xmlns="http://www.w3.org/2000/svg" width="93.063" height="27.162" viewBox="0 0 93.063 27.162">
  <g id="Group_1341" data-name="Group 1341" transform="translate(-297 -371)">
    <g id="zensar-technologies-vector-logo" transform="translate(276.9 138.1)">
      <path id="Path_1388" data-name="Path 1388" d="M44.405,304.485c1.07-.062,1.458.807,1.179,2.42H42.466v-.047a2.376,2.376,0,0,1,1.939-2.373m-2.342,5.025h8.19c.434-3.211.527-4.979-.776-6.359-1.055-1.117-2.575-1.458-4.669-1.458-3.707,0-6.623,1.5-7.817,4.343a7.855,7.855,0,0,0-.527,2.078c-.465,3.4.31,6.437,7.1,6.39a22.779,22.779,0,0,0,5.087-.729l.5-3.087c-4.855,1.38-7.445.745-7.088-1.179m-4.994-6.7.946-5.041H23.156l-.651,4.265h7.662l-9.291,7.135-.776,5.087H35.362l.76-4.374H27.948Zm20.319,1.148.341-2.032H52.1l-2.156,12.331h6l1.256-7.693a1.452,1.452,0,0,1,1.3-1.117.842.842,0,0,1,.853.962l-1.365,7.848h5.987l1.458-8.67c1.163-5.227-6.5-4.653-8.05-1.629m30.587,7.29c-.915.295-1.629.109-1.846-.45a1.381,1.381,0,0,1,.915-1.675,4.894,4.894,0,0,1,2.435-.264,2.615,2.615,0,0,1-1.5,2.389M94.6,303.2c-1.551-1.691-6.794-2.109-11.121-.838l-.62,3.49c1.489-.729,7.228-2.42,7.166.682a20.657,20.657,0,0,0-4.265-.016,5.967,5.967,0,0,0-4.545,2.621,4.129,4.129,0,0,0-.636,2.916c.357,1.923,2.482,2.513,4.172,2.466a5.238,5.238,0,0,0,4.033-2.016l-.248,1.768h5.491l1.427-7.926A4.055,4.055,0,0,0,94.6,303.2m7.833,1.52.5-2.776H97.3l-2.14,12.315h6l.745-4.56c1.055-3.025,3.071-3.459,4.963-3.04l.884-4.963c-2.59-.5-4.529,1.489-5.32,3.025m-21.87,2.234a2.83,2.83,0,0,0-.651-1.272c-.931-1.008-2.513-1.644-4.839-1.985-.776-.14-2.544-.434-1.815-1.5,1.117-1.66,6.034-.4,7.492.109l.745-4.25c-3.8-.822-7.988-1.163-11.447.45a5.7,5.7,0,0,0-3.381,3.971c-.76,3.831,1.706,4.731,5.258,5.615.869.233,2.327.295,2.373,1.272-.016,1.489-5.4,1.691-8.562.109l-.76,4.265c4.25,1.163,10.64,1.148,13.386-.993a5.684,5.684,0,0,0,2.2-5.785" transform="translate(0 -54.462)" fill="#002d64"/>
      <path id="Path_1389" data-name="Path 1389" d="M471.574,232.993h.078V232.9h-.078Zm-.388.31h.078v-.155h-.078Zm-.078.155h.078v-.078h-.078Zm-.388.078h.078v-.078h-.078Zm.31-.031a.406.406,0,0,1-.047-.124.528.528,0,0,0,.016.155c.016.016.031.031.031.047h.155a.755.755,0,0,1-.109-.047c-.016-.016-.031-.016-.047-.031m-.357.2c.016.016.031.031.031.047-.016.016-.031.031-.031.047.016.016.031.031.031.047l.047-.047v-.078l-.047-.047c-.031-.031-.031-.031-.031.031m-.434.078h.093v-.078h-.093Zm.7.093h.093V233.8h-.093Zm-1.241.078h-.078v.078h.078Zm.512.078c.016.016.031.031.031.047l.047-.047-.047-.047c-.016.016-.031.031-.031.047m-.124.078h-.078v.078h.078Zm.558.155h.078v-.155h-.078Zm-.481,0h.078v-.078h-.078Zm-.776-.078h-.078v.078h.078Zm.186.078.047.047.047-.047c.031-.016.078-.031.109-.047h-.155l-.047.047m.993.171h.078v-.093h-.078Zm-.4-.093h-.078v.093h.078Zm-.341.171.047.047c.016-.016.031-.031.031-.047l.047-.14a.491.491,0,0,0-.078.093c-.031.016-.031.031-.047.047m-.589.078h.078v-.078h-.078Zm-.155-.109c-.031.047-.047.078-.078.124h.155a1.436,1.436,0,0,1-.078-.124m-.171.031h-.078v.078h.078Zm-.62,0h-.093v.078h.093Zm1.287.078-.047-.047c-.031-.047-.078-.078-.109-.124l-.047-.047c-.031-.031-.031-.031-.031.047.016.016.031.031.031.047a.777.777,0,0,1,.109.124c.016.016.031.031.031.047a.214.214,0,0,0,.062-.047m.838.155h.078v-.078h-.078Zm-1.024,0h.078v-.078h-.078Zm-.155,0h.078v-.078h-.078Zm.31.093h.093v-.078h-.093Zm-1.256-.093h-.093v.078h.093Zm.62,0h-.078v.155h.078Zm1.256.248h.078v-.078h-.078Zm-.31,0h.078v-.078h-.078Zm-1.6,0c-.031.047-.031.047.031.047.016-.016.031-.031.031-.047l.047-.047c.016-.016.031-.031.031-.047l.047.047c.047.016.109.031.155.047a.55.55,0,0,1-.031-.155l-.047-.047.047-.047c.031-.016.078-.031.109-.047h-.155c-.016.016-.031.031-.031.047-.016.016-.031.031-.031.047l-.047.047c-.016.016-.031.031-.031.047l-.047.047c-.016.016-.031.031-.031.047-.016-.016-.031,0-.047.016m.977-.078h-.078v.171h.078Zm-1.1.078h-.078v.093h.078Zm-.357.093a.192.192,0,0,0-.031-.047l-.047.047.047.047c.016-.031.031-.031.031-.047m.9.078h.078v-.078h-.078Zm.558.078h.078v-.078h-.078Zm-.279-.248a.916.916,0,0,0-.031.217l-.047.047c-.016.016-.031.031-.031.047l-.047.047c-.016.016-.031.031-.031.047l-.047.047c-.031.062-.078.124-.109.2-.016.016-.031.031-.031.047l-.047-.047h-.078l-.047.047.047.047c.016-.016.031-.031.031-.047.016.016.031.031.031.047h.078l.047-.047c.047.047.047.047.155-.047a.55.55,0,0,1-.031-.155c.016-.016.031-.031.031-.047l.047-.047c.016-.016.031-.031.031-.047l.047-.047.047-.047c.031-.047.047-.078.078-.124a1.053,1.053,0,0,1-.093-.14m-.357.326h.078v-.078H468.6Zm-1.055,0,.047.047c.016.047.031.078.047.124a.365.365,0,0,0,.031-.124c.016-.016.031-.031.031-.047-.016-.016-.031-.031-.031-.047-.016.016-.031.031-.031.047l-.047-.047H467.5l-.047.047.047.047.047-.047m.9.078h.078v-.155h-.078Zm-.279,0a1.7,1.7,0,0,1,.171-.155c-.078-.031-.14-.047-.2-.078v.2l-.047.047c-.016-.016-.031-.031-.031-.047l-.078-.078.047-.047-.047-.047c-.016.016-.031.031-.031.047a.725.725,0,0,0-.062.217.25.25,0,0,1,.14-.047c.016.016.031.031.031.047a.365.365,0,0,1,.031.124c.016-.047.031-.078.047-.124.016-.031.016-.047.031-.062m-1.365,0h-.078v.078h.078Zm.7.078h-.078v.078h.078Zm1.768.078c-.016-.016-.031-.031-.031-.047v-.2c-.078,0-.078,0-.047.233l.047.047c.016,0,.016-.016.031-.031m-.264.078h.078v-.078H469Zm-1.1-.078h-.078v.078h.078Zm-.931.078h-.078v.078h.078Zm-.248,0h-.078v.078h.078Zm2.513.171h.078v-.093h-.078Zm-1.1,0h.078v-.171h-.078Zm.7.078h.078V235.8h-.078Zm-.388-.078h-.078v.078h.078Zm-.543,0h-.078v.078h.078Zm-.31.171h.155v-.078h-.155Zm-.869-.093h-.078v.078h.078Zm-.31,0h-.078v.078h.078Zm1.954.171h.155v-.078h-.155Zm-.233.078h.078v-.233h-.078Zm-.233,0a.655.655,0,0,0,.109-.078.658.658,0,0,1-.109-.078Zm-.357,0,.047.047.047-.047-.047-.047c-.047-.016-.047-.016-.047.047m-1.055,0h.155v-.078h-.155Zm-.822,0v-.155a.365.365,0,0,0-.031.124l-.047.047.047.047c0-.047.016-.047.031-.062m1.225.078h.078v-.155h-.078Zm-.993,0,.047.047c.124.047.124.047.078,0,.016-.016.031-.031.031-.047.078-.031.155-.047.248-.078a1.24,1.24,0,0,1-.2-.2c.016-.016.031-.031.031-.047.047.047.047.047.124-.047.016-.016.031-.031.031-.047h.186v.155c.078,0,.078,0,.016-.279-.186,0-.186,0-.248.062l-.047.047-.093-.093c-.016-.016-.031-.031-.031-.047l-.047.047.047.047v.093l-.047.047a1.71,1.71,0,0,0-.031.279l-.047.047c-.016-.016-.031-.031-.031-.047l-.047-.047-.047-.047.047-.047-.047-.047c-.016.016-.031.031-.031.047v.078c.016.016.031.031.031.047l.078.078m1.52-.047c-.031-.078-.047-.155-.078-.233l-.078.078c-.016.016-.031.031-.031.047a.777.777,0,0,1-.109-.124l.047-.047c.016-.016.031-.031.031-.047l.047-.047a.192.192,0,0,1,.031-.047l.047-.047c.016.016.031.031.031.047.078.016.155.031.248.047-.031-.047-.047-.109-.078-.155a.921.921,0,0,0-.124.062c-.016-.016-.031-.031-.031-.047-.016-.016-.031-.031-.031-.047l-.047-.047a.365.365,0,0,1-.031-.124l-.047-.047.047-.047c.016-.016.031-.031.031-.047l.047-.047-.047-.047c-.016.016-.031.031-.031.047l-.047.047c-.016.016-.031.031-.031.047v.078c.016.016.031.031.031.047l-.078.078c-.016.016-.031.031-.031.047.016.016.031.031.031.047l.047-.047h.078c.016.016.031.031.031.047-.016.016-.031.031-.031.047l-.047.047c-.016.016-.031.031-.031.047l-.047.047c-.016.016-.031.031-.031.047l-.186-.047q-.047.023-.047.047l.047.047.047-.047c.031.078.078.155.109.233h.186c.016.016.031.031.031.047a.758.758,0,0,1,.109.047l.047.047c.109.155.109.155.2.124-.062-.047-.109-.109-.171-.155a.215.215,0,0,1-.062-.047m.326.124h.078V236.2h-.078Zm-.434.078-.047-.047c-.016.016-.031.031-.031.047.016.016.031.031.031.047l.047-.047m.977.078h.078v-.078h-.078Zm-3.614-.078h-.078v.078h.078Zm2.994.171h.078v-.093h-.078Zm-3.614-.093h-.078v.093h.078Zm3.288.093h-.078v.078h.078Zm-2.668,0h-.078v.078h.078Zm2.994.155h.078v-.078h-.078Zm-.481-.155a1.463,1.463,0,0,0-.14.047,1.3,1.3,0,0,0,.062.186c.078,0,.078,0,.078-.233m-3.04.155h-.093v.078h.093Zm3.2.124c-.016.016-.031.031-.031.047v.155a.365.365,0,0,0,.031-.124c.016-.016.031-.031.031-.047h.2c.016-.078.016-.078-.233-.031m-.372.031h.078v-.078h-.078Zm-.171-.4c0-.078,0-.078.326-.078a.985.985,0,0,1-.062-.14c-.093.016-.186.047-.264.062v-.233c-.078,0-.078,0-.078.155-.186.047-.357.078-.543.124.078.031.155.047.233.078-.016.016-.031.031-.031.047-.031.016-.078.031-.109.047h.155l.047-.047c.109-.155.109-.155.264-.155a2.891,2.891,0,0,0-.062.388c-.062.016-.109.047-.171.062-.016.016-.031.031-.031.047a2.65,2.65,0,0,1-.357-.2c.016-.016.031-.031.031-.047a.192.192,0,0,0-.031-.047l-.047.047a.192.192,0,0,0-.031-.047h-.078l-.047.047q-.023-.047-.047-.047a.365.365,0,0,1-.031-.124c-.093-.016-.186-.031-.264-.047.124.093.124.093.078.155l-.047.047c-.047.047-.047.047-.2-.047a1.7,1.7,0,0,0-.155.171c-.047-.031-.109-.047-.155-.078.016-.016.031-.031.031-.047v-.093c-.016-.016-.031-.031-.031-.047h-.078l-.047.047v.093l.047.047c-.093.016-.171.031-.248.047a.983.983,0,0,0,.062.14.64.64,0,0,1,.186-.016l-.047.047.047.047c.016-.016.031-.031.031-.047.186.047.481-.047.558,0l.047.047-.047.047.047.047c.016-.016.031-.031.031-.047.062.047.062.047.047.31a.768.768,0,0,1,.2-.062.4.4,0,0,1-.047-.171c.047-.016.109-.031.155-.047.016-.016.031-.031.031-.047.047.047.047.047.124-.047l.047-.047c.062.047.124.078.186.124l.078-.078.047-.047c.031.016.078.031.109.047-.016.016-.031.031-.031.047-.016.047-.031.109-.047.155h-.31c0,.078,0,.078.233.078v.171c.078,0,.078,0,.124-.155.016.016.031.047.062.062.016.016.031.031.031.047.016.047.031.078.047.124.016.016.031.031.031.047l.047-.047-.047-.047c.047-.062.047-.062-.031-.14l-.047-.047c-.031-.078-.047-.155-.078-.233l.047-.047h.2c-.031-.062-.047-.124-.078-.186a1.1,1.1,0,0,1,.109-.14.338.338,0,0,1-.124-.078m-2.125.326h-.078v.078h.078Zm-.853,0h-.078v.078h.078Zm-.155,0h-.078v.078h.078Zm.667.171c.016.016.031.031.031.047l.186-.047h-.155l-.047-.047a.365.365,0,0,1-.031-.124l-.047-.047.047-.047-.047-.047c-.016.016-.031.031-.031.047v.078c.016.016.031.031.031.047a.551.551,0,0,1,.062.14m-.279,0h.093v-.078h-.093Zm2.745.155h.093v-.078H466.8Zm-3.443-.078H463.2v.078h.155Zm3.754.155h.155v-.078h-.155Zm-.776,0h-.078v.093h.078Zm-.248-.155c-.078,0-.078,0-.078.248a1.125,1.125,0,0,1,.14-.078,1.024,1.024,0,0,0-.062-.171m-.527.341a1.364,1.364,0,0,1,.031-.264c-.062.078-.109.155-.171.248-.016-.016-.031-.031-.031-.047.031-.14.031-.14-.047-.45-.047.078-.109.155-.155.233l-.047-.047c-.078-.031-.155-.047-.233-.078.062.047.124.078.186.124l.047.047a2.7,2.7,0,0,1,.186.217l.047.047-.047.047c-.016.016-.031.031-.031.047l-.047.047.047.047c.016-.016.031-.031.031-.047l.047.047v.078l-.047.047v.078l.047.047.031-.047c-.016-.016-.031-.031-.031-.047.016-.016.031-.031.031-.047.047,0,.047-.155,0-.155-.016-.016-.031-.031-.031-.047.016-.016.031-.031.031-.047a.479.479,0,0,1,.155-.078m-2.047-.016h-.078v.078h.078Zm2.978.155h.078v-.078h-.078Zm-.233,0h.078v-.078h-.078Zm-3.133-.078h-.078v.078h.078Zm-.791.047c-.031.047-.047.078-.078.124h.155a.338.338,0,0,0-.078-.124m2.714.109c-.016-.171-.031-.326-.031-.481-.078,0-.078,0-.078.248a1.29,1.29,0,0,0-.233-.062c.031-.093.047-.171.078-.248a1,1,0,0,0-.124.14c-.016-.016-.031-.031-.031-.047-.186.016-.31.14-.558.14a1.406,1.406,0,0,1,.171-.248h-.326v.217l-.047.047a.8.8,0,0,1-.031-.171c-.078,0-.078,0-.078.217-.016.016-.031.031-.031.047l-.047-.047c-.016.016-.031.031-.031.047.016.016.031.031.031.047h.078c.016-.016.031-.031.031-.047a.758.758,0,0,0,.109-.047l.047-.047c.016.14.031.264.047.4a.942.942,0,0,1,.155.109c-.062.031-.109.047-.171.078-.016.016-.031.031-.031.047h-.109v.171h.109c.016.016.031.031.031.047v.233c-.016.016-.031.031-.031.047v.155c.016.016.031.031.031.047.047.016.109.031.171.047a1.125,1.125,0,0,0-.078-.14.083.083,0,0,0-.047.062l-.047-.047v-.078l.047-.047a2.293,2.293,0,0,1,.2-.124l.047-.047c.109-.031.2-.047.31-.078.016.016.031.031.031.047l-.078.078-.047.047.047.047.047-.047h.186v-.155h-.109c-.016-.016-.031-.031-.031-.047-.186-.217-.217-.372-.388-.4l.047-.047c.078-.031.155-.047.233-.078l.047.047c-.016.062-.031.14-.047.2.078.047.078.047.264-.047-.14-.109-.14-.109-.078-.155.016-.016.031-.031.031-.047h.171c.016.016.031.031.031.047.016.062.031.14.047.2l.047.047c.016-.016.031-.031.031-.047-.016-.016-.031-.031-.031-.047v-.155a.062.062,0,0,1,.016-.078m1.287.078h.078v-.078h-.078Zm-.31-.109a.676.676,0,0,1,.062.109.865.865,0,0,1,.124-.078.778.778,0,0,0-.186-.031m-.388,0-.047.047v.155c.016-.047.031-.078.047-.124.016-.016.031-.031.031-.047a.7.7,0,0,1,.171.016c-.031-.093-.062-.171-.093-.248-.031.062-.078.124-.109.2m-2.358.031h-.233v.078h.233Zm-1.722.078h-.078v.078h.078Zm-.4,0h-.078v.078h.078Zm-.233,0h-.078v.078h.078Zm4.312.078h-.078v.078h.078Zm-3.474-.062a1,1,0,0,0-.124.14h.31c0-.078,0-.078-.186-.14m3.955.233h.078v-.078h-.078Zm-5.025-.093h-.093v.078h.093Zm.2.093c.016.016.031.031.031.047a.527.527,0,0,1,.155-.016.757.757,0,0,1-.109-.047l-.047-.047a.081.081,0,0,1-.031.062m5.289.078h.078v-.093h-.078Zm-.946,0h.078v-.093h-.078Zm-4.932-.078h-.078v.093h.078Zm4.669.171-.047-.047c-.016-.016-.031-.031-.031-.047-.016-.016-.031-.031-.031-.047-.047-.031-.047-.031-.047.047l.047.047c.016.016.031.031.031.047.016.016.031.031.031.047H465c.016-.016.031-.031.031-.047-.016-.016-.031-.031-.031-.047-.016.016-.031.031-.031.047m-5.227.155h-.078v.078h.078Zm-.931.078h-.078v.078h.078Zm5.863.233h.078v-.078h-.078Zm-5.63-.078h-.078v.078h.078Zm-.233.078h.078v-.078h-.078Zm5.677,0c-.016-.016-.031-.031-.031-.047-.016-.016-.031-.031-.031-.047l-.047-.047c-.016.016-.031.031-.031.047.016.016.031.031.031.047l.047.047c.016.016.031.031.031.047v.14c.078,0,.078,0,.078-.14l.047-.047-.047-.047-.047.047m-.7.078c-.016-.016-.031-.031-.031-.047.016-.016.031-.031.031-.047v-.078c-.016-.016-.031-.031-.031-.047-.016-.016-.031-.031-.031-.047l-.047-.047c.047-.047.047-.047-.155-.155l.047-.047c.031-.016.078-.031.109-.047a1.978,1.978,0,0,1,.016-.31.141.141,0,0,1,.109-.047l.047.047.031-.047c-.016-.016-.031-.031-.031-.047l-.186-.047-.047-.047c.233-.078.233-.078-.078,0-.016.016-.031.031-.031.047l-.047-.047c-.047-.016-.047-.016-.031.047.016.016.031.031.031.047l.047.047.031.047h-.4c-.016.016-.031.031-.031.047l-.047-.047c-.031-.016-.078-.031-.109-.047l-.047-.047.047-.047a.551.551,0,0,0,.031-.155H462.8c-.016-.016-.031-.031-.031-.047h-.171l-.047.047.047.047c.016-.016.031-.031.031-.047h.078l.047.047a.206.206,0,0,0-.047.124,1.821,1.821,0,0,0,.171.078l.031.047v.078c-.016.016-.031.031-.031.047l-.047-.047c-.186-.047-.341-.078-.512-.124-.016-.016-.031-.031-.031-.047h-.155a.757.757,0,0,1,.109.047l.047.047c.031.047.031.047-.155.248-.016.016-.031.031-.031.047a.943.943,0,0,1-.109-.155l-.31.047a.55.55,0,0,0,.062.14l-.047.047-.078-.078-.047-.047v-.217c-.078,0-.078,0-.078.217l-.047.047h-.078c-.016-.016-.031-.031-.031-.047.016-.016.031-.031.031-.047-.016-.016-.031-.031-.031-.047q-.047.023-.047.047l-.047-.047V237.8l.047-.047-.047-.047-.047.047v.171l.047.047.047.047.047.047q-.047.023-.047.047l.047.047c.016-.016.031-.031.031-.047.016.109.031.217.047.31-.078,0-.078,0-.078-.155-.186-.062-.186-.062-.279-.233-.031.124-.078.233-.109.357-.016.016-.031.031-.031.047h-.186v-.155a.768.768,0,0,1,.2-.062,2.565,2.565,0,0,1-.093-.248.949.949,0,0,0-.109.217c-.2,0-.2,0-.248.062l-.047.047-.047-.047c-.016-.016-.031-.031-.031-.047l-.047-.047c-.031-.016-.078-.031-.109-.047-.016-.016-.031-.031-.031-.047H460.1c-.016.016-.031.031-.031.047v.078c.016.016.031.031.031.047h.078c.016-.016.031-.031.031-.047h.078c.016.016.031.031.031.047-.016.016-.031.031-.031.047v.155c.016.016.031.031.031.047l-.186.047-.047-.047c-.031-.047-.062-.109-.093-.155l-.155.155-.047.047-.047-.047c-.016.016-.031.031-.031.047.016.016.031.031.031.047h.078c.016-.016.031-.031.031-.047h.171c.016.016.031.031.031.047-.155.248-.434.109-.574.047a.823.823,0,0,0-.093.155l-.047-.047h-.078c-.016.016-.031.031-.031.047q-.047-.023-.047-.047c-.016.016-.031.031-.031.047l.031.047c-.016.016-.031.031-.031.047a.775.775,0,0,0-.109.124l-.047.047c-.016-.016-.031-.031-.031-.047-.109-.124-.109-.124-.388-.124a1.965,1.965,0,0,0-.093.279l-.047.047h-.078c-.016-.016-.031-.031-.031-.047l-.186-.047c-.016-.016-.031-.031-.031-.047l-.047-.047c-.016-.016-.031-.031-.031-.047h-.078c-.016.016-.031.031-.031.047-.093.031-.171.047-.248.078l.078.078c.016.016.031.031.031.047a1.819,1.819,0,0,0-.078.171c-.016.016-.031.031-.031.047a1.82,1.82,0,0,0-.078-.171.855.855,0,0,0-.109.14c-.047-.062-.047-.062.031-.217-.14.031-.264.047-.4.078.109.093.2.186.326.295-.031.062-.047.14-.078.2a3.141,3.141,0,0,1-.2-.279l-.078.078c-.031-.047-.047-.078-.078-.124l-.186.047a1.33,1.33,0,0,0-.047.264c-.186-.047-.186-.047-.481.047-.016.016-.031.031-.031.047-.264-.031-.264-.031-.186.047l-.047.047h-.155c-.016-.016-.031-.031-.031-.047a.491.491,0,0,1-.093-.078l.047-.047c.031-.047.047-.078.078-.124-.031-.062-.062-.14-.093-.2-.078.2-.078.2-.031.279l-.047.047h-.155c-.016-.016-.031-.031-.031-.047l-.186.047c-.016-.016-.031-.031-.031-.047-.2.047-.2.124-.512.2-.016-.016-.031-.031-.031-.047a.757.757,0,0,1-.109-.047l.078.078.047.047v.078l-.047.047c-.047-.047-.047-.047-.109.047l-.047.047c-.047.047-.047.047-.279-.171h.171v-.2c.016-.016.031-.031.031-.047a.754.754,0,0,0,.109-.047h-.155c-.031.016-.031.031-.047.047-.093.047-.186.109-.264.155a.55.55,0,0,1-.031-.155l-.047-.047c-.016.016-.031.031-.031.047.016.016.031.031.031.047-.031.047-.047.109-.078.155-.016.016-.031.031-.031.047l-.078-.078c-.016-.016-.031-.031-.031-.047h-.078q-.047.023-.047.047l-.047-.047h-.155c-.016.016-.031.031-.031.047a.779.779,0,0,1-.109-.124v.155c-.016.016-.031.031-.031.047a.558.558,0,0,0-.031.171l-.186.047a.777.777,0,0,1,.031-.186l.047-.047-.047-.047c-.016.016-.031.031-.031.047a1.074,1.074,0,0,1-.124-.047,1.829,1.829,0,0,0-.078.171l-.047.047-.047-.047h-.078c-.016.016-.031.031-.031.047l-.078.078-.047-.047c-.016-.016-.031-.031-.031-.047-.016-.016-.031-.031-.031-.047v-.14c-.078,0-.078,0-.078.14l-.047.047c-.031.031-.062.047-.093.078-.016-.016-.031-.031-.031-.047h-.155l-.047.047c-.062.047-.124.078-.186.124.047.031.109.047.155.078l-.047.047h-.155c-.016-.016-.031-.031-.031-.047v-.124c-.062.016-.109.031-.171.047l-.047.047c-.047-.047-.047-.047,0,.078l.047.047a1.006,1.006,0,0,1-.574.047c-.016-.016-.031-.031-.031-.047v-.2h-.093v.2l-.047.047c-.031.062-.078.14-.109.217-.047-.047-.093-.078-.124-.109a1.734,1.734,0,0,1-.9.124v.155h-.155v-.155h-.171v.155c-.078,0-.078,0-.14-.14a.083.083,0,0,0-.047.062c-.016-.016-.031-.031-.031-.047l-.047-.047q-.023-.047-.047-.047l.047-.047.047-.047c.016-.016.031-.031.031-.047-.016-.016-.031-.031-.031-.047l-.047.047-.047.047c-.016.016-.031.031-.031.047l-.047.047c-.016.016-.031.031-.031.047v.078c.016.016.031.031.031.047-.016.016-.031.031-.031.047h-.279c.047.171.047.171-.047.233-.016-.016-.031-.031-.031-.047V241h-.233v.233c-.093-.047-.171-.109-.248-.155v.155c-.078,0-.078,0-.109-.155-.016-.016-.031-.031-.031-.047.016-.016.031-.031.031-.047V240.9c-.016-.016-.031-.031-.031-.047l-.047.047.047.047-.047.047c-.31.047-.248-.016-.388.233l-.047-.047c0-.062,0-.062-.2-.2l-.047-.047c-.016-.016-.031-.031-.031-.047l-.047-.047-.078-.078a.365.365,0,0,1,.031.124l.047.047-.047.047-.186.047v.155a.292.292,0,0,0-.124.031l-.047-.047a.4.4,0,0,1-.047-.124l-.047-.047c-.016.016-.031.031-.031.047.016.016.031.031.031.047v.078c-.016.016-.031.031-.031.047-.155-.047-.155-.047-.341.047-.016.016-.031.031-.031.047.016.016.031.031.031.047l.047-.047c.047,0,.047,0,.047.186a.92.92,0,0,0-.124.062l-.047-.047-.248-.248-.078.078c-.016.016-.031.031-.031.047l-.047-.047c-.016.016-.031.031-.031.047.016.016.031.031.031.047l.047.047c.016.016.031.031.031.047l.047.047c.016.016.031.031.031.047a.365.365,0,0,0-.031.124l-.047-.047H445.9c-.016.016-.031.031-.031.047-.047-.016-.109-.031-.155-.047-.031.047-.047.078-.078.124.093-.016.186-.031.264-.047l.047-.047c.016.016.031.031.031.047v.078c-.016.016-.031.031-.031.047l-.047.047c-.016.016-.031.031-.031.047h-.186c-.062.093-.109.186-.171.295-.016-.155-.016-.155-.186-.279,0,.171.016.341.031.512l-.047.047a.551.551,0,0,0-.031.155h.155c0,.078,0,.078-.155.078,0,.078.171.14.248.295l-.047.047c-.109-.031-.186-.047-.279-.078a2.281,2.281,0,0,1,.155.2l-.047.047v.078l.047.047-.078.078c-.031-.047-.047-.078-.078-.124-.078,0-.078,0-.078.248.062.047.124.109.186.155l.047.047.078.078-.047.047c-.031.016-.078.031-.109.047.031.016.078.031.109.047l.047.047-.233.078c.047.031.109.047.171.093a1.7,1.7,0,0,1,.155-.171c.016-.016.031-.031.031-.047v-.124c-.016-.016-.031-.031-.031-.047l.341-.047c.016.016.031.031.031.047v.31c-.016.016-.031.031-.031.047a1.2,1.2,0,0,0-.031.248c.062.031.124.047.186.078.016.016.031.031.031.047-.016.016-.031.031-.031.047.016.016.031.031.031.047l.047-.047.047-.047.047-.047c.047-.031.109-.047.155-.078.016.016.031.031.031.047.031.155.047.31.078.481l-.047.047.047.047c.016-.016.031-.031.031-.047.093-.124.186-.248.264-.372l.047-.047a.938.938,0,0,0,.124.124c-.016.016-.031.031-.031.047a1.1,1.1,0,0,0,.016.217.121.121,0,0,1,.062-.062c.016.016.031.031.031.047a.192.192,0,0,1,.031-.047c-.016-.016-.031-.031-.031-.047.016-.016.031-.031.031-.047.016-.047.031-.078.047-.124l.047-.047h.078l.047.047c-.078.372,0,.372,0,.124.093-.031.186-.047.279-.078.016.016.031.031.031.047h.078l.047-.047a.364.364,0,0,0,.031-.124l.047-.047h.109a1.2,1.2,0,0,1,.031.233l.047.047.047.14a2.633,2.633,0,0,1,.341-.062c-.062-.031-.109-.047-.171-.078l.047-.047v-.078c-.031-.016-.031-.031-.047-.047.109-.047.233-.078.357-.124.016.016.031.031.031.047.031.078.047.155.078.233l-.047.047.047.047a.192.192,0,0,1,.031-.047l.078-.078.047.047a.756.756,0,0,1,.047.109c.062-.062.062-.062-.016-.14-.016-.016-.031-.031-.031-.047l-.078-.078c.016-.016.031-.031.031-.047v-.078c-.016-.016-.031-.031-.031-.047.031-.016.078-.031.109-.047l.047.047a2.288,2.288,0,0,0,.2.124c.016.016.031.031.031.047-.016.016-.031.031-.031.047.016.016.031.031.031.047l.047-.047.078.078.047.047-.047.047v.171c.016-.047.031-.078.047-.124a.192.192,0,0,1,.031-.047l.047.047h.078a.191.191,0,0,1,.031-.047l.047-.047c.016-.016.031-.031.031-.047l.047-.047.047-.047c.016.016.031.031.031.047l.047-.047-.047-.047.078-.078.047-.047c.078-.031.155-.047.233-.078.016.016.031.031.031.047h.155a.757.757,0,0,1-.109-.047l-.047-.047c.047-.047.047-.047-.109-.124-.016-.016-.031-.031-.031-.047.093-.047.186-.093.264-.124l.047.047a1.3,1.3,0,0,0,.062.186.453.453,0,0,1,.14.031c.016.016.031.031.031.047a.557.557,0,0,0-.031.171c.264-.171.14-.217.295-.372.016.016.031.031.031.047.031.047.047.109.078.155a.37.37,0,0,1,.14-.031,1.184,1.184,0,0,1-.14-.14c.016-.016.031-.031.031-.047.217-.078.217-.078.326-.248.016.016.031.031.031.047l.047-.047-.047-.047a.836.836,0,0,0,.109-.2c.031.14.047.295.093.465a1.02,1.02,0,0,0,.326-.6c.062.016.14.047.217.062-.062.031-.124.047-.186.078,0,.078,0,.078.155.124l-.047.047a.758.758,0,0,0-.109.047l-.047.047.047.047c.016-.016.031-.031.031-.047.326.016.326.016.264-.047.016-.016.031-.031.031-.047.14-.047.279-.078.434-.124l.047-.047c.016.016.031.031.031.047l.047.047c.016.016.031.031.031.047h.078l.047-.047a.755.755,0,0,0,.109-.047c.016-.016.031-.031.031-.047l.047-.047.047-.047a2.438,2.438,0,0,1,.357-.062.779.779,0,0,1,.031-.186l-.047-.047.047-.047a.365.365,0,0,0,.031-.124c.016-.016.031-.031.031-.047.047-.031.109-.047.155-.078l.047.047c.109.047.2.109.326.171.186-.186.171-.217.5-.217l.047.047.233.047c0-.078,0-.078-.186-.078-.016-.016-.031-.031-.031-.047L454.5,243c.016-.016.031-.031.031-.047l.047-.047c.016-.016.031-.031.031-.047l.047.047a.365.365,0,0,1,.031.124c.016-.047.031-.078.047-.124.016-.016.031-.031.031-.047.016-.062.031-.124.047-.171h.109c.016.016.031.031.031.047-.016.016-.031.031-.031.047.016.016.031.031.031.047a.192.192,0,0,1,.031-.047l.047.047c.171-.078.171-.078.279-.357l.047.047v.2c.047-.016.109-.031.155-.047.016-.016.031-.031.031-.047v-.078c-.016-.016-.031-.031-.031-.047l.078-.078c.031.062.078.14.109.2l.047.047.047-.047q-.047-.023-.047-.047a.875.875,0,0,1,.062-.186c.016.016.031.047.062.062l.047.047c.016-.016.031-.031.031-.047-.016-.016-.031-.031-.031-.047-.062-.047-.109-.078-.171-.124.031-.047.047-.078.078-.124.093,0,.093,0,.2.2a2.77,2.77,0,0,1-.031-.357.141.141,0,0,1,.109-.047c.016.016.031.031.031.047v.295c.078,0,.078,0,.078-.295l.047-.047a1.349,1.349,0,0,1,.186.217c-.016.016-.031.031-.031.047a.757.757,0,0,0-.109.047.755.755,0,0,1,.109.047c.016.016.031.031.031.047h.171c-.031-.016-.078-.031-.109-.047s-.047-.031-.047-.047l.047-.047a2.222,2.222,0,0,1,.171-.233c.078.047.171.109.248.155-.031-.372-.031-.372.047-.558.093.016.186.047.264.062.031-.047.047-.078.078-.124l.078.078-.047.047c-.016.016-.031.031-.031.047l-.047.047c-.016.016-.031.031-.031.047-.016.016-.031.031-.031.047h-.124c0,.078,0,.078.171.047.016-.016.031-.031.031-.047l.047-.047c.016-.016.031-.031.031-.047l.047-.047c.016-.016.031-.031.031-.047a.942.942,0,0,1,.109.155c.078,0,.078,0,.078-.155.078-.016.155-.031.248-.047l.047-.047-.047-.047c-.031.016-.031.031-.047.047-.016-.093-.031-.171-.047-.248h-.233c0-.078,0-.078.2-.14a1.006,1.006,0,0,1-.124-.14l.047-.047c.031-.016.078-.031.109-.047.14.357.14.357.2.357.016.016.031.031.031.047a.192.192,0,0,1,.031-.047c-.016-.016-.031-.031-.031-.047.016-.016.031-.031.031-.047l.186.047-.047.047a.37.37,0,0,0-.031.14l-.047.047.047.047c.016-.016.031-.031.031-.047h.155l.047.047h.078l.047-.047c.047.047.047.047.093-.171-.016-.016-.031-.031-.031-.047.047-.031.109-.047.155-.078.016-.016.031-.031.031-.047-.016-.016-.031-.031-.031-.047l-.047.047c-.093.031-.171.047-.248.078l.078.078.047.047a.491.491,0,0,0-.093.078l-.047.047c-.016-.016-.031-.031-.031-.047-.047-.031-.109-.047-.155-.078a.191.191,0,0,1,.031-.047c.016-.047.031-.078.047-.124.016-.016.031-.031.031-.047l.047-.2c.016-.016.031-.031.031-.047l.589.047-.047.047.047.047c.016-.016.031-.031.031-.047.047-.031.109-.047.155-.078a1.457,1.457,0,0,0-.186-.14.888.888,0,0,1,.062-.217l.047-.047h.326l.047.047a1.82,1.82,0,0,1,.078.171c.016-.279.016-.279-.047-.217-.016-.016-.031-.031-.031-.047-.047-.047-.047-.047.031-.155.078.047.155.078.233.124l.047.047c.109.016.2.031.326.047,0-.078,0-.078-.155-.078.016-.047.031-.109.047-.155.016.016.031.031.031.047l.233.047v.155c.078,0,.078,0,.078-.357l.047-.047.047.047c.016.016.031.031.031.047.016.016.031.031.031.047.047.016.109.031.171.047,0-.078,0-.078-.124-.078l-.047-.047c-.016-.016-.031-.031-.031-.047-.016-.016-.031-.031-.031-.047.031-.093.047-.171.078-.248l.047-.047-.047-.047c-.016.016-.031.031-.031.047-.047.047-.047.047-.109-.155.109.031.233.047.357.078a.822.822,0,0,0-.093.155.478.478,0,0,1,.14.016.641.641,0,0,1,.109-.171c.016.016.031.031.031.047l.078.078c.031-.047.047-.078.078-.124.078,0,.078,0,.109.248l.047.047-.047.047c-.14.047-.279.078-.419.124.186.124.186.124.341.124l.047.047c.016.016.031.031.031.047l.047.047-.047.047.047.047.047-.047v-.078l-.047-.047-.047-.047c-.016-.016-.031-.031-.031-.047a.365.365,0,0,0,.031-.124l.047.047.047-.047-.047-.047.047-.047v-.078q-.023-.047-.047-.047c.078-.047.155-.109.248-.155-.047-.031-.109-.047-.155-.078.016-.016.031-.031.031-.047a.757.757,0,0,0,.109-.047h-.155q-.047.023-.047.047l-.186-.047c.016-.016.031-.031.031-.047l.047-.047c.016-.016.031-.031.031-.047.047-.016.078-.031.124-.047.016-.016.031-.031.031-.047a.775.775,0,0,0,.109-.124l.078.078-.047.047.047.047.047-.047c.016.016.031.031.031.047.109.047.233.078.341.124l.047.047.047.047c.016.016.031.031.031.047h.155a.757.757,0,0,1-.109-.047l-.047-.047c-.016-.016-.031-.031-.031-.047l-.047-.047.047-.047c.047-.14.109-.279.155-.4l-.047-.047.047-.047c.047.031.109.047.155.078l.047.047c.016.016.031.031.031.047l.047.047c-.047.124-.047.124.031.217l.047.047-.047.047.047.047c.016-.016.031-.031.031-.047l.047-.047c.016-.016.031-.031.031-.047-.016-.016-.031-.031-.031-.047l-.047.047c-.016-.016-.031-.031-.031-.047a2.3,2.3,0,0,1,.2-.124c.016.016.031.031.031.047.016.047.031.078.047.124.016.016.031.031.031.047l.047.047c.016.016.031.031.031.047l.047-.047-.047-.047c-.016-.016-.031-.031-.031-.047l-.047-.047a.365.365,0,0,1-.031-.124q-.023-.047-.047-.047c-.031-.047-.031-.047-.279-.047-.016-.016-.031-.031-.031-.047l-.047-.047c-.016-.016-.031-.031-.031-.047.047-.031.109-.047.155-.078l-.186-.124c-.016-.016-.031-.031-.031-.047.093-.016.186-.031.264-.047l.047.047v.2c.186.047.186.047.248-.047l.047-.047a.551.551,0,0,0,.031-.155h.109c.016.016.031.031.031.047h.078c.016-.016.031-.031.031-.047h.078c.016.016.031.031.031.047l.047-.047q-.047-.023-.047-.047l.047-.047c.093-.047.186-.078.264-.124q.023-.047.047-.047c.016.016.031.031.031.047.047.171.062.155.078.14m-5.382,0h-.078v.093h.078Zm5.894.171h.078V238.7H464.3Zm-5.646-.078h-.078v.078h.078Zm-1.5,0h-.078v.078h.078Zm6.747.047-.047.047c-.031.016-.078.031-.109.047.031.016.078.031.109.047l.047.047.047-.047-.047-.047.047-.047c-.016-.031-.031-.031-.047-.047m-5.941.031h-.078v.078h.078Zm-1.334.078h-.078v.078h.078Zm6.887.171h.078v-.155h-.078Zm-5.1-.248h-.078v.233h.078Zm-.14.155h-.078v.078h.078Zm-1.97,0h-.078v.078h.078Zm6.747.171h.078v-.078h-.078Zm-6.421-.078h-.078v.078h.078Zm6.778.078q-.047-.023-.047-.047h-.078l-.047.047v.155c.016-.047.031-.078.047-.124.016-.016.031-.031.031-.047.016.016.031.031.031.047a.08.08,0,0,1,.062-.031m-6.437.078c.031-.016.078-.031.109-.047h-.155c-.016.016-.031.031-.031.047.016.016.031.031.031.047.016-.031.031-.031.047-.047m-.233,0-.047-.047c-.016.016-.031.031-.031.047.016.016.031.031.031.047l.047-.047m6.235.078h.155v-.078h-.155Zm-6.9-.078h-.078v.078h.078Zm-.465,0h-.078v.078h.078Zm-.558,0h-.078v.078h.078Zm8.314.171h.093v-.093h-.093Zm-6.9-.171H456.3v.171h.155Zm-.62.078h-.171v.093h.171Zm.869.171h.078v-.078H456.7Zm-.078-.078h-.078v.078h.078Zm6.576.155h.078v-.078H463.2Zm-8.034,0c-.016-.016-.031-.031-.031-.047-.031.016-.031.031-.047.047l.047.047c.016-.016.031-.031.031-.047m7.088-.047c-.031.047-.047.078-.078.124a.768.768,0,0,1,.2-.062.464.464,0,0,0-.124-.062m-5.63.047h-.078v.078h.078Zm-1.256-.078h-.078v.155h.078Zm-.481,0h-.078v.155h.078Zm1.567.155h-.078v.078h.078Zm-.388.078c.062-.031.124-.047.186-.078l-.186-.233Zm-1.877-.078h-.078v.078h.078Zm8.453.155h.093v-.078h-.093Zm-8.841-.109c-.031.047-.047.078-.078.124h.155a.865.865,0,0,0-.078-.124m8.531.264h.078v-.078h-.078Zm-.62,0h.078v-.155h-.078Zm.853.093h.078V239.9h-.078Zm-10.718-.093h-.078v.078h.078Zm10.1.171a.6.6,0,0,1,.093-.171c-.047.016-.109.031-.155.047a.191.191,0,0,0,.062.124m-.279,0,.047.047-.047.047h-.078l-.047-.047-.047-.047a.191.191,0,0,0-.031-.047l-.047.047.047.047c.016.016.031.031.031.047l.047.047h.155c.016-.016.031-.031.031-.047v-.078a.192.192,0,0,0-.031-.047l-.031.031m-1.055.171h.093v-.078h-.093Zm-8.763,0h.078v-.078h-.078Zm-.078-.078h-.078v.078h.078Zm10.1.155h.078v-.078h-.078Zm-.465,0h.078v-.078H461.4Zm-10.733-.078h-.078v.078h.078Zm.62.078h-.078v.078h.078Zm-1.008,0h-.093v.078h.093Zm-.326.155h-.078v.078h.078Zm11.044.155h.078v-.078H461Zm-.512,0a.558.558,0,0,0-.031.171c.078,0,.078,0,.078-.124l.047-.047-.047-.047-.047.047m-10.252,0,.047.047h.078l.047-.047-.047-.047c-.016.016-.031.031-.031.047l-.047-.047q-.047.023-.047.047m10.609,0h-.078v.078h.078Zm-10.733-.078h-.078v.155h.078Zm-.233.078H449.8v.078h.078Zm-.155,0h-.155v.078h.155Zm-.31,0h-.078v.078h.078Zm10.733.171h.155V240.7h-.155Zm-12.377-.093h-.078v.093h.078Zm13.075.171h.078v-.078h-.078Zm-.776-.171c-.078,0-.078,0-.031.171.016.016.031.031.031.047l.047-.047-.047-.047Zm-.62.093h-.078v.078h.078Zm-10.749,0h-.078v.078h.078Zm-.31.078h-.248v.078h.248Zm-.62.078h.078v-.078h-.078Zm-.078-.078h-.078v.078h.078Zm12.641.078c.016.016.031.031.031.047-.016.016-.031.031-.031.047.016.016.031.031.031.047l.047-.047v-.078l-.047-.047a.033.033,0,0,1-.031.031m.434.078h.078v-.078h-.078Zm-1.179-.078h-.078v.078h.078Zm-12.052,0h-.093v.078h.093Zm-1.1,0h-.078v.078h.078Zm13.355.078.047.047c.016-.016.031-.031.031-.047v-.155c-.016-.016-.031-.031-.031-.047.016-.016.031-.031.031-.047a.192.192,0,0,0-.031-.047l-.047.047-.047.047c-.016.016-.031.031-.031.047.016.016.031.031.031.047l.047-.047.047.047V241c-.031.016-.031.031-.047.031m.357.093h.078v-.078h-.078Zm-.155,0h.078v-.078h-.078Zm-.62,0h.078v-.078h-.078Zm-13.789-.093H445.5v.078h.078Zm.419.171-.047-.047c-.016.016-.031.031-.031.047.016.016.031.031.031.047q.023-.047.047-.047m13.587.078h.155V241.2h-.155Zm-.14,0h.078V241.2h-.078Zm-.155,0h.078V241.2h-.078Zm-.14-.078v.155c.016.016.031.031.031.047l.047-.047q-.047-.023-.047-.047Zm.745.233h.093v-.078H459.9Zm-.45,0h.078v-.078h-.078Zm-.636,0h.078v-.078h-.078Zm.636.171h.078v-.078h-.078Zm-13.711-.078h-.078v.078h.078Zm14.084.155h.078V241.6h-.078Zm-.9,0,.047.047c.016-.016.031-.031.031-.047-.016-.016-.031-.031-.031-.047l-.047.047m-14.223,0h-.078v.078h.078Zm14.115.155h.078v-.078h-.078Zm-.9,0c.016.016.031.031.031.047l.047-.047c.031-.016.078-.031.109-.047h-.155c0,.031-.016.031-.031.047m.574.078h.093v-.078h-.093Zm-.295.078h.078v-.078h-.078Zm-12.688-.078h-.093v.078h.093Zm-.4,0h-.078v.078h.078Zm12.3.171h.155V242H457.4Zm-12.7-.093h-.078v.078h.078Zm13.091.171h.093V242h-.093Zm-.714,0h.171v-.078h-.171Zm-11.9.171H445.1v.078h.078Zm11.6.155h.078v-.078h-.078Zm-.481.078h.078v-.078H456.3Zm-11.2,0h.078v-.078H445.1Zm10.966.078h.078v-.078h-.078Zm-11.4.155c.016.016.031.031.031.047l.047-.047c-.031-.016-.031-.031-.047-.047,0,.031-.016.031-.031.047m10.935.078h.078V242.8H455.6Zm-10.5.062a.192.192,0,0,1,.031-.047c-.016-.016-.031-.031-.031-.047v-.2a1.466,1.466,0,0,0-.14.047c.031.047.062.124.109.186,0,.016.016.031.031.062m9.865.155c-.016.016-.031.031-.031.047.016.016.031.031.031.047.016-.016.031-.031.031-.047h.124c.016-.093.016-.093-.155-.047m-9.942.031h.078v-.078h-.078Zm-.62,0h.078v-.078H444.4Zm.14.248h.078v-.078h-.078Zm9.182,0h-.171v.078h.171Zm.776.155h.078v-.078H454.5Zm-.31.093h.078v-.093h-.078Zm-.264-.155a.591.591,0,0,0-.047.155h.233c0-.093,0-.093-.186-.155m-8.9.062h-.078v.093h.078Zm8.531.171h.078v-.171h-.078Zm.171.078h.078V243.7h-.078Zm-.171.078h.078v-.078h-.078Zm-8.608,0h-.155v.078h.155Zm.078.155h-.078v.078h.078Zm7.755.171h.078v-.093h-.078Zm-.31,0h.078v-.093h-.078Zm-.248.078h.171v-.078h-.171Zm-6.561-.248v.326c.078,0,.078,0,.124-.279a1.067,1.067,0,0,1-.124-.047m-.2.419.047.047c.016-.016.031-.031.031-.047-.016-.016-.031-.031-.031-.047-.062-.016-.062-.016-.047.047m-.465.078.047.047c.016-.016.031-.031.031-.047a.76.76,0,0,0,.109-.047h-.155c-.016.016-.031.031-.031.047m6.22.233h.078v-.078h-.078Zm-5.878-.078h-.078v.078h.078Zm5.289.078c-.016.016-.031.031-.031.047-.016.016-.031.031-.031.047.016.016.031.031.031.047.016-.016.031-.031.031-.047l.047-.047.047-.047-.047-.047-.047.047m.264.078h.093v-.078h-.093Zm-.931,0h.078v-.078h-.078Zm-3.831,0h.078v-.078h-.078Zm2.342,0h-.078v.078h.078Zm-2.513.078h.078v-.078h-.078Zm-.295-.155c.047.14.047.14.109.078l.047.047c.016-.016.031-.031.031-.047-.016-.016-.031-.031-.031-.047a.459.459,0,0,1-.155-.031m-.326.155h.171v-.078h-.171Zm4.467.078h.078v-.078H449.8Zm-3.676,0h.078v-.078h-.078Zm3.443.093h.078v-.093h-.078Zm-.543,0h.078v-.093h-.078Zm-.636,0h.078v-.093h-.078Zm-2.73,0h.078v-.093h-.078Zm1.086-.093h-.078v.171h.078Zm1.132.171c-.016-.016-.031-.031-.031-.047v-.14c-.078,0-.078,0-.047.171l.047.047c.016,0,.016-.016.031-.031m-.822,0h-.078v.078h.078Zm-.931.078h.078v-.078h-.078Zm1.179-.171v.2a1.228,1.228,0,0,0,.14.062l.047-.233c.016.016.031.031.031.047.016.047.031.078.047.124v-.155l-.047-.047a.511.511,0,0,0-.217,0m-.465.171h-.093v.078h.093Zm1.6.093c.016.016.031.031.031.047l.047-.047c.031-.016.078-.031.109-.047h-.155Zm-.326,0,.047.047.047-.047c-.031-.016-.031-.031-.047-.047Zm.667.078h.078v-.078h-.078Zm-.931,0h.078v-.078h-.078Zm-.791,0h.078v-.078h-.078Zm-.543,0h.078v-.078h-.078Zm.264.155.047.047.047-.047-.047-.047-.047.047" transform="translate(-358.489)" fill="#e71623"/>
    </g>
  </g>
</svg>
