<svg xmlns="http://www.w3.org/2000/svg" width="19.223" height="22.888" viewBox="0 0 19.223 22.888">
  <g id="reading-book" transform="translate(-40.994)">
    <path id="Path_1" data-name="Path 1" d="M60.217,14.752a2.239,2.239,0,0,0-1.788-2.19V10.148a.671.671,0,0,0-.906-.628l-1.28.48a7.818,7.818,0,0,0-2.981-1.936,4.47,4.47,0,1,0-5.312,0A7.818,7.818,0,0,0,44.968,10l-1.28-.48a.671.671,0,0,0-.906.628v2.414a2.235,2.235,0,0,0,0,4.38v2.593a.671.671,0,0,0,.435.628l7.153,2.682a.678.678,0,0,0,.471,0l7.153-2.682a.671.671,0,0,0,.435-.628V16.942A2.239,2.239,0,0,0,60.217,14.752ZM47.476,4.47A3.129,3.129,0,1,1,50.605,7.6,3.133,3.133,0,0,1,47.476,4.47Zm3.129,4.47a6.472,6.472,0,0,1,4.242,1.582l-4.242,1.591-4.242-1.591A6.472,6.472,0,0,1,50.605,8.941Zm-8.27,5.811a.9.9,0,0,1,.894-.894h.447v1.788h-.447A.9.9,0,0,1,42.335,14.752Zm1.788,2.213a1.12,1.12,0,0,0,.894-1.1V13.635a1.12,1.12,0,0,0-.894-1.1V11.115l5.811,2.179V21.25l-5.811-2.179Zm7.153,4.285V13.295l5.811-2.179V12.54a1.12,1.12,0,0,0-.894,1.1V15.87a1.12,1.12,0,0,0,.894,1.1v2.106Zm6.706-5.6h-.447V13.858h.447a.894.894,0,0,1,0,1.788Z" fill="#036"/>
  </g>
</svg>
