<svg xmlns="http://www.w3.org/2000/svg" width="62.131" height="61.591" viewBox="0 0 62.131 61.591"><defs><style>.a{fill:rgba(244,163,76,0.93);}</style></defs><g transform="translate(-0.869 -1)"><path class="a" d="M23,20V18a8.009,8.009,0,0,0-8,8h2A6.006,6.006,0,0,1,23,20Z"/><path class="a" d="M60,1H36a3,3,0,0,0-3,3V6.49a5.93,5.93,0,0,0-4.877.388A5.988,5.988,0,0,0,22.95,4a5.922,5.922,0,0,0-5.074,2.879,5.916,5.916,0,0,0-5.832.043l-.088.051A5.923,5.923,0,0,0,9,12a5.923,5.923,0,0,0-5.029,2.954l-.051.088a5.923,5.923,0,0,0-.043,5.832A5.922,5.922,0,0,0,1,25.949v.1a5.922,5.922,0,0,0,2.879,5.074,5.921,5.921,0,0,0,.043,5.832l.051.088A5.925,5.925,0,0,0,9,40a5.975,5.975,0,0,0,.316,1.777L.869,55.563l9.4-2.351,2.345,9.378,8.841-14.8A6.187,6.187,0,0,0,23.05,48a5.917,5.917,0,0,0,1.5-.195l8.835,14.786,2.345-9.378,9.4,2.351L36.682,41.776A5.943,5.943,0,0,0,37,40a5.92,5.92,0,0,0,5.029-2.954l.051-.088a5.918,5.918,0,0,0,.043-5.832A5.937,5.937,0,0,0,44.908,27H60a3,3,0,0,0,3-3V4a3,3,0,0,0-3-3ZM49,5V7H47V5H45V7H43V3H53V7H51V5ZM33,19.381A12.005,12.005,0,1,0,34.959,26.8,2.981,2.981,0,0,0,36,27h.949A14.008,14.008,0,1,1,33,16.223ZM33,26A10,10,0,1,1,23,16,10.011,10.011,0,0,1,33,26ZM13.383,57.409l-1.655-6.622-6.6,1.649,5.316-8.675a5.866,5.866,0,0,0,1.51,1.266l.088.051a5.928,5.928,0,0,0,5.833.043,5.884,5.884,0,0,0,1.754,1.833Zm27.486-4.972-6.6-1.649L32.617,57.41,26.373,46.962a5.945,5.945,0,0,0,1.751-1.84,5.926,5.926,0,0,0,5.832-.043l.088-.051a5.866,5.866,0,0,0,1.51-1.266ZM40.3,29.773l-1.426.48.995,1.129a3.938,3.938,0,0,1,.475,4.573l-.051.088a3.93,3.93,0,0,1-4.2,1.875l-1.475-.3.3,1.475a3.938,3.938,0,0,1-1.875,4.2l-.088.051a3.939,3.939,0,0,1-4.573-.475l-1.129-.995-.48,1.426a3.988,3.988,0,0,1-7.548,0l-.48-1.426-1.129.995a3.934,3.934,0,0,1-4.573.475l-.088-.051a3.938,3.938,0,0,1-1.875-4.2l.3-1.475-1.475.3a3.933,3.933,0,0,1-4.2-1.875l-.051-.088a3.936,3.936,0,0,1,.475-4.573l.995-1.129L5.7,29.774A3.938,3.938,0,0,1,3,26.05v-.1a3.936,3.936,0,0,1,2.7-3.723l1.426-.48-.995-1.129a3.939,3.939,0,0,1-.475-4.573l.051-.088a3.937,3.937,0,0,1,4.2-1.875l1.475.3-.3-1.475a3.935,3.935,0,0,1,1.875-4.2l.088-.051a3.934,3.934,0,0,1,4.573.475l1.129.995.48-1.426a3.988,3.988,0,0,1,7.548,0l.48,1.426,1.129-.995a3.941,3.941,0,0,1,4.573-.475L33,8.68v4.859A15.991,15.991,0,1,0,38.949,27H42.87A3.939,3.939,0,0,1,40.3,29.773ZM61,24a1,1,0,0,1-1,1H36a1,1,0,0,1-1-1V4a1,1,0,0,1,1-1h5V9H55V3h5a1,1,0,0,1,1,1Z"/><path class="a" d="M53,21h2v2H53Z"/><path class="a" d="M57,21h2v2H57Z"/><path class="a" d="M49,21h2v2H49Z"/><path class="a" d="M49,17H59v2H49Z"/><path class="a" d="M21,30.586l-2.293-2.293-1.414,1.414L21,33.414l9.707-9.707-1.414-1.414Z"/></g></svg>