<svg xmlns="http://www.w3.org/2000/svg" width="46.459" height="46.441" viewBox="0 0 46.459 46.441"><defs><style>.a{fill:rgba(244,163,76,0.93);}</style></defs><g transform="translate(-131.949 -199.867)"><path class="a" d="M138.778,206.641a23.22,23.22,0,0,0,16.357,39.667h.036a23.22,23.22,0,0,0,.034-46.441h-.034A23.078,23.078,0,0,0,138.778,206.641Zm35.265,14.336h-4.1V225.2h4.1a18.965,18.965,0,0,1-16.763,16.763v-4.1h-4.221v4.1A18.962,18.962,0,0,1,136.3,225.2h4.095v-4.222h-4.1a18.966,18.966,0,0,1,16.763-16.763v4.1h4.221v-4.1A18.962,18.962,0,0,1,174.043,220.976Zm0,0" transform="translate(0)"/><path class="a" d="M243.811,264.445H239.59v11.429l6.951,6.951,2.985-2.985-5.714-5.714Zm0,0" transform="translate(-86.529 -51.913)"/></g></svg>