<svg xmlns="http://www.w3.org/2000/svg" xmlns:xlink="http://www.w3.org/1999/xlink" width="220" height="98" viewBox="0 0 220 98">
  <defs>
    <linearGradient id="linear-gradient" y1="0.5" x2="0.991" y2="0.5" gradientUnits="objectBoundingBox">
      <stop offset="0" stop-color="#fff"/>
      <stop offset="1" stop-color="#c7eaff"/>
    </linearGradient>
    <clipPath id="clip-path">
      <path id="Path_38527" data-name="Path 38527" d="M6,0H214a6,6,0,0,1,6,6V92a6,6,0,0,1-6,6H6a6,6,0,0,1-6-6V6A6,6,0,0,1,6,0Z" transform="translate(8140 -1274)" fill="url(#linear-gradient)"/>
    </clipPath>
  </defs>
  <g id="header-logo" transform="translate(-8140 1274)" clip-path="url(#clip-path)">
    <g id="Group_24304" data-name="Group 24304" transform="translate(8154.26 -1264.265)">
      <g id="PrepBytes_Nasscom_Certificate_Futureskills-svg" data-name="PrepBytes+Nasscom Certificate_Futureskills-svg" transform="translate(0 -5.777)">
        <g id="Group_24299" data-name="Group 24299">
          <g id="Group_24295" data-name="Group 24295" transform="translate(188.68 16.95)">
            <path id="Path_38520" data-name="Path 38520" d="M650.58,175.19a3.33,3.33,0,1,1,3.33-3.33A3.333,3.333,0,0,1,650.58,175.19Zm0-6.047a2.717,2.717,0,1,0,2.717,2.717A2.721,2.721,0,0,0,650.58,169.143Z" transform="translate(-647.25 -168.53)" fill="#0281cb"/>
            <path id="Path_38521" data-name="Path 38521" d="M653.34,172.2h1.278c.79,0,1.4.278,1.4,1.126s-.606,1.187-1.4,1.187h-.606V176h-.671V172.2Zm1.209,1.771c.519,0,.8-.216.8-.646s-.282-.588-.8-.588h-.537v1.234Zm-.058.357.487-.4,1.184,2.064H655.4l-.917-1.663Z" transform="translate(-651.143 -170.876)" fill="#0281cb"/>
          </g>
          <g id="Group_24298" data-name="Group 24298">
            <rect id="Rectangle_16266" data-name="Rectangle 16266" width="50.369" height="1.003" transform="translate(3.452 64.772)" fill="#fa4238"/>
            <g id="Group_24292" data-name="Group 24292" transform="translate(62.506 56.835)">
              <path id="Path_38464" data-name="Path 38464" d="M297.53,279.426h2.724l.253,1.512h.094a6.849,6.849,0,0,1,4.272-1.858c3.543,0,5.578,2.84,5.578,7.216,0,4.849-2.9,7.656-6.05,7.656a5.663,5.663,0,0,1-3.648-1.559l.1,2.356v4.466H297.53Zm9.5,6.905c0-2.829-.924-4.5-3.081-4.5a4.488,4.488,0,0,0-3.1,1.595v6.6A4.419,4.419,0,0,0,303.7,291.2C305.59,291.2,307.033,289.539,307.033,286.332Z" transform="translate(-297.53 -279.08)" fill="#fa4238"/>
              <path id="Path_38465" data-name="Path 38465" d="M380.17,279.426h2.724l.253,2.529h.094a4.839,4.839,0,0,1,4.03-2.875,3.642,3.642,0,0,1,1.606.289l-.577,2.886a4.855,4.855,0,0,0-1.454-.231c-1.133,0-2.493.772-3.348,2.933v8.648H380.17V279.426Z" transform="translate(-350.355 -279.08)" fill="#fa4238"/>
              <path id="Path_38466" data-name="Path 38466" d="M447.53,280.04h3.326v14.179H447.53Z" transform="translate(-393.412 -279.694)" fill="#fa4238"/>
              <path id="Path_38467" data-name="Path 38467" d="M506,279.426h2.724l.253,1.934h.094a6.106,6.106,0,0,1,4.351-2.28,3.823,3.823,0,0,1,3.914,2.54c1.357-1.443,2.76-2.54,4.56-2.54,2.991,0,4.376,2.057,4.376,5.636v8.89H522.95v-8.464c0-2.331-.693-3.211-2.183-3.211-.9,0-1.869.577-2.966,1.768v9.907h-3.327v-8.464c0-2.331-.693-3.211-2.182-3.211a4.416,4.416,0,0,0-2.966,1.768v9.907H506V279.426Z" transform="translate(-430.787 -279.08)" fill="#fa4238"/>
              <path id="Path_38468" data-name="Path 38468" d="M608.37,286.527c0-4.607,3.2-7.447,6.534-7.447,3.831,0,5.852,2.771,5.852,6.732a8.576,8.576,0,0,1-.144,1.616h-9a4.031,4.031,0,0,0,4.178,3.947,6.055,6.055,0,0,0,3.29-1.028l1.133,2.067a8.79,8.79,0,0,1-4.86,1.537C611.44,293.952,608.37,291.2,608.37,286.527Zm9.514-1.364c0-2.183-.971-3.511-2.908-3.511-1.652,0-3.106,1.234-3.4,3.511Z" transform="translate(-496.223 -279.08)" fill="#fa4238"/>
            </g>
            <g id="Group_24294" data-name="Group 24294" transform="translate(0 17.119)">
              <path id="Path_38508" data-name="Path 38508" d="M124.284,179.109l3.132-.227h8.926v3.987H124.28v-3.759Zm2.872-2.435c0-4.43,2.035-7.674,7.082-7.674a10.874,10.874,0,0,1,3.915.747l-.956,3.741a5.954,5.954,0,0,0-2.313-.505c-1.775,0-2.713,1.122-2.713,3.6v23.668h-5.011V176.67Z" transform="translate(-124.28 -169)" fill="#0a2d74"/>
              <path id="Path_38509" data-name="Path 38509" d="M162.01,209.79v-13.4h5.011v12.757c0,3.514,1.01,4.838,3.323,4.838,1.88,0,3.114-.87,4.733-2.958V196.394h5.011v21.369h-4.106l-.382-3.15h-.141c-1.88,2.226-3.951,3.673-6.873,3.673-4.578,0-6.577-3.1-6.577-8.493Z" transform="translate(-148.398 -186.508)" fill="#0a2d74"/>
              <path id="Path_38510" data-name="Path 38510" d="M220.975,200.218V190.037H217.93v-3.759l3.3-.227.592-5.83h4.16v5.83h5.448v3.987h-5.448v10.171c0,2.515.974,3.749,3.027,3.749a6.719,6.719,0,0,0,2.226-.487l.851,3.691a13.88,13.88,0,0,1-4.369.783c-4.925,0-6.75-3.114-6.75-7.728Z" transform="translate(-184.142 -176.172)" fill="#0a2d74"/>
              <path id="Path_38511" data-name="Path 38511" d="M261.73,209.79v-13.4h5.011v12.757c0,3.514,1.01,4.838,3.323,4.838,1.88,0,3.114-.87,4.733-2.958V196.394h5.012v21.369H275.7l-.383-3.15h-.141c-1.88,2.226-3.951,3.673-6.873,3.673-4.578,0-6.577-3.1-6.577-8.493Z" transform="translate(-212.14 -186.508)" fill="#0a2d74"/>
              <path id="Path_38512" data-name="Path 38512" d="M324.013,195.463h4.106l.382,3.81h.141c1.522-2.785,3.785-4.333,6.072-4.333a5.433,5.433,0,0,1,2.417.437l-.87,4.351a7.223,7.223,0,0,0-2.194-.35c-1.707,0-3.759,1.165-5.047,4.42v13.035H324.01V195.463Z" transform="translate(-251.95 -185.581)" fill="#0a2d74"/>
              <path id="Path_38513" data-name="Path 38513" d="M358.46,206.164c0-6.942,4.82-11.224,9.849-11.224,5.776,0,8.821,4.178,8.821,10.145a13.1,13.1,0,0,1-.216,2.435H363.349c.419,3.792,2.854,5.953,6.3,5.953a9.125,9.125,0,0,0,4.961-1.548l1.706,3.114a13.258,13.258,0,0,1-7.328,2.313C363.089,217.352,358.46,213.21,358.46,206.164Zm14.338-2.053c0-3.29-1.461-5.289-4.384-5.289-2.489,0-4.679,1.862-5.116,5.289h9.5Z" transform="translate(-273.971 -185.581)" fill="#0a2d74"/>
              <path id="Path_38514" data-name="Path 38514" d="M412.18,214.379l2.331-3.186a9.436,9.436,0,0,0,5.9,2.385c2.331,0,3.427-1.1,3.427-2.558,0-1.793-2.312-2.594-4.593-3.464-2.8-1.053-6-2.663-6-6.231s2.995-6.386,7.779-6.386a11.506,11.506,0,0,1,7.1,2.558l-2.3,3.081a7.98,7.98,0,0,0-4.679-1.862c-2.15,0-3.168,1.028-3.168,2.367,0,1.689,2.157,2.331,4.474,3.186,2.89,1.079,6.126,2.471,6.126,6.454,0,3.673-2.9,6.631-8.3,6.631A13.353,13.353,0,0,1,412.18,214.379Z" transform="translate(-308.31 -185.581)" fill="#0281cb"/>
              <path id="Path_38515" data-name="Path 38515" d="M464.61,170.44h4.907v19.194h.141l7.919-9.831h5.48l-7.328,8.7,8.074,12.667h-5.448l-5.5-9.276-3.341,3.846v5.43H464.61Z" transform="translate(-341.824 -169.92)" fill="#0281cb"/>
              <path id="Path_38516" data-name="Path 38516" d="M520.54,173.136a3.112,3.112,0,1,1,3.1,2.836A2.863,2.863,0,0,1,520.54,173.136Zm.574,6.577h5.012v21.369h-5.012Z" transform="translate(-377.575 -169.831)" fill="#0281cb"/>
              <path id="Path_38517" data-name="Path 38517" d="M548.3,195.673V170.44h5.011v25.493c0,1.234.556,1.671,1.079,1.671a2.937,2.937,0,0,0,.783-.087l.628,3.741a6.978,6.978,0,0,1-2.645.437C549.606,201.695,548.3,199.4,548.3,195.673Z" transform="translate(-395.319 -169.92)" fill="#0281cb"/>
              <path id="Path_38518" data-name="Path 38518" d="M575.55,195.673V170.44h5.011v25.493c0,1.234.556,1.671,1.079,1.671a2.937,2.937,0,0,0,.783-.087l.628,3.741a6.98,6.98,0,0,1-2.645.437C576.856,201.695,575.55,199.4,575.55,195.673Z" transform="translate(-412.738 -169.92)" fill="#0281cb"/>
              <path id="Path_38519" data-name="Path 38519" d="M596.91,214.379l2.331-3.186a9.436,9.436,0,0,0,5.9,2.385c2.331,0,3.427-1.1,3.427-2.558,0-1.793-2.313-2.594-4.593-3.464-2.8-1.053-6-2.663-6-6.231s2.994-6.386,7.778-6.386a11.506,11.506,0,0,1,7.1,2.558l-2.3,3.081a7.981,7.981,0,0,0-4.679-1.862c-2.151,0-3.168,1.028-3.168,2.367,0,1.689,2.158,2.331,4.474,3.186,2.89,1.079,6.126,2.471,6.126,6.454,0,3.673-2.9,6.631-8.3,6.631A13.355,13.355,0,0,1,596.91,214.379Z" transform="translate(-426.392 -185.581)" fill="#0281cb"/>
            </g>
            <g id="Group_24296" data-name="Group 24296" transform="translate(2.864)">
              <path id="Path_38522" data-name="Path 38522" d="M156.45,161.685a.7.7,0,0,1-.011.087c0,.025-.011.05-.014.076s-.014.047-.022.072-.018.047-.025.069a.437.437,0,0,1-.029.058.21.21,0,0,1-.022.04c0,.007,0,.011-.011.014a.147.147,0,0,1-.025.04c-.011.018-.025.036-.036.054a.618.618,0,0,1-.043.051.469.469,0,0,1-.058.061l-.076.076-5.585,5.585a.673.673,0,0,1-.094.083V165.2l3.6-3.6-3.6-3.6V155.14a1.015,1.015,0,0,1,.094.083l5.585,5.585.076.076c.018.022.04.043.058.061s.029.036.043.05.025.036.036.054a.374.374,0,0,0,.025.04c0,.007.007.011.011.018a.138.138,0,0,1,.022.04c.011.014.018.036.029.054s.018.047.025.069a.426.426,0,0,1,.022.072.493.493,0,0,1,.014.072.7.7,0,0,1,.011.087,1.651,1.651,0,0,1,0,.188h0Z" transform="translate(-143.841 -143.021)" fill="#ffc525"/>
              <path id="Path_38523" data-name="Path 38523" d="M180.6,145.716a.4.4,0,0,1-.011.065c0,.022-.007.04-.011.061s-.011.04-.018.058l-.022.054a.082.082,0,0,1-.022.043c0,.011-.011.022-.014.032s0,.007-.007.011l-.022.032a.3.3,0,0,0-.029.043.2.2,0,0,1-.036.04c-.014.018-.029.036-.043.05l-.061.061-4.467,4.467c-.025.025-.05.047-.076.069v-2.284l2.883-2.883-2.883-2.883V140.47l.076.065,4.467,4.47.061.061a.406.406,0,0,1,.043.051.369.369,0,0,0,.036.043.3.3,0,0,1,.029.043l.022.032a.028.028,0,0,0,.007.014.129.129,0,0,1,.014.032l.022.043.022.054a.272.272,0,0,1,.018.058.444.444,0,0,0,.011.061.537.537,0,0,0,.011.069,1.079,1.079,0,0,1,0,.152h0Z" transform="translate(-160.051 -133.644)" fill="#ff5457"/>
              <path id="Path_38524" data-name="Path 38524" d="M159.711,126.273a.354.354,0,0,1-.007.061.286.286,0,0,0-.011.054.2.2,0,0,1-.014.05.414.414,0,0,1-.018.051c-.007.014-.011.029-.018.04a.111.111,0,0,1-.014.029s0,.007-.007.011a.2.2,0,0,1-.018.029.4.4,0,0,1-.029.04c-.011.011-.018.025-.029.036a.46.46,0,0,1-.04.043l-.054.054-4.023,4.023c-.022.022-.043.04-.068.061v-2.06l2.594-2.594-2.594-2.594V121.55a.565.565,0,0,1,.068.061l4.023,4.023.054.054a.359.359,0,0,1,.04.047.267.267,0,0,1,.029.036l.029.04.018.029s0,.007.007.011a.112.112,0,0,1,.014.029.4.4,0,0,0,.018.04.41.41,0,0,1,.018.051.26.26,0,0,1,.014.05l.011.054c0,.022.007.04.007.061a.84.84,0,0,1,0,.133h0Z" transform="translate(-147.011 -121.55)" fill="#0281cb"/>
              <path id="Path_38525" data-name="Path 38525" d="M135.918,140.7a.283.283,0,0,1-.007.054.286.286,0,0,1-.011.047.2.2,0,0,1-.014.043.135.135,0,0,1-.018.04.363.363,0,0,0-.014.036c0,.011-.007.014-.011.022a.013.013,0,0,1-.007.011.09.09,0,0,1-.014.025.329.329,0,0,0-.022.036.212.212,0,0,1-.025.029.365.365,0,0,1-.036.04l-.047.047-3.413,3.413a.381.381,0,0,1-.058.05v-1.746l2.2-2.2-2.2-2.2V136.7a.377.377,0,0,1,.058.051l3.413,3.413.047.047.036.036a.206.206,0,0,1,.025.032l.022.032a.213.213,0,0,1,.014.025.008.008,0,0,0,.007.007.075.075,0,0,1,.011.025.107.107,0,0,1,.014.036c.007.015.011.029.018.043a.2.2,0,0,0,.014.043c0,.014.007.029.011.047a.274.274,0,0,0,.007.054v.112h0Z" transform="translate(-132.22 -131.234)" fill="#34a854"/>
            </g>
          </g>
        </g>
      </g>
      <g id="Group_24303" data-name="Group 24303" transform="translate(1.325 75.945)">
        <g id="Group_24302" data-name="Group 24302" transform="translate(0 0)">
          <path id="Path_38469" data-name="Path 38469" d="M126.9,355.56h.883l2.079,6.15h-.829l-1.074-3.433c-.22-.688-.418-1.362-.616-2.072h-.036c-.191.713-.389,1.384-.609,2.072l-1.084,3.433h-.8l2.079-6.15Zm-.987,3.649h2.832v.623h-2.832Z" transform="translate(-124.82 -354.94)" fill="#0a2d74"/>
          <path id="Path_38470" data-name="Path 38470" d="M147.98,355.68h1.506l.991,2.713c.123.36.231.753.353,1.128h.036c.122-.375.227-.767.349-1.128l.958-2.713h1.506v6.106h-1.257v-2.241c0-.595.112-1.484.177-2.075h-.036l-.5,1.445-.865,2.338h-.767l-.865-2.338-.486-1.445h-.036c.065.591.177,1.48.177,2.075v2.241H147.98Z" transform="translate(-139.636 -355.017)" fill="#0a2d74"/>
          <path id="Path_38471" data-name="Path 38471" d="M167.7,361.849a2.287,2.287,0,0,1,2.19-2.439,1.961,1.961,0,0,1,1.978,2.23,3.209,3.209,0,0,1-.058.609h-2.781a1.121,1.121,0,0,0,1.207.984,1.962,1.962,0,0,0,1.005-.3l.454.829a3.01,3.01,0,0,1-1.65.522,2.267,2.267,0,0,1-2.353-2.435Zm2.994-.508c0-.512-.223-.879-.771-.879a.922.922,0,0,0-.9.879Z" transform="translate(-152.246 -357.404)" fill="#0a2d74"/>
          <path id="Path_38472" data-name="Path 38472" d="M182.62,354.561a.8.8,0,1,1,.8.72A.734.734,0,0,1,182.62,354.561Zm.108,1.4H184.1v4.647h-1.376Z" transform="translate(-161.797 -353.84)" fill="#0a2d74"/>
          <path id="Path_38473" data-name="Path 38473" d="M190.464,360.483v-1.877h-.634V357.58l.713-.054.162-1.236h1.138v1.236h1.113v1.081h-1.113v1.862c0,.526.238.739.6.739a1.324,1.324,0,0,0,.443-.09l.216,1a3.263,3.263,0,0,1-1.034.169c-1.149,0-1.6-.724-1.6-1.8Z" transform="translate(-166.409 -355.407)" fill="#0a2d74"/>
          <path id="Path_38474" data-name="Path 38474" d="M201.777,359.607l-1.837-3.927h1.477l.544,1.4c.162.458.324.879.5,1.355h.036c.173-.472.35-.9.515-1.355l.544-1.4h1.441l-1.841,3.927v2.176h-1.38v-2.176Z" transform="translate(-172.877 -355.017)" fill="#0a2d74"/>
          <path id="Path_38476" data-name="Path 38476" d="M237.7,355.673h1.416l1.592,3.037.605,1.34h.036c-.065-.645-.177-1.5-.177-2.223V355.67h1.315v6.106h-1.416l-1.592-3.044-.605-1.333h-.036c.065.674.176,1.491.176,2.212v2.165H237.7V355.67Z" transform="translate(-197.033 -355.011)" fill="#0a2d74"/>
          <path id="Path_38477" data-name="Path 38477" d="M255.72,355.68h1.65l1.917,6.106h-1.459l-.8-3.091c-.17-.609-.332-1.333-.5-1.97h-.036c-.148.645-.31,1.358-.479,1.97l-.8,3.091H253.8l1.917-6.106Zm-.652,3.577H258v1.074h-2.936Z" transform="translate(-207.333 -355.017)" fill="#0a2d74"/>
          <path id="Path_38478" data-name="Path 38478" d="M270.77,360.811l.792-.948a2.434,2.434,0,0,0,1.5.638c.576,0,.857-.227.857-.591,0-.385-.346-.508-.879-.728l-.793-.339a1.779,1.779,0,0,1-1.232-1.664,1.974,1.974,0,0,1,2.176-1.819,2.825,2.825,0,0,1,1.963.8l-.7.868a1.987,1.987,0,0,0-1.268-.479c-.483,0-.778.2-.778.548,0,.375.4.512.933.724l.778.313a1.683,1.683,0,0,1,1.211,1.661,2.035,2.035,0,0,1-2.3,1.891,3.353,3.353,0,0,1-2.263-.883Z" transform="translate(-218.19 -354.812)" fill="#0a2d74"/>
          <path id="Path_38479" data-name="Path 38479" d="M285.75,360.811l.793-.948a2.433,2.433,0,0,0,1.5.638c.576,0,.857-.227.857-.591,0-.385-.346-.508-.879-.728l-.793-.339a1.779,1.779,0,0,1-1.232-1.664,1.974,1.974,0,0,1,2.176-1.819,2.824,2.824,0,0,1,1.963.8l-.7.868a1.987,1.987,0,0,0-1.268-.479c-.483,0-.778.2-.778.548,0,.375.4.512.933.724l.778.313a1.683,1.683,0,0,1,1.21,1.661,2.035,2.035,0,0,1-2.3,1.891,3.353,3.353,0,0,1-2.262-.883Z" transform="translate(-227.773 -354.812)" fill="#0a2d74"/>
          <path id="Path_38480" data-name="Path 38480" d="M301.48,358.569a2.929,2.929,0,0,1,2.882-3.2,2.575,2.575,0,0,1,1.837.793l-.728.886a1.534,1.534,0,0,0-1.077-.486c-.836,0-1.5.739-1.5,1.963s.583,1.985,1.477,1.985a1.6,1.6,0,0,0,1.192-.569l.728.868a2.512,2.512,0,0,1-1.971.9,2.819,2.819,0,0,1-2.842-3.131Z" transform="translate(-237.835 -354.819)" fill="#0a2d74"/>
          <path id="Path_38481" data-name="Path 38481" d="M316.64,358.508c0-2,1.128-3.138,2.774-3.138s2.774,1.153,2.774,3.138-1.128,3.192-2.774,3.192S316.64,360.5,316.64,358.508Zm4.132,0c0-1.225-.526-1.945-1.358-1.945s-1.358.724-1.358,1.945.526,2,1.358,2S320.772,359.733,320.772,358.508Z" transform="translate(-247.534 -354.819)" fill="#0a2d74"/>
          <path id="Path_38482" data-name="Path 38482" d="M336.21,355.68h1.506l.991,2.713c.123.36.23.753.353,1.128h.036c.122-.375.227-.767.349-1.128l.958-2.713h1.506v6.106h-1.257v-2.241c0-.595.112-1.484.177-2.075h-.036l-.5,1.445-.865,2.338h-.767l-.865-2.338-.486-1.445h-.036c.065.591.177,1.48.177,2.075v2.241h-1.24Z" transform="translate(-260.054 -355.017)" fill="#0a2d74"/>
          <path id="Path_38526" data-name="Path 38526" d="M221.43,364.69h1.864v.791H221.43Z" transform="translate(-185.984 -361.535)" fill="#0a2d74"/>
        </g>
        <g id="Group_24301" data-name="Group 24301" transform="translate(86.804 0)">
          <path id="Path_38483" data-name="Path 38483" d="M363.53,355.554h1.58c1.942,0,2.982,1.128,2.982,3.133s-1.039,3.178-2.945,3.178h-1.613V355.55Zm1.52,5.657c1.476,0,2.212-.925,2.212-2.519s-.736-2.475-2.212-2.475h-.718v4.994Z" transform="translate(-363.53 -355.013)" fill="#0a2d74"/>
          <path id="Path_38484" data-name="Path 38484" d="M379.92,355.141a.549.549,0,1,1,.548.51A.516.516,0,0,1,379.92,355.141Zm.144,1.472h.792v4.676h-.792Z" transform="translate(-373.857 -354.434)" fill="#0a2d74"/>
          <path id="Path_38485" data-name="Path 38485" d="M386.727,365.366a1.319,1.319,0,0,1,.685-1.058v-.037a.867.867,0,0,1-.418-.766,1.126,1.126,0,0,1,.514-.869V362.6a1.628,1.628,0,0,1-.607-1.254,1.66,1.66,0,0,1,1.753-1.665,1.949,1.949,0,0,1,.659.115h1.632v.61h-.962a1.347,1.347,0,0,1,.381.962,1.6,1.6,0,0,1-1.713,1.62,1.646,1.646,0,0,1-.7-.159.68.68,0,0,0-.3.551c0,.3.192.507.818.507h.91c1.088,0,1.635.34,1.635,1.117,0,.87-.917,1.617-2.364,1.617-1.147,0-1.935-.448-1.935-1.254Zm3.526-.244c0-.433-.329-.581-.943-.581H388.5a2.6,2.6,0,0,1-.607-.07.976.976,0,0,0-.477.784c0,.5.507.818,1.358.818s1.476-.466,1.476-.955Zm-.6-3.777a1,1,0,1,0-1.99,0,1,1,0,1,0,1.99,0Z" transform="translate(-378.141 -357.615)" fill="#0a2d74"/>
          <path id="Path_38486" data-name="Path 38486" d="M401.4,355.141a.549.549,0,1,1,.548.51A.516.516,0,0,1,401.4,355.141Zm.144,1.472h.792v4.676h-.792Z" transform="translate(-387.39 -354.434)" fill="#0a2d74"/>
          <path id="Path_38487" data-name="Path 38487" d="M408.365,360.989V358.4h-.7v-.6l.733-.044.1-1.31h.662v1.31h1.265v.644h-1.265V361c0,.57.185.9.721.9a1.556,1.556,0,0,0,.533-.126l.152.6a2.84,2.84,0,0,1-.869.174C408.7,362.55,408.365,361.921,408.365,360.989Z" transform="translate(-391.341 -355.581)" fill="#0a2d74"/>
          <path id="Path_38488" data-name="Path 38488" d="M417.614,363.241c0-1.017.88-1.528,2.871-1.746,0-.6-.2-1.18-.966-1.18a2.584,2.584,0,0,0-1.395.5l-.311-.544a3.44,3.44,0,0,1,1.835-.611c1.14,0,1.624.759,1.624,1.924v2.867h-.655l-.067-.559h-.026a2.481,2.481,0,0,1-1.547.673,1.269,1.269,0,0,1-1.369-1.328Zm2.871.074v-1.3c-1.569.189-2.1.573-2.1,1.169,0,.533.359.747.818.747a1.9,1.9,0,0,0,1.276-.618Z" transform="translate(-397.604 -357.603)" fill="#0a2d74"/>
          <path id="Path_38489" data-name="Path 38489" d="M432.49,360.015V354.1h.792v5.971c0,.241.1.337.222.337a.719.719,0,0,0,.174-.018l.107.6a1.255,1.255,0,0,1-.455.074c-.592,0-.836-.377-.836-1.054Z" transform="translate(-406.978 -354.1)" fill="#0a2d74"/>
          <path id="Path_38490" data-name="Path 38490" d="M445.254,360.861l.481-.551a2.473,2.473,0,0,0,1.742.784c.829,0,1.321-.414,1.321-1.025,0-.644-.459-.851-1.054-1.11l-.906-.4a1.779,1.779,0,0,1-1.28-1.624,1.818,1.818,0,0,1,1.987-1.676,2.61,2.61,0,0,1,1.857.781l-.426.514a2.019,2.019,0,0,0-1.432-.592c-.707,0-1.176.355-1.176.921,0,.607.551.836,1.043,1.043l.9.388a1.758,1.758,0,0,1,1.3,1.687,1.91,1.91,0,0,1-2.153,1.794,3.031,3.031,0,0,1-2.209-.936Z" transform="translate(-415.018 -354.831)" fill="#0a2d74"/>
          <path id="Path_38491" data-name="Path 38491" d="M461.17,354.1h.777v4.643h.026l2-2.464h.877l-1.565,1.879,1.772,2.8h-.866l-1.361-2.246-.877,1.021v1.228h-.777v-6.852Z" transform="translate(-425.049 -354.1)" fill="#0a2d74"/>
          <path id="Path_38492" data-name="Path 38492" d="M474.64,355.141a.549.549,0,1,1,.548.51A.516.516,0,0,1,474.64,355.141Zm.145,1.472h.792v4.676h-.792Z" transform="translate(-433.536 -354.434)" fill="#0a2d74"/>
          <path id="Path_38493" data-name="Path 38493" d="M482.41,360.015V354.1h.792v5.971c0,.241.1.337.222.337a.717.717,0,0,0,.174-.018l.107.6a1.256,1.256,0,0,1-.455.074c-.592,0-.836-.377-.836-1.054Z" transform="translate(-438.431 -354.1)" fill="#0a2d74"/>
          <path id="Path_38494" data-name="Path 38494" d="M490.03,360.015V354.1h.792v5.971c0,.241.1.337.222.337a.719.719,0,0,0,.174-.018l.107.6a1.256,1.256,0,0,1-.455.074c-.592,0-.836-.377-.836-1.054Z" transform="translate(-443.232 -354.1)" fill="#0a2d74"/>
          <path id="Path_38495" data-name="Path 38495" d="M497.26,355.141a.549.549,0,1,1,.547.51A.516.516,0,0,1,497.26,355.141Zm.144,1.472h.792v4.676H497.4Z" transform="translate(-447.788 -354.434)" fill="#0a2d74"/>
          <path id="Path_38496" data-name="Path 38496" d="M505.03,359.794h.655l.066.673h.026a2.231,2.231,0,0,1,1.569-.788c.984,0,1.428.636,1.428,1.827v2.963h-.792v-2.86c0-.869-.263-1.243-.88-1.243a1.78,1.78,0,0,0-1.28.718v3.385h-.792v-4.676Z" transform="translate(-452.683 -357.616)" fill="#0a2d74"/>
          <path id="Path_38497" data-name="Path 38497" d="M519.267,365.366a1.32,1.32,0,0,1,.685-1.058v-.037a.867.867,0,0,1-.418-.766,1.126,1.126,0,0,1,.514-.869V362.6a1.628,1.628,0,0,1-.607-1.254,1.66,1.66,0,0,1,1.753-1.665,1.95,1.95,0,0,1,.659.115h1.631v.61h-.962a1.347,1.347,0,0,1,.381.962,1.6,1.6,0,0,1-1.713,1.62,1.646,1.646,0,0,1-.7-.159.68.68,0,0,0-.3.551c0,.3.193.507.818.507h.91c1.087,0,1.635.34,1.635,1.117,0,.87-.917,1.617-2.364,1.617-1.147,0-1.935-.448-1.935-1.254Zm3.526-.244c0-.433-.329-.581-.943-.581h-.807a2.6,2.6,0,0,1-.607-.07.976.976,0,0,0-.477.784c0,.5.507.818,1.358.818s1.476-.466,1.476-.955Zm-.6-3.777a1,1,0,1,0-1.99,0,1,1,0,1,0,1.99,0Z" transform="translate(-461.649 -357.615)" fill="#0a2d74"/>
          <path id="Path_38498" data-name="Path 38498" d="M540.72,355.56h.8v6.315h-.8Z" transform="translate(-475.17 -355.02)" fill="#0a2d74"/>
          <path id="Path_38499" data-name="Path 38499" d="M548.35,359.794H549l.067.673h.026a2.23,2.23,0,0,1,1.568-.788c.984,0,1.428.636,1.428,1.827v2.963H551.3v-2.86c0-.869-.263-1.243-.881-1.243a1.78,1.78,0,0,0-1.28.718v3.385h-.792Z" transform="translate(-479.977 -357.616)" fill="#0a2d74"/>
          <path id="Path_38500" data-name="Path 38500" d="M563.17,355.141a.549.549,0,1,1,.547.51A.516.516,0,0,1,563.17,355.141Zm.144,1.472h.792v4.676h-.792Z" transform="translate(-489.315 -354.434)" fill="#0a2d74"/>
          <path id="Path_38501" data-name="Path 38501" d="M570.135,360.989V358.4h-.7v-.6l.732-.044.1-1.31h.662v1.31H572.2v.644h-1.265V361c0,.57.185.9.722.9a1.552,1.552,0,0,0,.532-.126l.152.6a2.842,2.842,0,0,1-.866.174c-.995,0-1.332-.629-1.332-1.561Z" transform="translate(-493.265 -355.581)" fill="#0a2d74"/>
          <path id="Path_38502" data-name="Path 38502" d="M580.33,355.141a.549.549,0,1,1,.547.51A.516.516,0,0,1,580.33,355.141Zm.144,1.472h.792v4.676h-.792Z" transform="translate(-500.127 -354.434)" fill="#0a2d74"/>
          <path id="Path_38503" data-name="Path 38503" d="M587.313,363.241c0-1.017.881-1.528,2.871-1.746,0-.6-.2-1.18-.966-1.18a2.586,2.586,0,0,0-1.395.5l-.311-.544a3.439,3.439,0,0,1,1.835-.611c1.139,0,1.624.759,1.624,1.924v2.867h-.655l-.067-.559h-.026a2.48,2.48,0,0,1-1.546.673,1.269,1.269,0,0,1-1.369-1.328Zm2.871.074v-1.3c-1.568.189-2.1.573-2.1,1.169,0,.533.359.747.818.747a1.9,1.9,0,0,0,1.276-.618Z" transform="translate(-504.524 -357.603)" fill="#0a2d74"/>
          <path id="Path_38504" data-name="Path 38504" d="M601.016,360.989V358.4h-.7v-.6l.732-.044.1-1.31h.662v1.31h1.266v.644h-1.266V361c0,.57.185.9.721.9a1.556,1.556,0,0,0,.533-.126l.152.6a2.84,2.84,0,0,1-.866.174c-.995,0-1.332-.629-1.332-1.561Z" transform="translate(-512.721 -355.581)" fill="#0a2d74"/>
          <path id="Path_38505" data-name="Path 38505" d="M611.21,355.141a.549.549,0,1,1,.547.51A.516.516,0,0,1,611.21,355.141Zm.144,1.472h.792v4.676h-.792Z" transform="translate(-519.583 -354.434)" fill="#0a2d74"/>
          <path id="Path_38506" data-name="Path 38506" d="M617.17,359.99h.818l.884,2.656c.141.455.292.932.433,1.38h.037c.141-.448.292-.921.433-1.38l.884-2.656h.777l-1.654,4.676h-.921l-1.687-4.676Z" transform="translate(-523.338 -357.811)" fill="#0a2d74"/>
          <path id="Path_38507" data-name="Path 38507" d="M631.08,362.13a2.255,2.255,0,0,1,2.1-2.46c1.191,0,1.864.858,1.864,2.194a2.558,2.558,0,0,1-.037.448h-3.148a1.552,1.552,0,0,0,1.554,1.631,2.051,2.051,0,0,0,1.165-.374l.285.518a2.731,2.731,0,0,1-1.543.484,2.234,2.234,0,0,1-2.238-2.445Zm3.27-.381c0-.936-.422-1.447-1.154-1.447a1.433,1.433,0,0,0-1.339,1.447Z" transform="translate(-532.102 -357.609)" fill="#0a2d74"/>
        </g>
      </g>
    </g>
  </g>
</svg>
