<?xml version="1.0" encoding="utf-8"?>
<!-- Generator: Adobe Illustrator 25.2.0, SVG Export Plug-In . SVG Version: 6.00 Build 0)  -->
<svg version="1.1" id="Layer_1" xmlns="http://www.w3.org/2000/svg" xmlns:xlink="http://www.w3.org/1999/xlink" x="0px" y="0px"
	 viewBox="0 0 314.8 170.8" style="enable-background:new 0 0 314.8 170.8;" xml:space="preserve">
<style type="text/css">
	.st0{fill:#FFFFFF;}
	.st1{fill:#61DAFB;}
	.st2{fill:#689F63;}
	.st3{fill-rule:evenodd;clip-rule:evenodd;fill:#333333;}
	.st4{fill-rule:evenodd;clip-rule:evenodd;fill:#689F63;}
	.st5{fill:url(#Path_235_1_);}
	.st6{fill:url(#Path_236_1_);}
	.st7{fill:url(#Path_237_1_);}
	.st8{fill-rule:evenodd;clip-rule:evenodd;fill:#8E714E;}
	.st9{fill-rule:evenodd;clip-rule:evenodd;fill:#442D22;}
	.st10{fill-rule:evenodd;clip-rule:evenodd;fill:#FFFFFF;}
	.st11{fill-rule:evenodd;clip-rule:evenodd;fill:#A6A385;}
	.st12{fill-rule:evenodd;clip-rule:evenodd;fill:#499D4A;}
	.st13{fill-rule:evenodd;clip-rule:evenodd;fill:#58AA50;}
	.st14{fill:#131313;}
	.st15{fill:#1572B6;}
	.st16{fill:#33A9DC;}
	.st17{fill:#EBEBEB;}
	.st18{fill:#F7DF1E;}
	.st19{fill:#E44D26;}
	.st20{fill:#F16529;}
	.st21{fill:#563D7C;}
</style>
<path id="Path_925" class="st0" d="M48.1,7C93.4-9.8,139.4,5,170.6,37.4s96.7-22.3,131.5,10c23.7,22.1,12.8,78.8-19.7,103.3
	c-44.2,33.4-178.6,16.4-207.6,10.8c-33.5-6.5-58-26.4-67.9-50.5C-17.1,52.9,28.1,14.4,48.1,7z"/>
<g id="react-2" transform="translate(1263.3 1910)">
	<path id="Path_250" class="st1" d="M-1194.7-1864.6c0-3.2-4-6.3-10.2-8.2c1.4-6.3,0.8-11.3-2-12.9c-0.7-0.4-1.4-0.6-2.2-0.6v2.2
		c0.4,0,0.8,0.1,1.1,0.3c1.3,0.8,1.9,3.7,1.5,7.5c-0.1,0.9-0.3,1.9-0.5,2.9c-2.1-0.5-4.2-0.9-6.3-1.1c-1.3-1.7-2.6-3.4-4.1-5
		c3.2-3,6.3-4.6,8.3-4.6v-2.2c-2.7,0-6.3,1.9-9.9,5.3c-3.6-3.3-7.2-5.3-9.9-5.3v2.2c2.1,0,5.1,1.6,8.3,4.6c-1.5,1.6-2.8,3.2-4.1,4.9
		c-2.1,0.2-4.2,0.6-6.3,1.1c-0.2-1-0.4-2-0.5-2.9c-0.5-3.8,0.1-6.7,1.4-7.5c0.3-0.2,0.7-0.3,1.1-0.3v-2.2c-0.8,0-1.6,0.2-2.2,0.6
		c-2.8,1.6-3.4,6.6-2,12.9c-6.2,1.9-10.2,4.9-10.2,8.2s4,6.3,10.2,8.2c-1.4,6.3-0.8,11.3,2,12.9c0.7,0.4,1.4,0.6,2.2,0.6
		c2.7,0,6.3-1.9,9.9-5.3c3.6,3.3,7.2,5.3,9.9,5.3c0.8,0,1.6-0.2,2.2-0.6c2.8-1.6,3.4-6.6,2-12.9
		C-1198.7-1858.4-1194.7-1861.4-1194.7-1864.6L-1194.7-1864.6z M-1207.6-1871.2c-0.4,1.3-0.8,2.6-1.3,3.9c-0.4-0.8-0.8-1.6-1.3-2.4
		s-0.9-1.6-1.4-2.3C-1210.3-1871.8-1208.9-1871.5-1207.6-1871.2L-1207.6-1871.2z M-1212.1-1860.7c-0.8,1.3-1.6,2.6-2.4,3.8
		c-1.5,0.1-3,0.2-4.5,0.2s-3-0.1-4.5-0.2c-0.8-1.2-1.6-2.4-2.4-3.8c-0.8-1.3-1.4-2.6-2.1-3.9c0.6-1.3,1.3-2.7,2-4
		c0.8-1.3,1.6-2.6,2.4-3.8c1.5-0.1,3-0.2,4.5-0.2c1.5,0,3,0.1,4.5,0.2c0.8,1.2,1.6,2.4,2.4,3.8c0.8,1.3,1.4,2.6,2.1,3.9
		C-1210.7-1863.3-1211.4-1862-1212.1-1860.7L-1212.1-1860.7z M-1208.9-1862c0.5,1.3,1,2.7,1.4,3.9c-1.3,0.3-2.7,0.6-4.1,0.8
		c0.5-0.8,1-1.5,1.4-2.3C-1209.8-1860.4-1209.3-1861.2-1208.9-1862L-1208.9-1862z M-1219-1851.4c-1-1-1.9-2.1-2.8-3.2
		c0.9,0,1.8,0.1,2.7,0.1s1.9,0,2.8-0.1C-1217.1-1853.5-1218-1852.4-1219-1851.4L-1219-1851.4z M-1226.4-1857.2
		c-1.4-0.2-2.8-0.5-4.1-0.8c0.4-1.3,0.8-2.6,1.3-3.9c0.4,0.8,0.8,1.6,1.3,2.4S-1226.8-1858-1226.4-1857.2L-1226.4-1857.2z
		 M-1219-1877.8c1,1,1.9,2.1,2.8,3.2c-0.9,0-1.8-0.1-2.7-0.1s-1.9,0-2.8,0.1C-1220.9-1875.8-1220-1876.8-1219-1877.8L-1219-1877.8z
		 M-1226.4-1872c-0.5,0.8-1,1.5-1.4,2.3c-0.5,0.8-0.9,1.6-1.3,2.4c-0.5-1.3-1-2.7-1.4-3.9C-1229.1-1871.5-1227.8-1871.8-1226.4-1872
		L-1226.4-1872z M-1235.3-1859.6c-3.5-1.5-5.8-3.5-5.8-5s2.3-3.5,5.8-5c0.9-0.4,1.8-0.7,2.7-1c0.6,2.1,1.4,4.1,2.2,6
		c-0.9,1.9-1.6,4-2.2,6C-1233.5-1858.9-1234.5-1859.2-1235.3-1859.6L-1235.3-1859.6z M-1230-1845.5c-1.3-0.8-1.9-3.7-1.5-7.5
		c0.1-0.9,0.3-1.9,0.5-2.9c2.1,0.5,4.2,0.9,6.3,1.1c1.3,1.7,2.6,3.4,4.1,5c-3.2,3-6.3,4.6-8.3,4.6
		C-1229.3-1845.2-1229.7-1845.3-1230-1845.5z M-1206.5-1853c0.5,3.8-0.1,6.7-1.4,7.5c-0.3,0.2-0.7,0.3-1.1,0.3
		c-2.1,0-5.1-1.6-8.3-4.6c1.5-1.6,2.8-3.2,4.1-4.9c2.1-0.2,4.2-0.6,6.3-1.1C-1206.8-1854.9-1206.6-1854-1206.5-1853L-1206.5-1853z
		 M-1202.7-1859.6c-0.9,0.4-1.8,0.7-2.7,1c-0.6-2.1-1.4-4.1-2.2-6c0.9-1.9,1.6-4,2.2-6c1,0.3,1.9,0.6,2.8,1c3.5,1.5,5.8,3.5,5.8,5
		C-1196.9-1863.1-1199.2-1861.1-1202.7-1859.6L-1202.7-1859.6z"/>
	<circle id="Ellipse_32" class="st1" cx="-1219" cy="-1864.6" r="4.5"/>
</g>
<g id="node-js-logo" transform="translate(1504 1988)">
	<path id="Path_231" class="st2" d="M-1393.6-1932.8c-0.2,0-0.3,0-0.5-0.1l-1.5-0.9c-0.2-0.1-0.1-0.2,0-0.2c0.2-0.1,0.5-0.2,0.7-0.3
		c0,0,0.1,0,0.1,0l1.2,0.7c0,0,0.1,0,0.1,0l4.6-2.7c0,0,0.1-0.1,0.1-0.1v-5.4c0-0.1,0-0.1-0.1-0.1l-4.6-2.7c0,0-0.1,0-0.1,0
		l-4.6,2.7c0,0-0.1,0.1-0.1,0.1v5.4c0,0.1,0,0.1,0.1,0.1l1.3,0.7c0.7,0.3,1.1-0.1,1.1-0.5v-5.3c0-0.1,0.1-0.1,0.1-0.1c0,0,0,0,0,0
		h0.6c0.1,0,0.1,0.1,0.1,0.1c0,0,0,0,0,0v5.3c0.1,0.7-0.4,1.3-1.1,1.4c-0.1,0-0.2,0-0.3,0c-0.4,0-0.7-0.1-1.1-0.3l-1.2-0.7
		c-0.3-0.2-0.5-0.5-0.5-0.8v-5.4c0-0.3,0.2-0.7,0.5-0.8l4.6-2.7c0.3-0.2,0.7-0.2,1,0l4.6,2.7c0.3,0.2,0.5,0.5,0.5,0.8v5.4
		c0,0.3-0.2,0.7-0.5,0.8l-4.6,2.7C-1393.3-1932.8-1393.4-1932.8-1393.6-1932.8"/>
	<path id="Path_232" class="st2" d="M-1392.2-1936.5c-2,0-2.5-0.9-2.5-1.7c0-0.1,0.1-0.1,0.1-0.1c0,0,0,0,0,0h0.6
		c0.1,0,0.1,0,0.1,0.1c0.1,0.6,0.4,0.9,1.6,0.9c1,0,1.4-0.2,1.4-0.7c0-0.3-0.1-0.5-1.6-0.7c-1.3-0.1-2.1-0.4-2.1-1.4
		c0-0.9,0.8-1.5,2.1-1.5c1.5,0,2.2,0.5,2.3,1.6c0,0.1,0,0.1-0.1,0.1c0,0,0,0,0,0h-0.6c-0.1,0-0.1,0-0.1-0.1
		c-0.1-0.6-0.5-0.8-1.4-0.8c-1.1,0-1.2,0.4-1.2,0.6c0,0.3,0.1,0.4,1.6,0.6c1.4,0.2,2.1,0.5,2.1,1.5
		C-1389.9-1937.1-1390.7-1936.5-1392.2-1936.5"/>
	<path id="Path_233" class="st3" d="M-1408-1953.7c0-0.2-0.1-0.4-0.3-0.5l-4.9-2.8c-0.1,0-0.2-0.1-0.3-0.1h-0.1
		c-0.1,0-0.2,0-0.3,0.1l-4.9,2.8c-0.2,0.1-0.3,0.3-0.3,0.5l0,7.6c0,0.1,0.1,0.2,0.1,0.3c0.1,0.1,0.2,0.1,0.3,0l2.9-1.7
		c0.2-0.1,0.3-0.3,0.3-0.5v-3.6c0-0.2,0.1-0.4,0.3-0.5l1.2-0.7c0.1-0.1,0.2-0.1,0.3-0.1c0.1,0,0.2,0,0.3,0.1l1.2,0.7
		c0.2,0.1,0.3,0.3,0.3,0.5v3.6c0,0.2,0.1,0.4,0.3,0.5l2.9,1.7c0.1,0.1,0.2,0.1,0.3,0c0.1-0.1,0.1-0.2,0.1-0.3L-1408-1953.7z
		 M-1384.8-1949.8c0,0.1,0,0.1-0.1,0.1l-1.7,1c0,0-0.1,0-0.1,0l-1.7-1c0,0-0.1-0.1-0.1-0.1v-1.9c0-0.1,0-0.1,0.1-0.1l1.7-1
		c0,0,0.1,0,0.2,0l1.7,1c0,0,0.1,0.1,0.1,0.1V-1949.8z M-1384.3-1964.2c-0.1-0.1-0.3,0-0.4,0.1c0,0,0,0.1,0,0.1v7.5
		c0,0.1-0.1,0.2-0.2,0.2c0,0-0.1,0-0.1,0l-1.2-0.7c-0.2-0.1-0.4-0.1-0.6,0l-4.9,2.8c-0.2,0.1-0.3,0.3-0.3,0.5v5.7
		c0,0.2,0.1,0.4,0.3,0.5l4.9,2.8c0.2,0.1,0.4,0.1,0.6,0l4.9-2.8c0.2-0.1,0.3-0.3,0.3-0.5v-14.2c0-0.2-0.1-0.4-0.3-0.5
		L-1384.3-1964.2z M-1367.9-1951.8c0.2-0.1,0.3-0.3,0.3-0.5v-1.4c0-0.2-0.1-0.4-0.3-0.5l-4.9-2.8c-0.2-0.1-0.4-0.1-0.6,0l-4.9,2.8
		c-0.2,0.1-0.3,0.3-0.3,0.5v5.7c0,0.2,0.1,0.4,0.3,0.5l4.9,2.8c0.2,0.1,0.4,0.1,0.6,0l3-1.6c0.1-0.1,0.2-0.3,0.1-0.4
		c0,0-0.1-0.1-0.1-0.1l-4.9-2.8c-0.1-0.1-0.1-0.2-0.2-0.3v-1.8c0-0.1,0.1-0.2,0.1-0.3l1.5-0.9c0.1-0.1,0.2-0.1,0.3,0l1.5,0.9
		c0.1,0.1,0.1,0.2,0.1,0.3v1.4c0,0.2,0.1,0.3,0.3,0.3c0,0,0.1,0,0.1,0L-1367.9-1951.8z"/>
	<path id="Path_234" class="st4" d="M-1373.2-1952c0,0,0.1,0,0.1,0l0.9,0.5c0,0,0.1,0.1,0.1,0.1v1.1c0,0,0,0.1-0.1,0.1l-0.9,0.5
		c0,0-0.1,0-0.1,0l-0.9-0.5c0,0-0.1-0.1-0.1-0.1v-1.1c0,0,0-0.1,0.1-0.1L-1373.2-1952z"/>
	<g id="Group_943" transform="translate(8.532 2.855)">
		
			<linearGradient id="Path_235_1_" gradientUnits="userSpaceOnUse" x1="-1877.0612" y1="-1386.7933" x2="-1877.0521" y2="-1386.7933" gradientTransform="matrix(20.854 0 0 -21.177 37707.5781 -31321.8008)">
			<stop  offset="0.3" style="stop-color:#3E863D"/>
			<stop  offset="0.5" style="stop-color:#55934F"/>
			<stop  offset="0.8" style="stop-color:#5AAD45"/>
		</linearGradient>
		<path id="Path_235" class="st5" d="M-1398.1-1957.5l-13.8-6.8l-7.1,14.4l13.8,6.8L-1398.1-1957.5z"/>
	</g>
	<g id="Group_944" transform="translate(7.637 2.1)">
		
			<linearGradient id="Path_236_1_" gradientUnits="userSpaceOnUse" x1="-1877.4816" y1="-1384.6123" x2="-1877.4766" y2="-1384.6123" gradientTransform="matrix(22.607 0 0 -22.686 41008.4414 -33364.2188)">
			<stop  offset="0.57" style="stop-color:#3E863D"/>
			<stop  offset="0.72" style="stop-color:#619857"/>
			<stop  offset="1" style="stop-color:#76AC64"/>
		</linearGradient>
		<path id="Path_236" class="st6" d="M-1419-1954.7l9.7,13.2l12.9-9.5l-9.7-13.2L-1419-1954.7z"/>
	</g>
	<g id="Group_945" transform="translate(13.785 7.19)">
		
			<linearGradient id="Path_237_1_" gradientUnits="userSpaceOnUse" x1="-1866.051" y1="-1406.0828" x2="-1866.041" y2="-1406.0828" gradientTransform="matrix(10.646 0 0 -12.475 18424.1035 -19498.9141)">
			<stop  offset="0.16" style="stop-color:#6BBF47"/>
			<stop  offset="0.38" style="stop-color:#79B461"/>
			<stop  offset="0.47" style="stop-color:#75AC64"/>
			<stop  offset="0.7" style="stop-color:#659E5A"/>
			<stop  offset="0.9" style="stop-color:#3E863D"/>
		</linearGradient>
		<path id="Path_237" class="st7" d="M-1419-1964.3v12.5h10.6v-12.5H-1419z"/>
	</g>
</g>
<g id="mongodb" transform="translate(1531.791 2098.797)">
	<path id="Path_223" class="st8" d="M-1341.1-1954.2c-0.1,0-0.2,0.2-0.2,0.3c0,0.6,0,2.2,0,3.3c0,0,0,0.1,0.1,0.1c0.2,0,0.8,0,1.2,0
		c0.4,0,0.8,0,1.2-0.2c0.5-0.3,0.8-0.9,0.8-1.5c0-1.5-1-2-2.5-2C-1340.6-1954.3-1340.8-1954.2-1341.1-1954.2z M-1337.2-1947.5
		c0-1.5-1.1-2.3-3.1-2.3c-0.1,0-0.7,0-0.9,0c0,0-0.1,0-0.1,0.1c0,1.1,0,2.8,0,3.4c0,0.3,0.2,0.6,0.5,0.8c0.4,0.1,0.9,0.2,1.3,0.2
		c1.1,0.1,2.1-0.7,2.2-1.9C-1337.2-1947.2-1337.2-1947.3-1337.2-1947.5z M-1344.1-1955c0.2,0,0.6,0,1.8,0c1.1,0,2,0,3,0
		c1.3,0,3.1,0.5,3.1,2.4c0,1-0.7,1.8-1.6,2.1c0,0,0,0,0,0.1c1.3,0.2,2.3,1.3,2.4,2.6c0,1.4-0.9,2.5-2.2,2.9
		c-0.9,0.3-1.8,0.5-2.8,0.5c-0.8,0-2.8-0.1-4-0.1c-0.1,0,0.1-0.6,0.2-0.7c0.3,0,0.5,0,0.8-0.1c0.4-0.1,0.5-0.2,0.5-0.8
		c0-0.5,0-2.4,0-3.7c0-1.8,0-3.1,0-3.7c0-0.5-0.2-0.6-0.5-0.7c-0.3,0-0.7-0.1-1-0.2C-1344.5-1954.5-1344.2-1955-1344.1-1955
		L-1344.1-1955z M-1352.8-1945.6c0.5,0.3,1.1,0.4,1.7,0.4c0.9,0,1.8-0.3,2.4-0.9c1-0.9,1.5-2.3,1.4-3.6c0.1-1.6-0.7-3.1-2-3.9
		c-0.9-0.5-1.8-0.7-2.8-0.7c-0.3,0-0.6,0-0.8,0.1c-0.1,0.1-0.1,0.1-0.2,0.2c0,0.3,0,2.6,0,4c0,1.4,0,3.4,0,3.6
		C-1353.2-1946.1-1353.1-1945.8-1352.8-1945.6L-1352.8-1945.6z M-1356.3-1955c0.3,0,1.4,0,1.9,0c1,0,1.6,0,3.4,0
		c1.3-0.1,2.6,0.4,3.7,1.2c1.1,1,1.7,2.4,1.7,3.9c0.1,1.7-0.7,3.3-2.1,4.3c-1.3,0.9-2.8,1.3-4.3,1.2c-1,0-2.8,0-4.3,0h0
		c-0.1-0.1,0.1-0.7,0.2-0.7c0.2,0,0.5-0.1,0.7-0.1c0.3-0.1,0.4-0.3,0.4-0.8c0-1,0-2.3,0-3.7c0-1,0-3,0-3.6c0-0.5-0.3-0.7-0.7-0.8
		c-0.2,0-0.5-0.1-1-0.2C-1356.6-1954.5-1356.3-1954.9-1356.3-1955L-1356.3-1955z"/>
	<path id="Path_224" class="st9" d="M-1374.5-1945.1c-0.3,0-0.7-0.1-1-0.3c-0.1-0.1-0.1-0.2-0.1-0.2c0-0.5,0-2,0-3
		c0-0.7-0.1-1.4-0.5-2c-0.4-0.6-1.1-0.9-1.8-0.9c-0.9,0.1-1.7,0.5-2.3,1.1c0,0-0.1,0.1-0.1,0c0-0.2,0-0.5,0-0.7c0-0.1,0-0.2-0.1-0.3
		c-0.8,0.3-1.5,0.5-2.3,0.6c-0.4,0.1-0.5,0.4-0.1,0.5h0c0.3,0.1,0.6,0.2,0.9,0.4c0.1,0.1,0.2,0.3,0.1,0.4c0,1.1,0,2.9,0,3.8
		c0,0.4-0.1,0.5-0.4,0.6l0,0c-0.2,0.1-0.4,0.1-0.6,0.1c-0.1,0.2-0.1,0.5,0,0.7c0.2,0,1,0,1.8,0c1,0,1.5,0,1.8,0
		c0.1-0.2,0.1-0.5,0.1-0.7c-0.2,0-0.5,0-0.7-0.1c-0.3-0.1-0.3-0.2-0.4-0.5c0-0.8,0-2.5,0-3.6c0-0.2,0-0.4,0.2-0.6
		c0.4-0.3,0.9-0.5,1.4-0.5c0.4,0,0.7,0.1,1,0.3c0.3,0.2,0.4,0.6,0.5,0.9c0.1,0.6,0,1.9,0,3c0,0.6,0,0.8-0.3,0.8
		c-0.2,0.1-0.5,0.1-0.7,0.1c-0.1,0.2-0.1,0.5,0,0.7c0.4,0,1,0,1.7,0c0.9,0,1.5,0,1.8,0C-1374.5-1944.6-1374.5-1944.8-1374.5-1945.1z
		 M-1370.3-1950.8c-0.8,0-1.3,0.6-1.3,1.6c0,1,0.4,2.1,1.7,2.1c0.3,0,0.6-0.1,0.8-0.3c0.3-0.4,0.5-0.9,0.5-1.4
		C-1368.7-1950.1-1369.3-1950.8-1370.3-1950.8L-1370.3-1950.8z M-1370.4-1944.2c-0.2,0-0.5,0.1-0.6,0.2c-0.6,0.4-0.9,0.8-0.9,1.3
		c0,0.4,0.2,0.8,0.5,1.1c0.5,0.4,1.2,0.6,1.8,0.6c1.5,0,2.2-0.8,2.2-1.6c0-0.5-0.3-1-0.9-1.2
		C-1369-1944.1-1369.7-1944.2-1370.4-1944.2L-1370.4-1944.2z M-1370.3-1940.2c-0.8,0-1.5-0.2-2.2-0.6c-0.5-0.4-0.8-0.9-0.8-1.5
		c0-0.3,0.1-0.5,0.3-0.8c0.4-0.4,0.9-0.8,1.4-1.1c0,0,0,0,0-0.1c0,0,0-0.1-0.1-0.1c-0.5-0.1-0.8-0.5-1-1v0c0-0.1,0-0.2,0.1-0.3
		c0.1-0.1,0.3-0.2,0.4-0.3c0.2-0.1,0.5-0.3,0.7-0.5c0,0,0-0.1,0-0.1c0,0,0-0.1-0.1-0.1c-1-0.3-1.7-1.3-1.6-2.3c0-0.8,0.4-1.5,1-1.9
		c0.6-0.4,1.4-0.7,2.2-0.7h0c0.6,0,1.1,0.1,1.7,0.4c0.3,0.1,0.6,0.2,1,0.2c0.4,0,0.8-0.1,1.1-0.4c0,0.1,0.1,0.2,0.1,0.3
		c0,0.2-0.1,0.5-0.2,0.7c-0.2,0.2-0.4,0.3-0.7,0.3h-0.1c-0.1,0-0.3,0-0.4-0.1l-0.1,0c0,0,0,0.1,0,0.1l0,0c0,0.2,0.1,0.4,0.1,0.6
		c0.1,0.9-0.3,1.7-1,2.2c-0.5,0.4-1.1,0.6-1.8,0.7c-0.1,0-0.1,0-0.2,0c-0.1,0-0.2,0-0.2,0h0c-0.1,0-0.4,0.2-0.4,0.4
		c0,0.2,0.1,0.5,0.8,0.5c0.1,0,0.3,0,0.4,0c0.8,0,1.6,0.1,2.4,0.3c0.7,0.2,1.1,0.9,1.1,1.6c-0.1,1.3-0.9,2.4-2.1,2.8
		C-1369-1940.4-1369.7-1940.2-1370.3-1940.2L-1370.3-1940.2z M-1361.7-1950.7c-0.3,0-0.6,0.1-0.8,0.2c-0.7,0.5-1,1.3-0.9,2.1
		c0,2,1,3.4,2.4,3.4c0.4,0,0.8-0.1,1-0.4c0.5-0.6,0.8-1.3,0.7-2.1C-1359.3-1949.4-1360.3-1950.7-1361.7-1950.7L-1361.7-1950.7z
		 M-1361.5-1944.3c-1.8,0.1-3.4-1.3-3.5-3.2c0-0.2,0-0.3,0-0.5c0-1.2,0.5-2.2,1.5-2.9c0.7-0.4,1.5-0.7,2.3-0.7
		c1.8-0.1,3.3,1.3,3.3,3.1c0,0.1,0,0.2,0,0.3c0.1,1.2-0.5,2.4-1.6,3.1C-1360-1944.5-1360.7-1944.3-1361.5-1944.3L-1361.5-1944.3
		L-1361.5-1944.3z M-1388.4-1950.7c-0.3,0-0.6,0.1-0.8,0.2c-0.7,0.5-1,1.3-0.9,2.1c0,2,1,3.4,2.4,3.4c0.4,0,0.8-0.1,1-0.4
		c0.5-0.6,0.8-1.3,0.7-2.1C-1385.9-1949.4-1386.9-1950.7-1388.4-1950.7z M-1388.1-1944.3c-1.8,0.1-3.4-1.3-3.5-3.2
		c0-0.2,0-0.3,0-0.5c0-1.2,0.5-2.2,1.5-2.9c0.7-0.4,1.5-0.7,2.3-0.7c1.8-0.1,3.3,1.3,3.3,3.1c0,0.1,0,0.2,0,0.3
		c0.1,1.2-0.5,2.4-1.6,3.1C-1386.6-1944.5-1387.4-1944.3-1388.1-1944.3L-1388.1-1944.3z M-1405.3-1944.4c0-0.1-0.1-0.2,0-0.3
		c0-0.1,0-0.2,0-0.2c0.2,0,0.4-0.1,0.7-0.1c0.3-0.1,0.4-0.2,0.4-0.6c0-0.9,0-2.6,0-3.8v0c0-0.2,0-0.3-0.2-0.4
		c-0.3-0.2-0.6-0.3-0.9-0.4c-0.1,0-0.2-0.1-0.2-0.2c0-0.1,0.1-0.2,0.3-0.2c0.8-0.1,1.6-0.3,2.3-0.6c0.1,0.1,0.1,0.2,0.1,0.2l0,0.2
		c0,0.2,0,0.4,0,0.6c0,0.1,0.1,0.1,0.1,0.1c0,0,0.1,0,0.1,0c0.6-0.6,1.4-0.9,2.3-1c0.7,0,1.4,0.4,1.8,1.1c0,0,0.1,0.1,0.1,0.1
		c0,0,0.1,0,0.1,0c0.7-0.6,1.5-1,2.4-1.1c1.4,0,2.2,1,2.2,2.8c0,0.5,0,1.1,0,1.7c0,0.5,0,1,0,1.4c0,0.2,0.1,0.3,0.3,0.4
		c0.3,0.1,0.6,0.2,0.9,0.2h0c0,0.2,0,0.4-0.1,0.6c-0.1,0-0.3,0-0.4,0c-0.4,0-0.8,0-1.1,0c-0.9,0-1.4,0-1.9,0c0-0.2,0-0.4,0-0.6
		c0.2,0,0.4-0.1,0.6-0.1c0.3-0.1,0.4-0.2,0.4-0.6c0-0.3,0.1-2.7,0-3.3c-0.1-0.8-0.8-1.3-1.5-1.3c-0.6,0-1.1,0.2-1.5,0.6
		c0,0-0.1,0.1-0.1,0.2v0c0.1,0.4,0.1,0.8,0.1,1.2v1c0,0.7,0,1.3,0,1.8c0,0.2,0.1,0.4,0.4,0.5c0.1,0,0.2,0,0.2,0
		c0.1,0,0.3,0.1,0.5,0.1c0,0.1,0,0.3,0,0.4c0,0.1,0,0.1-0.1,0.2c-0.5,0-1,0-1.8,0c-0.2,0-0.6,0-1,0c-0.3,0-0.5,0-0.7,0
		c0-0.1,0-0.2,0-0.3c0-0.1,0-0.2,0.1-0.3c0.1,0,0.1,0,0.2,0c0.2,0,0.3-0.1,0.5-0.1c0.3-0.1,0.3-0.2,0.4-0.5c0.1-1.2,0.1-2.3,0-3.5
		c-0.1-0.8-0.7-1.3-1.5-1.3c-0.6,0-1.1,0.2-1.5,0.6c-0.1,0.1-0.1,0.2-0.1,0.3v0.9c0,1.1,0,2.4,0,3c0,0.2,0.2,0.4,0.4,0.5
		c0.1,0,0.2,0,0.3,0.1l0.3,0c0,0.2,0,0.4,0,0.6c-0.2,0-0.3,0-0.5,0c-0.3,0-0.7,0-1.2,0c-0.5,0-0.9,0-1.2,0
		C-1405-1944.4-1405.1-1944.4-1405.3-1944.4L-1405.3-1944.4z"/>
	<path id="Path_225" class="st10" d="M-1413.3-1940.8l-0.6-0.2c0,0,0.1-3.2-1.1-3.4c-0.8-0.9,0.1-37.1,2.8-0.1
		c-0.5,0.3-0.9,0.7-1.1,1.3C-1413.3-1942.5-1413.3-1941.6-1413.3-1940.8z"/>
	<path id="Path_226" class="st11" d="M-1413.3-1940.8l-0.6-0.2c0,0,0.1-3.2-1.1-3.4c-0.8-0.9,0.1-37.1,2.8-0.1
		c-0.5,0.3-0.9,0.7-1.1,1.3C-1413.3-1942.5-1413.3-1941.6-1413.3-1940.8z"/>
	<path id="Path_227" class="st10" d="M-1412.9-1943.9c3.4-2.5,5-6.8,4.1-11c-1.2-5.4-4.1-7.2-4.4-7.8c-0.3-0.4-0.5-0.9-0.7-1.3
		l0.2,15C-1413.7-1949-1414.1-1944.4-1412.9-1943.9"/>
	<path id="Path_228" class="st12" d="M-1412.9-1943.9c3.4-2.5,5-6.8,4.1-11c-1.2-5.4-4.1-7.2-4.4-7.8c-0.3-0.4-0.5-0.9-0.7-1.3
		l0.2,15C-1413.7-1949-1414.1-1944.4-1412.9-1943.9"/>
	<path id="Path_229" class="st10" d="M-1414.2-1943.7c0,0-5.1-3.5-4.8-9.6c0.1-3.7,1.7-7.3,4.6-9.7c0.3-0.3,0.5-0.7,0.5-1.2
		c0.3,0.7,0.3,10.2,0.3,11.3C-1413.5-1948.5-1413.9-1944.5-1414.2-1943.7z"/>
	<path id="Path_230" class="st13" d="M-1414.2-1943.7c0,0-5.1-3.5-4.8-9.6c0.1-3.7,1.7-7.3,4.6-9.7c0.3-0.3,0.5-0.7,0.5-1.2
		c0.3,0.7,0.3,10.2,0.3,11.3C-1413.5-1948.5-1413.9-1944.5-1414.2-1943.7z"/>
</g>
<g id="css-5" transform="translate(1453.128 2050)">
	<path id="Path_243" class="st14" d="M-1391.8-1962.4h-2.9l3,3.3v1.5h-6.2v-1.8h3l-3-3.3v-1.5h6.1L-1391.8-1962.4z M-1399.1-1962.4
		h-2.9l3,3.3v1.5h-6.2v-1.8h3l-3-3.3v-1.5h6.1V-1962.4z M-1406.3-1962.4h-3.1v2.8h3.1v1.9h-5.3v-6.6h5.3L-1406.3-1962.4z"/>
	<path id="Path_244" class="st15" d="M-1415.8-1919.2l-3.2-35.4h34.7l-3.2,35.4l-14.2,3.9L-1415.8-1919.2z"/>
	<path id="Path_245" class="st16" d="M-1401.6-1918.2l11.5-3.2l2.7-30.3h-14.2V-1918.2z"/>
	<path id="Path_246" class="st0" d="M-1401.6-1938.9h5.8l0.4-4.5h-6.2v-4.3h10.9l-0.1,1.2l-1.1,12h-9.7V-1938.9z"/>
	<path id="Path_247" class="st17" d="M-1401.6-1927.6L-1401.6-1927.6l-4.9-1.3l-0.3-3.5h-4.4l0.6,6.8l8.9,2.5h0L-1401.6-1927.6
		L-1401.6-1927.6z"/>
	<path id="Path_248" class="st0" d="M-1396.2-1934.7l-0.5,5.8l-4.8,1.3v4.5l8.9-2.5l0.1-0.7l0.8-8.5L-1396.2-1934.7L-1396.2-1934.7z
		"/>
	<path id="Path_249" class="st17" d="M-1401.6-1947.7v4.3h-10.5l-0.1-1l-0.2-2.2l-0.1-1.2L-1401.6-1947.7z M-1401.6-1938.9v4.3h-4.8
		l-0.1-1l-0.2-2.2l-0.1-1.2L-1401.6-1938.9L-1401.6-1938.9z"/>
</g>
<path id="Path_927" class="st18" d="M101,106.4l4.1-2.5c0.8,1.4,1.5,2.6,3.2,2.6c1.7,0,2.7-0.6,2.7-3.2V86.2h5v17.2
	c0,5.2-3.1,7.6-7.5,7.6C105.3,111.2,102.3,109.3,101,106.4 M118.8,105.8l4.1-2.4c0.9,1.9,2.9,3.1,5,3.1c2.1,0,3.4-1,3.4-2.5
	c0-1.7-1.4-2.3-3.7-3.3l-1.3-0.5c-3.6-1.5-6.1-3.5-6.1-7.6c0-3.8,2.9-6.7,7.4-6.7c3-0.2,5.8,1.4,7.2,4l-3.9,2.5
	c-0.9-1.5-1.8-2.2-3.2-2.2c-1.2-0.1-2.3,0.8-2.4,2c0,0.1,0,0.1,0,0.2c0,1.5,0.9,2.1,3.1,3.1l1.3,0.5c4.3,1.8,6.7,3.7,6.7,7.9
	c0,4.5-3.6,7-8.4,7C123.3,111,120.3,108.8,118.8,105.8"/>
<g id="html-5" transform="translate(1587.555 2035)">
	<path id="Path_238" class="st19" d="M-1386.3-1955.3l-2.9,32.9l-13.2,3.7l-13.2-3.7l-2.9-32.9H-1386.3z"/>
	<path id="Path_239" class="st20" d="M-1402.4-1921.6l10.7-3l2.5-28.1h-13.2V-1921.6z"/>
	<path id="Path_240" class="st17" d="M-1408.2-1944.6h5.7v-4h-10.1l0.1,1.1l1,11.1h9v-4h-5.3L-1408.2-1944.6z M-1407.2-1934.4h-4
		l0.6,6.3l8.3,2.3l0,0v-4.2h0l-4.5-1.2L-1407.2-1934.4z"/>
	<path id="Path_241" d="M-1415.6-1964.3h2v2h1.9v-2h2v6.1h-2v-2.1h-1.9v2.1h-2V-1964.3z M-1406.9-1962.2h-1.8v-2h5.7v2h-1.8v4.1
		h-2.1L-1406.9-1962.2L-1406.9-1962.2L-1406.9-1962.2z M-1402.1-1964.3h2.1l1.3,2.2l1.3-2.2h2.1v6.1h-2v-3l-1.4,2.2h0l-1.4-2.2v3h-2
		V-1964.3z M-1394.2-1964.3h2v4.1h2.9v2h-4.9L-1394.2-1964.3L-1394.2-1964.3z"/>
	<path id="Path_242" class="st0" d="M-1402.5-1936.4h5l-0.5,5.2l-4.5,1.2v4.2l8.3-2.3l0.1-0.7l0.9-10.6l0.1-1.1h-9.4V-1936.4z
		 M-1402.5-1944.6L-1402.5-1944.6l9.7,0l0.1-0.9l0.2-2l0.1-1.1h-10.1L-1402.5-1944.6L-1402.5-1944.6z"/>
</g>
<g id="github-logo" transform="translate(1649 2074.635)">
	<path id="Path_854" d="M-1384.5-1949.7c-1.6-2.8-3.9-5.1-6.7-6.7c-2.8-1.6-6-2.5-9.3-2.5c-3.3,0-6.5,0.8-9.3,2.5
		c-2.8,1.6-5.1,3.9-6.7,6.7c-1.6,2.8-2.5,6-2.5,9.3c0,3.9,1.2,7.7,3.5,10.9c2.2,3.1,5.4,5.5,9.1,6.7c0.3,0.1,0.7,0,1-0.2
		c0.2-0.2,0.3-0.4,0.3-0.7c0,0,0-0.5,0-1.3c0-0.8,0-1.5,0-2.1l-0.6,0.1c-0.4,0.1-0.9,0.1-1.3,0.1c-0.6,0-1.1-0.1-1.7-0.2
		c-0.6-0.1-1.1-0.4-1.6-0.7c-0.5-0.4-0.9-0.9-1.1-1.5l-0.2-0.6c-0.2-0.4-0.5-0.9-0.8-1.2c-0.3-0.4-0.6-0.7-1-0.9l-0.2-0.1
		c-0.1-0.1-0.2-0.2-0.3-0.3c-0.1-0.1-0.2-0.2-0.2-0.3c0-0.1,0-0.2,0.1-0.3c0.2-0.1,0.5-0.1,0.7-0.1l0.5,0.1c0.4,0.1,0.8,0.3,1.2,0.6
		c0.5,0.3,0.9,0.8,1.2,1.3c0.3,0.6,0.8,1.1,1.3,1.5c0.5,0.3,1,0.5,1.6,0.5c0.5,0,0.9,0,1.4-0.1c0.4-0.1,0.7-0.2,1.1-0.4
		c0.1-0.9,0.5-1.8,1.2-2.5c-0.8-0.1-1.7-0.2-2.5-0.4c-0.8-0.2-1.6-0.5-2.3-0.9c-0.7-0.4-1.4-1-1.9-1.6c-0.6-0.8-1-1.6-1.3-2.5
		c-0.3-1.2-0.5-2.4-0.5-3.6c0-1.8,0.6-3.6,1.9-5c-0.6-1.6-0.5-3.4,0.2-4.9c0.7-0.1,1.4,0,2.1,0.3c0.7,0.3,1.4,0.6,2,0.9
		c0.4,0.3,0.8,0.5,1,0.7c3-0.8,6.2-0.8,9.2,0l0.9-0.6c0.7-0.4,1.4-0.8,2.2-1.1c0.6-0.3,1.3-0.4,2-0.3c0.7,1.5,0.8,3.3,0.2,4.9
		c1.3,1.3,1.9,3.1,1.9,5c0,1.2-0.1,2.4-0.5,3.6c-0.3,0.9-0.7,1.8-1.3,2.5c-0.5,0.7-1.2,1.2-2,1.6c-0.7,0.4-1.5,0.7-2.3,0.9
		c-0.8,0.2-1.6,0.4-2.5,0.4c0.9,0.9,1.4,2.2,1.3,3.4v5.1c0,0.3,0.1,0.5,0.3,0.7c0.3,0.2,0.6,0.3,1,0.2c3.7-1.2,6.9-3.5,9.1-6.7
		c2.3-3.1,3.6-7,3.5-10.9C-1382-1943.7-1382.8-1946.9-1384.5-1949.7z"/>
</g>
<path class="st21" d="M237.5,88.8c0,2.9,2.3,5.2,5.2,5.2h30.1c2.9,0,5.2-2.3,5.2-5.2V58.6c0-2.9-2.3-5.2-5.2-5.2h-30.1
	c-2.9,0-5.2,2.3-5.2,5.2V88.8L237.5,88.8z"/>
<path class="st0" d="M254.4,71.4v-5.7h5.1c0.5,0,0.9,0,1.4,0.1c0.4,0.1,0.8,0.2,1.2,0.4c0.3,0.2,0.6,0.5,0.8,0.9
	c0.2,0.4,0.3,0.8,0.3,1.4c0,1-0.3,1.8-0.9,2.2c-0.6,0.5-1.4,0.7-2.4,0.7L254.4,71.4L254.4,71.4z M249,61.4V86h11.9
	c1.1,0,2.2-0.1,3.2-0.4s2-0.7,2.8-1.3c0.8-0.6,1.5-1.3,1.9-2.2c0.5-0.9,0.7-2,0.7-3.2c0-1.5-0.4-2.9-1.1-3.9
	c-0.7-1.1-1.9-1.9-3.4-2.3c1.1-0.5,1.9-1.2,2.5-2c0.6-0.8,0.8-1.9,0.8-3.1c0-1.1-0.2-2.1-0.6-2.9c-0.4-0.8-0.9-1.4-1.6-1.9
	c-0.7-0.5-1.5-0.8-2.5-1c-1-0.2-2-0.3-3.2-0.3L249,61.4L249,61.4z M254.4,81.8v-6.7h5.9c1.2,0,2.1,0.3,2.8,0.8
	c0.7,0.5,1.1,1.4,1.1,2.7c0,0.6-0.1,1.2-0.3,1.6c-0.2,0.4-0.5,0.7-0.9,1c-0.4,0.2-0.8,0.4-1.3,0.5c-0.5,0.1-1,0.2-1.5,0.2H254.4
	L254.4,81.8z"/>
</svg>
