<svg xmlns="http://www.w3.org/2000/svg" width="151.027" height="175.5" viewBox="0 0 151.027 175.5">
  <g id="girl-sitting-on-books-with-laptop-by-oblik-studio" transform="translate(0 0.009)">
    <path id="Path_296" data-name="Path 296" d="M189.5,103.654,266.9,65.5l18.252,69.13-87.9-3.177Z" transform="translate(-172.871 -59.76)" fill="#ebdbcd"/>
    <path id="Path_297" data-name="Path 297" d="M777.439,275.444l-2.992,22.245a.659.659,0,0,0,.377.684,15.477,15.477,0,0,0,5.169,1.292,25.313,25.313,0,0,0,6.967-.965.661.661,0,0,0,.439-.834h0l-8.714-22.587a.646.646,0,0,0-1.247.164Z" transform="translate(-706.484 -250.75)" fill="#110580"/>
    <circle id="Ellipse_40" data-name="Ellipse 40" cx="13.066" cy="13.066" r="13.066" transform="translate(67.901 17.858)" fill="#fcb58a"/>
    <rect id="Rectangle_1166" data-name="Rectangle 1166" width="17.874" height="13.522" transform="translate(43.515 131.503)" fill="#f8d7bc"/>
    <path id="Path_298" data-name="Path 298" d="M475.8,1486.9v1.034h19.656v13.522H475.8v1.027h75.588V1486.9Z" transform="translate(-434.048 -1356.432)" fill="#4e53ba"/>
    <path id="Path_299" data-name="Path 299" d="M389.687,1345.412c.439,2.764.982,5.511,1.65,8.24,1.158,4.807,8.555,2.764,7.406-2.045-.667-2.729-1.194-5.476-1.65-8.24-.325-2.044-2.878-3.185-4.712-2.685-2.2.623-3.018,2.685-2.694,4.73Z" transform="translate(-355.43 -1222.938)" fill="#e3996d"/>
    <path id="Path_300" data-name="Path 300" d="M1579.975,992.149l-13.329,7.722L1566.4,984.1Z" transform="translate(-1428.948 -897.755)" fill="#2b31ba"/>
    <path id="Path_301" data-name="Path 301" d="M323.88,860.989a.593.593,0,0,0-.228-.079c-1.272-.21-11.039-1.9-21.192-3.844-4.528-.869-17.708-4.6-24.6-1.913s-8.257,6.72-8.863,9.564c-.526,2.554.395,11.25,2.65,20.068,2.009,7.9,6.915,17.892,7.933,19.919a.734.734,0,0,0,.623.414,10.359,10.359,0,0,0,3.519-.474,21.18,21.18,0,0,0,3.677-1.632.749.749,0,0,0,.377-.641c.035-2.194.21-12.458-.052-19.673-.263-7-2.667-9.319-2.667-9.319s8.292,9.2,16.76,11.723c6.7,1.992,20.753,6.4,26.562,6.23,6.739-.193,11.61-3.027,13.785-6.458,4.036-6.344,1.536-15.734.886-17.8a.713.713,0,0,0-.553-.509c-2.211-.526-12.741-3.045-15.47-4.187C324.81,861.446,324.108,861.1,323.88,860.989Z" transform="translate(-245.264 -779.249)" fill="#ff8a91"/>
    <path id="Path_302" data-name="Path 302" d="M913.853,849.743a30.671,30.671,0,0,0,.018,4.221,37.34,37.34,0,0,0,.553,4.414s-10.091-1.632-13.917-3.106c-4.826-1.878-5.607-2.632-5.607-2.632a22.223,22.223,0,0,0,1.228-3.484,36.7,36.7,0,0,0,.377-4.054,57.9,57.9,0,0,0,8.88,3.352A70.992,70.992,0,0,0,913.853,849.743Z" transform="translate(-816.372 -770.951)" fill="#fcb58a"/>
    <circle id="Ellipse_41" data-name="Ellipse 41" cx="9.732" cy="9.732" r="9.732" transform="translate(0 3.222)" fill="#4e53ba"/>
    <path id="Path_303" data-name="Path 303" d="M357.8,1701.85H298V1680h59.775a5.393,5.393,0,0,1,5.4,5.4v11.074a5.366,5.366,0,0,1-5.37,5.379Z" transform="translate(-271.85 -1532.588)" fill="#f8ece2"/>
    <path id="Path_304" data-name="Path 304" d="M359.017,1664.5H261.193a.685.685,0,0,0-.684.684h0a.686.686,0,0,0,.684.685h56.843a10.921,10.921,0,0,1,10.925,10.925h0a10.92,10.92,0,0,1-10.925,10.925H261.184a.686.686,0,0,0-.684.684h0a.685.685,0,0,0,.684.684h97.841a10.92,10.92,0,0,0,10.925-10.925v-2.712a10.933,10.933,0,0,0-10.933-10.951Z" transform="translate(-237.641 -1518.448)" fill="#ff5856"/>
    <path id="Path_305" data-name="Path 305" d="M354.353,1726.055H298v-.755h56.353a.375.375,0,0,1,.377.377h0a.374.374,0,0,1-.377.377Z" transform="translate(-271.85 -1573.913)" fill="#ebd0be"/>
    <path id="Path_306" data-name="Path 306" d="M508.887,1608.255H495.9v-.755h12.987a.375.375,0,0,1,.377.377h0a.374.374,0,0,1-.377.377Z" transform="translate(-452.385 -1466.449)" fill="#e0c1a6"/>
    <path id="Path_307" data-name="Path 307" d="M505.825,1559.755H495.9V1559h9.907a.375.375,0,0,1,.377.377h0a.362.362,0,0,1-.359.377Z" transform="translate(-452.385 -1422.206)" fill="#e0c1a6"/>
    <path id="Path_308" data-name="Path 308" d="M358.442,1822.955H298v-.755h60.442a.375.375,0,0,1,.377.377h0a.375.375,0,0,1-.377.377Z" transform="translate(-271.85 -1662.31)" fill="#ebd0be"/>
    <path id="Path_309" data-name="Path 309" d="M351,1876.755H298V1876h53a.375.375,0,0,1,.377.377h0A.38.38,0,0,1,351,1876.755Z" transform="translate(-271.85 -1711.389)" fill="#ebd0be"/>
    <path id="Path_310" data-name="Path 310" d="M356.626,1775.555H298v-.754h58.626a.374.374,0,0,1,.377.377h0a.369.369,0,0,1-.377.377Z" transform="translate(-271.85 -1619.069)" fill="#ebd0be"/>
    <path id="Path_311" data-name="Path 311" d="M653.982,1388.308H631V1380.2h22.991a1.137,1.137,0,0,1,1.132,1.132v5.835a1.133,1.133,0,0,1-1.141,1.141Z" transform="translate(-575.63 -1259.095)" fill="#f8d0b3"/>
    <path id="Path_312" data-name="Path 312" d="M669.236,1366.2H602.923a.623.623,0,0,0,0,1.246h23.745a2.285,2.285,0,0,1,2.275,2.275v3.545a2.285,2.285,0,0,1-2.275,2.275H603.055a.623.623,0,1,0,0,1.246h66.181a2.284,2.284,0,0,0,2.275-2.275v-6.063A2.268,2.268,0,0,0,669.236,1366.2Z" transform="translate(-549.448 -1246.324)" fill="#ff7a82"/>
    <path id="Path_313" data-name="Path 313" d="M416.8,716.635c6.783-3.045,14.619,1.044,21.376,2.194,6.625,1.132,13.882.246,18.48-5.169a3.079,3.079,0,0,0,0-4.239,3.012,3.012,0,0,0-4.239,0c-4.335,5.089-11.056,4.168-16.874,2.685-7.292-1.878-14.523-3.905-21.753-.667a3,3,0,0,0,3.01,5.192Z" transform="translate(-376.15 -646.381)" fill="#f0a173"/>
    <path id="Path_314" data-name="Path 314" d="M449.957,752.76c7.362-2.4,14.637,2.352,21.525,4.37,6.59,1.93,13.917,1.632,19.068-3.369,2.782-2.685-1.474-6.95-4.239-4.239-4.642,4.51-11.434,2.615-16.778.623-6.8-2.519-13.865-5.563-21.165-3.185-3.659,1.2-2.088,7.011,1.588,5.8Z" transform="translate(-407.126 -680.636)" fill="#fcb58a"/>
    <path id="Path_315" data-name="Path 315" d="M843.9,265.3Z" transform="translate(-769.848 -242.028)" fill="#001d80"/>
    <path id="Path_316" data-name="Path 316" d="M822.355,559.644c.641.193,6.38,2.5,8.538,10.188a182.633,182.633,0,0,1,3.764,18.84,1.126,1.126,0,0,1-.886,1.272,36.848,36.848,0,0,1-10.109.457A38.679,38.679,0,0,1,813,588.049l.167-1.474-.588.263a1.047,1.047,0,0,1-1.292-.325l-4.239-5.642a.753.753,0,0,1,.246-1.115l.052-.035-3.431-4.124a.959.959,0,0,1,.079-1.325,56.937,56.937,0,0,0,5.722-6.38c1.36-1.852,3.159-5.23,4.282-6.529C816.242,558.714,820.673,559.153,822.355,559.644Z" transform="translate(-733.168 -510.205)" fill="#fff"/>
    <path id="Path_317" data-name="Path 317" d="M892.536,478.693l-4.187-10.732L880.4,467.9l4.168,10.741Z" transform="translate(-803.145 -426.849)" fill="#fcb58a"/>
    <path id="Path_318" data-name="Path 318" d="M927.253,592.523c1.194.281,2.8-.851,4.151-1.457a14.6,14.6,0,0,1,3.124-.912l-7.95-.052C926.568,590.119,926,592.233,927.253,592.523Z" transform="translate(-845.145 -538.327)" fill="#fcb58a"/>
    <path id="Path_319" data-name="Path 319" d="M839.86,716.7a20.916,20.916,0,0,1-1.588,3.334,22.481,22.481,0,0,1-3.545,3.29L833.7,722.1a15.268,15.268,0,0,0,3.257-2.275C837.947,718.894,839.86,716.7,839.86,716.7Z" transform="translate(-760.543 -653.817)" fill="#e0e0e0"/>
    <path id="Path_320" data-name="Path 320" d="M910.149,805.63a20.206,20.206,0,0,0,3.563-2.65,34.528,34.528,0,0,0,2.632-3.58s-1.685,3.65-2.519,5.23a16.641,16.641,0,0,1-2.045,3.124L910,807.131a6.334,6.334,0,0,1,.079-.7C910.114,806.06,910.149,805.63,910.149,805.63Z" transform="translate(-830.147 -729.26)" fill="#e0e0e0"/>
    <path id="Path_321" data-name="Path 321" d="M376.224,737.642a23.316,23.316,0,0,1,5.449-2.536c1.606-.492.931-3.071-.7-2.571a25.135,25.135,0,0,0-6.081,2.8c-1.413.9-.1,3.212,1.334,2.308Z" transform="translate(-341.44 -668.204)" fill="#f0a173"/>
    <circle id="Ellipse_42" data-name="Ellipse 42" cx="4.923" cy="4.923" r="4.923" transform="matrix(0.316, -0.949, 0.949, 0.316, 88.47, 19.658)" fill="#110580"/>
    <path id="Path_322" data-name="Path 322" d="M821.05,265.735a6.023,6.023,0,0,0,1.964.492c-.167-.912-.342-1.878-.342-1.948A11.055,11.055,0,0,1,818.881,262c-2.275-2.275-1.132-4.546-3.027-6.441a10.508,10.508,0,0,0-4.221-2.466c-.018.018-.035.018-.035.035h0a10.664,10.664,0,0,1,4.036,3.141c1.606,2.141.149,4.239,2.08,6.818A6.644,6.644,0,0,0,821.05,265.735Z" transform="translate(-740.381 -230.897)" fill="#e3996d"/>
    <path id="Path_323" data-name="Path 323" d="M899.95,490.1a12.915,12.915,0,0,1-4.984.982,12.671,12.671,0,0,1-2.667-.281l1.114,2.861a8.921,8.921,0,0,0,.948-.167,12.579,12.579,0,0,0,5.738-3.045Z" transform="translate(-814 -447.102)" fill="#e3996d"/>
    <path id="Path_324" data-name="Path 324" d="M909.312,414.825a4.712,4.712,0,1,1,4.712-4.712A4.712,4.712,0,0,1,909.312,414.825Zm0-8.652a3.94,3.94,0,1,0,3.94,3.94,3.94,3.94,0,0,0-3.94-3.94Z" transform="translate(-825.221 -369.834)" fill="#fff"/>
    <path id="Path_325" data-name="Path 325" d="M837.526,231.323a1.029,1.029,0,0,0,.64-1.307L831.9,211.062a13.272,13.272,0,0,0-22.7-5.2h0a10.429,10.429,0,0,1,4.431,2.536c1.9,1.9.755,4.168,3.027,6.441a11.055,11.055,0,0,0,3.791,2.275c0,.228,1.115,5.95,2.009,10.381.193.965.377,2.106.526,2.975a1.286,1.286,0,0,0,.755.931,18.39,18.39,0,0,0,7.767,1.272A26.5,26.5,0,0,0,837.526,231.323Z" transform="translate(-738.193 -183.735)" fill="#110580"/>
    <path id="Path_326" data-name="Path 326" d="M900.891,923.059s.912,3.712.623,3.712c-.281-.018-11.25-2.176-14.084-2.8-6.265-1.344-7.231-5.607-7.231-5.607a2.025,2.025,0,0,0,1.027-.413c.526-.4.72-.553.72-.553s.886,2.194,6.344,3.791A40.486,40.486,0,0,0,900.891,923.059Z" transform="translate(-802.963 -836.905)" fill="#ffadb2"/>
    <path id="Path_327" data-name="Path 327" d="M289.279,1447.985a30.539,30.539,0,0,0,3.764-.245,20.456,20.456,0,0,0,3.712-1.439s1.439,3.186,1.852,4.01,2.194,2.931,2.422,4.3.281,4.431-5,4.905c-2.439.21-4.756,5.186-7.424,5.546-1.325.193-7.59.869-9.372-.1-1.764-.965-1.211-3.581,3.089-5s3.484-2.843,4.51-4.677A50.455,50.455,0,0,0,289.279,1447.985Z" transform="translate(-253.872 -1319.395)" fill="#ab534d"/>
    <path id="Path_328" data-name="Path 328" d="M224.918,1369.844c-.377,3.089-.737,6.152-1.115,9.24-.246,2.062,1.948,3.844,3.844,3.844,2.275,0,3.58-1.781,3.843-3.844.377-3.089.737-6.152,1.115-9.24.246-2.062-1.948-3.844-3.843-3.844C226.471,1366.018,225.163,1367.781,224.918,1369.844Z" transform="translate(-204.148 -1246.141)" fill="#fcb58a"/>
    <path id="Path_329" data-name="Path 329" d="M277.077,885.66a17.849,17.849,0,0,0,14.584-4.773c3.877-3.764,3.65-10.109,3.431-12.671-.167-2.027-.851-5.3-1.115-6.59a.806.806,0,0,0-.641-.623c-1.992-.362-8.915-1.606-10.986-2.255-1.685-.526-3.185-1.1-3.923-1.4a.807.807,0,0,0-.834.149,5.8,5.8,0,0,1-4.581,1.36c-3.334-.342-17.99-4.87-23.762-6.643s-15.47-6.081-24.447-3.106c-5.722,1.9-10.021,7.362-10.126,18.858-.079,8.915-.1,20.34.052,24.631.114,3.387-.018,6.967-.079,8.328a.816.816,0,0,0,.509.8,20.758,20.758,0,0,0,3.124.886,18.094,18.094,0,0,0,5.169.132.794.794,0,0,0,.684-.553c.553-1.632,2.352-7.047,3.975-11.592,4.071-11.381,4.414-17.5,4.221-20.262a.805.805,0,0,1,1.272-.72,98.554,98.554,0,0,0,14.944,8.555C257.422,882.194,270.163,884.958,277.077,885.66Z" transform="translate(-195.786 -773.672)" fill="#ffadb2"/>
    <path id="Path_330" data-name="Path 330" d="M332.718,972.137a15.082,15.082,0,0,1-4.107,10.942,11.489,11.489,0,0,1-4.677,2.843,14.706,14.706,0,0,1-6.514.193c-8.082-1.292-15.488-5.019-22.8-8.5a120.7,120.7,0,0,0-11.206-4.87c-.965-.342-1.93-.684-2.895-.965a8.27,8.27,0,0,0-3.317-.492,5.859,5.859,0,0,0-4.168,2.914,16.41,16.41,0,0,0-1.9,5.283,47.828,47.828,0,0,0-.931,6.1c-.281,2.957-.362,5.906-.623,8.862-.553,5.87-1.211,11.776-2.255,17.594-.079.474-.167.93-.263,1.386-.132.641.851.931.982.263.509-2.422.851-4.888,1.176-7.345.439-3.185.816-6.38,1.158-9.582.281-2.685.474-5.362.623-8.064a44.018,44.018,0,0,1,1.948-11.925,6.9,6.9,0,0,1,3.089-4.124c1.9-.965,4.187.035,6.02.684a101.843,101.843,0,0,1,11.321,4.808c7.327,3.484,14.7,7.292,22.762,8.784a19.677,19.677,0,0,0,6.643.325,11.891,11.891,0,0,0,5.054-2.176,14.916,14.916,0,0,0,5.723-9.907,18.571,18.571,0,0,0,.21-3.045.532.532,0,0,0-1.062.018Z" transform="translate(-243.625 -886.035)" fill="#fff"/>
    <path id="Path_331" data-name="Path 331" d="M369.246,760.867c1.7-1.65,3.94-2.238,6.213-2.667,1.606-.325,1.044-2.826-.588-2.5-2.685.526-5.344,1.344-7.362,3.291-1.176,1.141.544,3.036,1.737,1.878Z" transform="translate(-334.9 -689.368)" fill="#fcb58a"/>
    <path id="Path_332" data-name="Path 332" d="M411.343,755.961l-5.528,1.36a1.506,1.506,0,0,1-1.834-1.115l-.869-3.5a1.506,1.506,0,0,1,1.115-1.834l5.526-1.36a1.506,1.506,0,0,1,1.834,1.115l.868,3.5a1.513,1.513,0,0,1-1.112,1.834Z" transform="translate(-367.695 -683.707)" fill="#fcb58a"/>
    <path id="Path_333" data-name="Path 333" d="M634.106,1278.884H596.9V1271.1h37.206a1.906,1.906,0,0,1,1.913,1.913v3.94A1.927,1.927,0,0,1,634.106,1278.884Z" transform="translate(-544.522 -1159.568)" fill="#f8e7d8"/>
    <path id="Path_334" data-name="Path 334" d="M637.759,1264.2H575.781a.289.289,0,0,0-.281.281h0a.289.289,0,0,0,.281.281h36.75a3.9,3.9,0,0,1,3.9,3.905h0a3.9,3.9,0,0,1-3.9,3.905h-36.75a.289.289,0,0,0-.281.281h0a.289.289,0,0,0,.281.281h61.978a3.9,3.9,0,0,0,3.905-3.905V1268.1a3.895,3.895,0,0,0-3.905-3.9Z" transform="translate(-525 -1153.274)" fill="#2b31ba"/>
    <path id="Path_335" data-name="Path 335" d="M76.589,1507.846c.931,1.878,5.59,2.711,10.4-.737,7.274-5.2,11.627-3.615,11.627-7.968a23.424,23.424,0,0,0-.912-5.809,29.174,29.174,0,0,1-.456-5.414,24.957,24.957,0,0,1-5.23.052,8.912,8.912,0,0,1-2.352-.772,21.433,21.433,0,0,1-2.124,5.756,16.987,16.987,0,0,1-3.9,5.133C82.46,1499.158,75.036,1504.739,76.589,1507.846Z" transform="translate(-69.675 -1356.705)" fill="#c7645d"/>
    <path id="Path_336" data-name="Path 336" d="M625.19,1336.362H596.9V1336h28.29a.2.2,0,0,1,.193.193h0A.207.207,0,0,1,625.19,1336.362Z" transform="translate(-544.522 -1218.774)" fill="#debca7"/>
    <path id="Path_337" data-name="Path 337" d="M628.271,1292.762H596.9v-.362h31.353a.194.194,0,0,1,.193.193h0a.181.181,0,0,1-.175.169Z" transform="translate(-544.522 -1179)" fill="#debca7"/>
    <path id="Path_338" data-name="Path 338" d="M631.719,1313.762H596.9v-.362h34.819a.194.194,0,0,1,.193.193h0a.207.207,0,0,1-.193.169Z" transform="translate(-544.522 -1198.157)" fill="#debca7"/>
    <g id="Group_953" data-name="Group 953" transform="translate(118.487 -0.009)">
      <path id="Path_339" data-name="Path 339" d="M1350.379,2.16c2.571,2.667,4.036,5.607,5.643,8.9.456.912,3.221-.912,3.01-1.8a19.6,19.6,0,0,0-5.738-9.091c-.834-.79-3.6,1.292-2.913,1.992Z" transform="translate(-1350.271 0.009)" fill="#f3e9e1"/>
      <path id="Path_340" data-name="Path 340" d="M1515.773,2.462a55,55,0,0,1-1.386,9.486c-.281,1.4,2.4-.246,2.685-.965a27.287,27.287,0,0,0,1.492-9.977c-.009-.982-2.773.474-2.792,1.457Z" transform="translate(-1499.967 -0.619)" fill="#f3e9e1"/>
      <path id="Path_341" data-name="Path 341" d="M1582.326,115.048c2.009-.982,4.054-1.948,6.1-2.861.737-.325,1.7-1.194,1.492-2.106s-1.36-.834-2.027-.553c-2.045.931-4.072,1.878-6.1,2.861-.72.362-1.7,1.176-1.492,2.106C1580.51,115.408,1581.685,115.374,1582.326,115.048Z" transform="translate(-1560.088 -99.744)" fill="#f3e9e1"/>
    </g>
    <path id="Path_342" data-name="Path 342" d="M660.108,1822.2h-8.784a5.474,5.474,0,0,0-2.632,2.729c-1.492,2.8-.965,5.511-1.93,7.59a7.443,7.443,0,0,1-2.861,3.334,14.812,14.812,0,0,0,3.124.1,7.042,7.042,0,0,0,2.369-1.044,4.159,4.159,0,0,1,.307,1.4,6.3,6.3,0,0,1-.018,1.492s3.221-.755,4.528-2.615c1.817-2.571.307-5.738,2.65-9.635A14.347,14.347,0,0,1,660.108,1822.2Z" transform="translate(-587.398 -1662.31)" fill="#bfa990"/>
    <g id="Group_955" data-name="Group 955" transform="translate(119.207 13.736)">
      <ellipse id="Ellipse_43" data-name="Ellipse 43" cx="1.492" cy="3.923" rx="1.492" ry="3.923" transform="translate(0.243 18.169) rotate(-64.685)" fill="#d4bfa9"/>
      <g id="Group_954" data-name="Group 954" transform="translate(1.546 0)">
        <path id="Path_343" data-name="Path 343" d="M1376.1,172.191a13.913,13.913,0,0,0,1.457-4.107c.509-3.124-.439-6.7,1.457-9.222,1.36-1.817,3.877-2.439,6.134-2.194a8.9,8.9,0,0,1,6.783,4.265,6.719,6.719,0,0,1-.8,7.722c-1.606,1.685-4.071,2.275-5.774,3.861a15.306,15.306,0,0,0-2.29,3.159l-.228.342C1377.5,175.622,1376.1,172.191,1376.1,172.191Z" transform="translate(-1376.1 -156.617)" fill="#ebdbcd"/>
      </g>
      <path id="Path_344" data-name="Path 344" d="M1410.145,258.21c-.246-.816-.948-.737-1.588-.457-.167-.439-.439-1.027-.912-1.194-.527-.193-1.115.193-1.518.509a6.592,6.592,0,0,0-1.913,2.826c-.377,1.062-.552,2.194-.886,3.257-.132.439.553.605.684.167a21.549,21.549,0,0,1,1.272-4.107,4.52,4.52,0,0,1,1.7-1.878c.246-.114.414-.149.588.1a2.82,2.82,0,0,1,.307.605c0,.018.018.035.018.052a2.668,2.668,0,0,0-.246.167,3.66,3.66,0,0,0-1.606,2.554.827.827,0,0,0,.772.834,1.819,1.819,0,0,0,1.307-.772,3.117,3.117,0,0,0,.588-2.5,1.143,1.143,0,0,1,.474-.167c.439-.035.263.684.21.93a8.6,8.6,0,0,1-1.062,2.238,13.25,13.25,0,0,1-1,1.57,8.293,8.293,0,0,1-1.571,1.307c-.377.246,0,.851.377.605a7.472,7.472,0,0,0,1.817-1.536,20.044,20.044,0,0,0,1.36-2.176C1409.785,260.369,1410.443,259.175,1410.145,258.21Zm-2.089,1.281a2.154,2.154,0,0,1-.492,1.027c-.149.167-.816.755-.772.228a2.118,2.118,0,0,1,.439-.931,4.279,4.279,0,0,1,.851-.931,1.993,1.993,0,0,1-.026.607Z" transform="translate(-1399.376 -247.744)" fill="#bfa990"/>
      <path id="Path_345" data-name="Path 345" d="M1362.253,353.982c-1.764-.834-2.975-2.009-2.957-2.782h0l-.772,3.124c-.281.605.755,1.7,2.352,2.439,1.57.737,3.089.869,3.369.263.018-.035.018-.052.035-.1h0l2.009-2.439h0C1365.7,355,1364.016,354.816,1362.253,353.982Z" transform="translate(-1358.477 -334.126)" fill="#bfa990"/>
    </g>
    <path id="Path_346" data-name="Path 346" d="M169.791,511.63h0a1.2,1.2,0,0,1-1.457-.816l-8.257-29.581a1.2,1.2,0,0,1,.816-1.457h0a1.2,1.2,0,0,1,1.457.816l8.257,29.581a1.146,1.146,0,0,1-.816,1.457Z" transform="translate(-145.993 -437.647)" fill="#c5c6e3"/>
    <path id="Path_347" data-name="Path 347" d="M254.182,817.988h0a1.18,1.18,0,0,1,1.246-1.115l30.66,1.8a1.18,1.18,0,0,1,1.115,1.246h0a1.18,1.18,0,0,1-1.246,1.115l-30.66-1.8A1.186,1.186,0,0,1,254.182,817.988Z" transform="translate(-231.876 -745.198)" fill="#c5c6e3"/>
    <g id="Group_956" data-name="Group 956" transform="translate(123.007 72.692)">
      <path id="Path_348" data-name="Path 348" d="M1610.312,1041.3l-1.344-.362a.159.159,0,1,1,.079-.307l1.044.281.281-1.044a.159.159,0,1,1,.307.079Z" transform="translate(-1590.681 -1021.211)" fill="#ebdbcd"/>
      <path id="Path_349" data-name="Path 349" d="M1455.607,1008.451h-.034l-2.422-.667a.159.159,0,1,1,.079-.307l2.422.667a.168.168,0,0,1,.114.193A.152.152,0,0,1,1455.607,1008.451Zm-4.844-1.307h-.035l-2.422-.667a.159.159,0,1,1,.079-.307l2.422.667a.168.168,0,0,1,.114.193.155.155,0,0,1-.158.114Zm-4.835-1.307h-.035l-2.422-.667a.159.159,0,1,1,.079-.307l2.422.667a.168.168,0,0,1,.114.193.182.182,0,0,1-.158.114Z" transform="translate(-1439.705 -989.382)" fill="#ebdbcd"/>
      <path id="Path_350" data-name="Path 350" d="M1403.176,982.17h-.035l-1.344-.362.362-1.344a.159.159,0,1,1,.307.079l-.281,1.044,1.044.281a.168.168,0,0,1,.114.193.213.213,0,0,1-.167.109Z" transform="translate(-1401.797 -967.023)" fill="#ebdbcd"/>
      <path id="Path_351" data-name="Path 351" d="M1413.313,877.612h-.035a.168.168,0,0,1-.114-.193L1413.8,875a.159.159,0,0,1,.307.079l-.641,2.422A.151.151,0,0,1,1413.313,877.612Zm1.307-4.826h-.035a.168.168,0,0,1-.114-.193l.641-2.422a.159.159,0,1,1,.307.079l-.641,2.422a.172.172,0,0,1-.157.114Z" transform="translate(-1412.163 -866.406)" fill="#ebdbcd"/>
      <path id="Path_352" data-name="Path 352" d="M1443.113,830.035h-.035a.168.168,0,0,1-.114-.193l.362-1.344,1.344.362a.159.159,0,1,1-.079.307l-1.044-.281-.281,1.044A.146.146,0,0,1,1443.113,830.035Z" transform="translate(-1439.347 -828.498)" fill="#ebdbcd"/>
      <path id="Path_353" data-name="Path 353" d="M1500.139,843.355h-.035l-2.422-.667a.159.159,0,1,1,.079-.307l2.422.667a.168.168,0,0,1,.114.193A.173.173,0,0,1,1500.139,843.355Zm-4.853-1.307h-.035l-2.422-.667a.159.159,0,0,1,.079-.307l2.422.667a.168.168,0,0,1,.114.193.165.165,0,0,1-.159.114Zm-4.844-1.307h-.035l-2.422-.667a.159.159,0,0,1,.079-.307l2.422.667a.168.168,0,0,1,.114.193.151.151,0,0,1-.159.114Z" transform="translate(-1480.314 -838.773)" fill="#ebdbcd"/>
      <path id="Path_354" data-name="Path 354" d="M1654.5,886.491h-.035a.168.168,0,0,1-.114-.193l.281-1.044-1.044-.281a.159.159,0,0,1,.079-.307l1.344.362-.362,1.344A.147.147,0,0,1,1654.5,886.491Z" transform="translate(-1631.381 -879.733)" fill="#ebdbcd"/>
      <path id="Path_355" data-name="Path 355" d="M1633.814,937.211h-.035a.168.168,0,0,1-.114-.193l.641-2.422a.159.159,0,0,1,.307.079l-.64,2.422a.156.156,0,0,1-.158.114Zm1.307-4.826h-.035a.168.168,0,0,1-.114-.193l.64-2.422a.159.159,0,1,1,.307.079l-.641,2.422a.212.212,0,0,1-.158.114Z" transform="translate(-1613.314 -920.775)" fill="#ebdbcd"/>
    </g>
    <g id="Group_957" data-name="Group 957" transform="translate(80.001 76.37)">
      <path id="Path_356" data-name="Path 356" d="M941.433,896.75a42.312,42.312,0,0,1-8.633-1.65,23.368,23.368,0,0,0,9.372,3.071,24,24,0,0,0,6.213-.114c-.018-.509-.018-.948-.018-1.344A33.942,33.942,0,0,1,941.433,896.75Z" transform="translate(-930.948 -892.933)" fill="#f0a173"/>
      <path id="Path_357" data-name="Path 357" d="M911.7,870.4Z" transform="translate(-911.7 -870.4)" fill="#f0a173"/>
    </g>
    <g id="Group_958" data-name="Group 958" transform="translate(1.65 8.269)">
      <path id="Path_358" data-name="Path 358" d="M25,396.7a.178.178,0,0,1-.132-.052,5.688,5.688,0,0,1-.605-1.115.164.164,0,0,1,.079-.21.155.155,0,0,1,.21.079,5.143,5.143,0,0,0,.569,1.062.143.143,0,0,1-.035.21C25.051,396.673,25.015,396.7,25,396.7Z" transform="translate(-23.769 -368.893)" fill="#ebdbcd"/>
      <path id="Path_359" data-name="Path 359" d="M18.949,118.514a.16.16,0,0,1-.149-.149v-.079a8.821,8.821,0,0,1,.377-2.5.155.155,0,1,1,.289.1,8.178,8.178,0,0,0-.377,2.4v.052a.155.155,0,0,1-.141.175Zm1.474-4.826a.118.118,0,0,1-.079-.018.131.131,0,0,1-.035-.21,12.06,12.06,0,0,1,1.632-2.009.149.149,0,0,1,.21.21,12.279,12.279,0,0,0-1.588,1.948.169.169,0,0,1-.141.079Zm3.545-3.659a.142.142,0,0,1-.114-.052.143.143,0,0,1,.035-.21c.414-.325.868-.64,1.36-.965.246-.167.509-.342.755-.492a.151.151,0,1,1,.175.246c-.246.167-.509.325-.755.492-.492.325-.931.64-1.344.965a1.078,1.078,0,0,0-.112.017Zm4.256-2.843a.138.138,0,0,1-.132-.079.181.181,0,0,1,.035-.21,21.5,21.5,0,0,0,2.062-1.474.149.149,0,0,1,.193.228,23.039,23.039,0,0,1-2.106,1.492c.009.044-.026.044-.053.044Zm8.845-1.527a.16.16,0,0,1-.149-.149.143.143,0,0,1,.149-.149,11.108,11.108,0,0,0,2.5-.325.159.159,0,0,1,.079.307,15.346,15.346,0,0,1-2.58.316Zm-2.536-.228H34.5a12.391,12.391,0,0,1-2.466-.772.159.159,0,0,1,.132-.289,11.113,11.113,0,0,0,2.4.755.159.159,0,0,1,.114.193.163.163,0,0,1-.15.114Zm7.5-.895a.14.14,0,0,1-.132-.1.164.164,0,0,1,.079-.21,19.256,19.256,0,0,0,2.255-1.176.155.155,0,1,1,.158.263,19.61,19.61,0,0,1-2.29,1.176c-.029.026-.047.044-.073.044Zm-9.881-.588a.16.16,0,0,1-.1-.035.151.151,0,0,1-.018-.21,9.173,9.173,0,0,0,1.344-2.124.159.159,0,0,1,.289.132,10.2,10.2,0,0,1-1.386,2.194.328.328,0,0,1-.135.043Zm-2.24-.607a.16.16,0,0,1-.1-.035,7.38,7.38,0,0,1-1.746-1.929.155.155,0,1,1,.263-.158A7.04,7.04,0,0,0,30,103.07a.151.151,0,0,1,.018.21.115.115,0,0,1-.1.06Zm16.514-1.4a.178.178,0,0,1-.132-.052.143.143,0,0,1,.035-.21c.64-.456,1.228-.912,1.8-1.36l.243-.192a.155.155,0,0,1,.21.018.186.186,0,0,1-.018.21l-.246.193c-.569.439-1.176.886-1.8,1.36C46.485,101.921,46.457,101.945,46.424,101.945ZM34.138,99.33h0a.155.155,0,0,1-.149-.167v-.307a5.808,5.808,0,0,0-.094-1.025,4.279,4.279,0,0,0-.377-1.1.159.159,0,0,1,.289-.132,4.131,4.131,0,0,1,.395,1.176,4.894,4.894,0,0,1,.1,1.079v.325a.186.186,0,0,1-.16.149Zm-6.8-.263a.139.139,0,0,1-.149-.132c-.018-.167-.018-.362-.018-.526a5.283,5.283,0,0,1,.414-2.045.159.159,0,1,1,.289.132,4.719,4.719,0,0,0-.395,1.93,4.437,4.437,0,0,0,.018.492.14.14,0,0,1-.158.149ZM31.919,95a.144.144,0,0,1-.079-.018,2.636,2.636,0,0,0-1.93-.322c-.132.035-.263.079-.395.114a.155.155,0,1,1-.1-.289,2.871,2.871,0,0,1,.439-.132,3.058,3.058,0,0,1,2.159.362.145.145,0,0,1,.052.21.155.155,0,0,1-.148.076Z" transform="translate(-18.8 -94.288)" fill="#ebdbcd"/>
      <path id="Path_360" data-name="Path 360" d="M379.048,138a.138.138,0,0,1-.132-.079.163.163,0,0,1,.052-.21,5.02,5.02,0,0,1,1.158-.553.159.159,0,0,1,.079.307,4.454,4.454,0,0,0-1.079.509C379.109,138,379.092,138,379.048,138Z" transform="translate(-347.3 -133.393)" fill="#ebdbcd"/>
    </g>
  </g>
</svg>
