<svg xmlns="http://www.w3.org/2000/svg" width="331.504" height="186.024" viewBox="0 0 331.504 186.024">
  <g id="_4565" data-name="4565" transform="translate(-41.885 -23.163)">
    <g id="Group_1219" data-name="Group 1219" transform="translate(41.885 23.163)">
      <path id="Path_600" data-name="Path 600" d="M277.19,227.7c45.28-16.812,91.3-1.949,122.514,30.421s96.716-22.342,131.457,9.974c23.709,22.054,12.849,78.757-19.659,103.314-44.187,33.381-178.562,16.444-207.631,10.762-33.489-6.545-57.971-26.4-67.918-50.5C211.984,273.6,257.18,235.127,277.19,227.7Z" transform="translate(-229.116 -210.455)" fill="#e7f3fe"/>
      <g id="Group_1191" data-name="Group 1191" transform="translate(34.335)">
        <g id="Group_1186" data-name="Group 1186" transform="translate(94.405)">
          <path id="Path_601" data-name="Path 601" d="M1484.451,167.167a37.444,37.444,0,0,0,.234-4.173c0-.745-.024-1.483-.068-2.217l-6.9-2.231a30.3,30.3,0,0,0-2.441-8.263l4.573-5.627a37.089,37.089,0,0,0-3.623-5.265l-6.9,2.251a30.7,30.7,0,0,0-6.828-5.246l.392-7.246a36.905,36.905,0,0,0-6.021-2.134l-4.259,5.878a30.653,30.653,0,0,0-8.61-.225l-3.941-6.1a36.876,36.876,0,0,0-6.126,1.81l.009,7.257a30.577,30.577,0,0,0-7.094,4.881l-6.767-2.611a37.313,37.313,0,0,0-3.9,5.067l4.27,5.862a30.278,30.278,0,0,0-2.878,8.121l-7,1.864a37.414,37.414,0,0,0-.234,4.173c0,.745.024,1.483.067,2.217l6.9,2.231a30.372,30.372,0,0,0,2.441,8.263l-4.573,5.627a37.1,37.1,0,0,0,3.623,5.265l6.9-2.251a30.642,30.642,0,0,0,6.828,5.246l-.392,7.246a36.908,36.908,0,0,0,6.021,2.134l4.259-5.878a30.653,30.653,0,0,0,8.61.225l3.943,6.095a36.869,36.869,0,0,0,6.126-1.811l-.009-7.257a30.583,30.583,0,0,0,7.094-4.881l6.766,2.611a37.3,37.3,0,0,0,3.9-5.067l-4.27-5.862a30.314,30.314,0,0,0,2.879-8.121Zm-36.936,10.406a14.58,14.58,0,1,1,14.58-14.579,14.58,14.58,0,0,1-14.58,14.579Z" transform="translate(-1410.347 -126.57)" fill="#9ec8ff"/>
          <g id="Group_1183" data-name="Group 1183" transform="translate(56.508 27.679)">
            <path id="Path_602" data-name="Path 602" d="M1929.423,405.911a.537.537,0,0,1-.348-.126.545.545,0,0,1-.071-.767,24.664,24.664,0,0,0,4.346-23.756.546.546,0,1,1,1.031-.358,25.754,25.754,0,0,1-4.538,24.809.546.546,0,0,1-.421.2Z" transform="translate(-1928.879 -380.537)" fill="#fff"/>
          </g>
          <g id="Group_1184" data-name="Group 1184" transform="translate(45.719 12.207)">
            <path id="Path_603" data-name="Path 603" d="M1839.192,245.042a.544.544,0,0,1-.374-.148,24.482,24.482,0,0,0-8.477-5.224.545.545,0,1,1,.372-1.024,25.568,25.568,0,0,1,8.853,5.454.546.546,0,0,1-.374.943Z" transform="translate(-1829.97 -238.608)" fill="#fff"/>
          </g>
          <g id="Group_1185" data-name="Group 1185" transform="translate(30.969 10.711)">
            <path id="Path_604" data-name="Path 604" d="M1695.08,226.694a.545.545,0,0,1-.133-1.073,25.83,25.83,0,0,1,6.313-.78.545.545,0,0,1,0,1.09,24.726,24.726,0,0,0-6.046.748A.579.579,0,0,1,1695.08,226.694Z" transform="translate(-1694.536 -224.841)" fill="#fff"/>
          </g>
        </g>
        <g id="Group_1190" data-name="Group 1190" transform="translate(0 104.793)">
          <path id="Path_605" data-name="Path 605" d="M595.481,1116.236a26.083,26.083,0,0,0,.162-2.89c0-.516-.017-1.028-.047-1.536l-4.777-1.545a21.008,21.008,0,0,0-1.691-5.723l3.167-3.9a25.784,25.784,0,0,0-2.509-3.646l-4.777,1.558a21.238,21.238,0,0,0-4.729-3.637l.271-5.019a25.483,25.483,0,0,0-4.17-1.478l-2.95,4.07a21.274,21.274,0,0,0-5.962-.156l-2.731-4.221a25.557,25.557,0,0,0-4.243,1.252l.007,5.026a21.2,21.2,0,0,0-4.915,3.381l-4.686-1.808a25.908,25.908,0,0,0-2.7,3.51l2.958,4.06a21.023,21.023,0,0,0-1.994,5.625l-4.851,1.291a26.1,26.1,0,0,0-.162,2.89c0,.516.017,1.028.047,1.536l4.777,1.545a21.005,21.005,0,0,0,1.691,5.723l-3.167,3.9a25.779,25.779,0,0,0,2.509,3.646l4.777-1.558a21.235,21.235,0,0,0,4.729,3.637l-.271,5.018a25.474,25.474,0,0,0,4.17,1.478l2.95-4.071a21.244,21.244,0,0,0,3.535.3,21.488,21.488,0,0,0,2.428-.14l2.731,4.221a25.546,25.546,0,0,0,4.243-1.252l-.007-5.026a21.21,21.21,0,0,0,4.915-3.381l4.686,1.808a25.921,25.921,0,0,0,2.7-3.509l-2.958-4.06a21.026,21.026,0,0,0,1.994-5.625Zm-25.584,7.208a10.1,10.1,0,1,1,10.1-10.1A10.1,10.1,0,0,1,569.9,1123.444Z" transform="translate(-544.152 -1088.117)" fill="#9ec8ff"/>
          <g id="Group_1187" data-name="Group 1187" transform="translate(38.975 19)">
            <path id="Path_606" data-name="Path 606" d="M902.323,1280.366a.537.537,0,0,1-.348-.126.546.546,0,0,1-.071-.767,16.918,16.918,0,0,0,2.981-16.294.546.546,0,1,1,1.031-.358,18.008,18.008,0,0,1-3.173,17.344A.54.54,0,0,1,902.323,1280.366Z" transform="translate(-901.779 -1262.453)" fill="#fff"/>
          </g>
          <g id="Group_1188" data-name="Group 1188" transform="translate(31.522 8.293)">
            <path id="Path_607" data-name="Path 607" d="M839.827,1168.959a.544.544,0,0,1-.374-.149,16.785,16.785,0,0,0-5.814-3.582.546.546,0,0,1,.371-1.025,17.87,17.87,0,0,1,6.189,3.815.544.544,0,0,1,.023.77A.536.536,0,0,1,839.827,1168.959Z" transform="translate(-833.294 -1164.176)" fill="#fff"/>
          </g>
          <g id="Group_1189" data-name="Group 1189" transform="translate(21.284 7.251)">
            <path id="Path_608" data-name="Path 608" d="M740,1156.25a.545.545,0,0,1-.133-1.073,18.069,18.069,0,0,1,4.412-.546.545.545,0,0,1,0,1.09,16.975,16.975,0,0,0-4.147.512.517.517,0,0,1-.132.017Z" transform="translate(-739.456 -1154.631)" fill="#fff"/>
          </g>
        </g>
        <path id="Path_609" data-name="Path 609" d="M2012.688,601.741c0-.281-.009-.561-.023-.839l3.577-2.874a18.992,18.992,0,0,0-1.3-4.114l-4.621-.35a15.4,15.4,0,0,0-4-4.245l-.016-4.6a19.076,19.076,0,0,0-4.1-1.58l-3.16,3.4a15.39,15.39,0,0,0-5.679.446l-3.622-2.869a19.17,19.17,0,0,0-3.831,2.221l.686,4.565a15.328,15.328,0,0,0-3.226,4.71l-4.505,1.044a19.2,19.2,0,0,0-.666,4.343l3.968,2.294a15.182,15.182,0,0,0,1.7,5.607l-1.987,4.161a19.315,19.315,0,0,0,2.921,3.177l4.255-1.669a15.208,15.208,0,0,0,5.61,2.225l2.005,4.13c.238.009.477.016.72.016a19.311,19.311,0,0,0,3.521-.323l1.349-4.373a15.274,15.274,0,0,0,5.28-3.065l4.471,1a19.24,19.24,0,0,0,2.385-3.517l-2.592-3.807a15.293,15.293,0,0,0,.879-5.111Zm-15.462,6.737a6.442,6.442,0,1,1,6.442-6.442,6.442,6.442,0,0,1-6.442,6.442Z" transform="translate(-1821.919 -533.379)" fill="#9ec8ff"/>
      </g>
      <g id="Group_1195" data-name="Group 1195" transform="translate(249.19 16.301)">
        <g id="Group_1192" data-name="Group 1192" transform="translate(26.05 1.664)" opacity="0.8">
          <path id="Path_610" data-name="Path 610" d="M2764.006,304.656h-5.537a3.882,3.882,0,0,1-3.875-3.875v-5.536a3.882,3.882,0,0,1,3.875-3.875h5.537a3.882,3.882,0,0,1,3.875,3.875v5.536a3.881,3.881,0,0,1-3.875,3.875Zm-5.537-11.765a2.354,2.354,0,0,0-2.352,2.352v5.537a2.354,2.354,0,0,0,2.352,2.352h5.537a2.354,2.354,0,0,0,2.352-2.352v-5.537a2.354,2.354,0,0,0-2.352-2.352Z" transform="translate(-2754.594 -291.369)" fill="#9ec8ff"/>
        </g>
        <g id="Group_1193" data-name="Group 1193" transform="translate(0 1.664)" opacity="0.8">
          <path id="Path_611" data-name="Path 611" d="M2524.976,304.656h-5.537a3.882,3.882,0,0,1-3.875-3.875v-5.536a3.882,3.882,0,0,1,3.875-3.875h5.537a3.882,3.882,0,0,1,3.875,3.875v5.536A3.883,3.883,0,0,1,2524.976,304.656Zm-5.538-11.765a2.354,2.354,0,0,0-2.352,2.352v5.537a2.354,2.354,0,0,0,2.352,2.352h5.537a2.354,2.354,0,0,0,2.352-2.352v-5.537a2.354,2.354,0,0,0-2.352-2.352Z" transform="translate(-2515.564 -291.369)" fill="#9ec8ff"/>
        </g>
        <g id="Group_1194" data-name="Group 1194" transform="translate(2.323 0)">
          <path id="Path_612" data-name="Path 612" d="M2541.81,288.15h-.032a.656.656,0,0,1-.487-.255l-3.979-5.191a.656.656,0,1,1,1.037-.8l3.509,4.577,9.162-9.816a.656.656,0,1,1,.954.894l-9.689,10.381A.651.651,0,0,1,2541.81,288.15Z" transform="translate(-2537.144 -276.423)" fill="#f37168"/>
        </g>
      </g>
      <path id="Path_613" data-name="Path 613" d="M717.142,1701.752c-22.665-1.108-99.771.77-123.221,1.5s-50.67-.966-64.81-3.461-95.871.212-92.162,6.924,36.415,3,73.506,5.7,120.5-.337,139.322,0,36.068-.675,60.318-2.023S730.281,1702.393,717.142,1701.752Z" transform="translate(-414.19 -1527.518)" fill="#cce2ff"/>
      <g id="Group_1200" data-name="Group 1200" transform="translate(23.899 33.898)">
        <rect id="Rectangle_1188" data-name="Rectangle 1188" width="47.38" height="77.659" fill="#99bbeb"/>
        <rect id="Rectangle_1189" data-name="Rectangle 1189" width="43.341" height="73.117" transform="translate(2.482 1.582)" fill="#fff"/>
        <g id="Group_1199" data-name="Group 1199" transform="translate(4.993 4.555)">
          <g id="Group_1196" data-name="Group 1196" transform="translate(10.452 4.49)">
            <path id="Path_614" data-name="Path 614" d="M590.12,683.273c1.632-3.51,4.392-4.633,8.926-4.633,5.4,0,8.2,1.955,9,4.8C598.374,683.575,590.12,683.273,590.12,683.273Z" transform="translate(-590.12 -661.414)" fill="#9bd6e8"/>
            <path id="Path_615" data-name="Path 615" d="M598.947,520.735c-2.286.642-2.185,1.926-2.947,3.118s-2.417,1.987-2.615,2.781.51,2.45-.332,3.377-1.125,1.391-.795,2.317,1.059,2.385,1.126,2.582A3.717,3.717,0,0,0,595.5,536.7a23.872,23.872,0,0,1,4.3.993c1.059.463,4.466-.593,6.357-.528s3.178-1.326,3.046-2.254,1.394-2.781,1.391-4.37c0-1.707-1.987-2.981-2.516-4.105s.067-3.113-1.92-4.289a11.4,11.4,0,0,0-3.112-1.008A7.378,7.378,0,0,0,598.947,520.735Z" transform="translate(-591.906 -520.578)" fill="#3a384d"/>
            <path id="Path_616" data-name="Path 616" d="M657.5,611.229c-.516.763-.894.795-1.457,0a7.26,7.26,0,0,1-1.324-2.8v-7.27a1.328,1.328,0,0,1,1.324-1.324H657.5a1.328,1.328,0,0,1,1.324,1.324v7.269A7.314,7.314,0,0,1,657.5,611.229Z" transform="translate(-647.679 -591.202)" fill="#f09959"/>
            <path id="Path_617" data-name="Path 617" d="M657.5,599.84h-1.457a1.328,1.328,0,0,0-1.324,1.324v6.486c1.636.521,3.129-.514,4.105-1.681v-4.8A1.326,1.326,0,0,0,657.5,599.84Z" transform="translate(-647.679 -591.202)" fill="#e38540"/>
            <ellipse id="Ellipse_46" data-name="Ellipse 46" cx="4.403" cy="6" rx="4.403" ry="6" transform="translate(4.691 2.711)" fill="#f09959"/>
            <path id="Path_618" data-name="Path 618" d="M636.1,537.329c-2.781,4.7-6.887,4.238-6.887,4.238s.1-6.224,3.36-6.558,5.181.978,5.842,3.138a5.326,5.326,0,0,1,0,3.583,5.71,5.71,0,0,1-1.589-2.153A15.442,15.442,0,0,1,636.1,537.329Z" transform="translate(-624.95 -533.393)" fill="#3a384d"/>
            <ellipse id="Ellipse_47" data-name="Ellipse 47" cx="1.158" cy="1.738" rx="1.158" ry="1.738" transform="matrix(0.903, -0.429, 0.429, 0.903, 2.301, 8.043)" fill="#f09959"/>
            <path id="Path_619" data-name="Path 619" d="M706.049,590.26c-.412.867-.277,1.793.3,2.068s1.381-.206,1.793-1.073.277-1.793-.3-2.068S706.46,589.394,706.049,590.26Z" transform="translate(-693.202 -581.642)" fill="#f09959"/>
            <path id="Path_620" data-name="Path 620" d="M661.681,630.37a1.908,1.908,0,0,1-3.311,0Z" transform="translate(-650.932 -618.405)" fill="#fff"/>
          </g>
          <path id="Path_621" data-name="Path 621" d="M620.173,787.349H609.052a1.292,1.292,0,0,1,0-2.585h11.12a1.293,1.293,0,0,1,0,2.585Z" transform="translate(-595.386 -751.481)" fill="#99bbeb"/>
          <path id="Path_622" data-name="Path 622" d="M605.565,823.795H590.372a1.292,1.292,0,0,1,0-2.585h15.193a1.292,1.292,0,0,1,0,2.585Z" transform="translate(-578.742 -783.957)" fill="#99bbeb"/>
          <path id="Path_623" data-name="Path 623" d="M531.925,963.77H494.97a.75.75,0,0,1,0-1.5h36.955a.75.75,0,1,1,0,1.5Z" transform="translate(-494.22 -909.644)" fill="#99bbeb"/>
          <path id="Path_624" data-name="Path 624" d="M531.925,995.76H494.97a.75.75,0,1,1,0-1.5h36.955a.75.75,0,0,1,0,1.5Z" transform="translate(-494.22 -938.147)" fill="#99bbeb"/>
          <path id="Path_625" data-name="Path 625" d="M531.925,1027.76H494.97a.75.75,0,1,1,0-1.5h36.955a.75.75,0,1,1,0,1.5Z" transform="translate(-494.22 -966.66)" fill="#99bbeb"/>
          <g id="Group_1197" data-name="Group 1197" transform="translate(4.58 0)">
            <path id="Path_626" data-name="Path 626" d="M564.2,506.6H537.58a1.341,1.341,0,0,1-1.34-1.34V480.73a1.341,1.341,0,0,1,1.34-1.34H564.2a1.341,1.341,0,0,1,1.34,1.34v24.531A1.342,1.342,0,0,1,564.2,506.6ZM537.58,480.48a.253.253,0,0,0-.25.25v24.531a.253.253,0,0,0,.25.25H564.2a.253.253,0,0,0,.25-.25V480.73a.253.253,0,0,0-.25-.25Z" transform="translate(-536.24 -479.39)" fill="#99bbeb"/>
          </g>
          <g id="Group_1198" data-name="Group 1198" transform="translate(7.267 43.211)">
            <path id="Path_627" data-name="Path 627" d="M563.384,875.88l.77,1.562,1.723.25-1.247,1.215.294,1.715-1.541-.81-1.541.81.294-1.715-1.247-1.215,1.723-.25Z" transform="translate(-560.891 -875.88)" fill="#99bbeb"/>
            <path id="Path_628" data-name="Path 628" d="M621.294,875.88l.77,1.562,1.723.25-1.247,1.215.294,1.715-1.541-.81-1.541.81.294-1.715-1.247-1.215,1.723-.25Z" transform="translate(-612.489 -875.88)" fill="#99bbeb"/>
            <path id="Path_629" data-name="Path 629" d="M679.211,875.88l.77,1.562,1.723.25-1.247,1.215.295,1.715-1.541-.81-1.541.81.294-1.715-1.247-1.215,1.723-.25Z" transform="translate(-664.096 -875.88)" fill="#99bbeb"/>
            <path id="Path_630" data-name="Path 630" d="M737.124,875.88l.77,1.562,1.723.25-1.247,1.215.294,1.715-1.541-.81-1.541.81.294-1.715-1.247-1.215,1.723-.25Z" transform="translate(-715.696 -875.88)" fill="#99bbeb"/>
          </g>
        </g>
      </g>
      <g id="Group_1205" data-name="Group 1205" transform="translate(129.528 33.898)">
        <rect id="Rectangle_1190" data-name="Rectangle 1190" width="47.38" height="77.659" fill="#99bbeb"/>
        <rect id="Rectangle_1191" data-name="Rectangle 1191" width="43.341" height="73.117" transform="translate(2.481 1.582)" fill="#fff"/>
        <g id="Group_1204" data-name="Group 1204" transform="translate(4.993 4.555)">
          <g id="Group_1201" data-name="Group 1201" transform="translate(10.452 4.955)">
            <path id="Path_631" data-name="Path 631" d="M1578.23,596.88c0,3.479,2.095,9.09,7.035,8.911s6.033-5.53,6.224-7.039S1578.23,596.88,1578.23,596.88Z" transform="translate(-1576.172 -589.031)" fill="#7a4e34"/>
            <path id="Path_632" data-name="Path 632" d="M1559.34,683.273c1.632-3.51,4.392-4.633,8.926-4.633,5.4,0,8.2,1.955,9,4.8C1567.594,683.575,1559.34,683.273,1559.34,683.273Z" transform="translate(-1559.34 -661.88)" fill="#d54a41"/>
            <path id="Path_633" data-name="Path 633" d="M1626.721,611.229c-.516.763-.894.795-1.457,0a7.259,7.259,0,0,1-1.324-2.8v-7.27a1.328,1.328,0,0,1,1.324-1.324h1.457a1.328,1.328,0,0,1,1.324,1.324v7.269A7.337,7.337,0,0,1,1626.721,611.229Z" transform="translate(-1616.899 -591.668)" fill="#f09959"/>
            <path id="Path_634" data-name="Path 634" d="M1626.721,599.84h-1.457a1.328,1.328,0,0,0-1.324,1.324v6.486c1.636.521,3.129-.514,4.106-1.681v-4.8A1.328,1.328,0,0,0,1626.721,599.84Z" transform="translate(-1616.899 -591.669)" fill="#e38540"/>
            <ellipse id="Ellipse_48" data-name="Ellipse 48" cx="4.403" cy="6" rx="4.403" ry="6" transform="translate(4.689 2.245)" fill="#f09959"/>
            <path id="Path_635" data-name="Path 635" d="M1587.562,528.545c-.523,1.845-1.669,1.823-3.269,2.429a4.333,4.333,0,0,0-2.886,2.4c-.667,1.505.3,5.894.3,5.894s-4.049-3.03-3.58-7.794,3.279-6.61,5.921-6.61a4.241,4.241,0,0,1,3.648,1.61,3.958,3.958,0,0,1,2.742,1.583c1.789,2.12,1.239,7.273,0,9.115s-2.065,2.424-2.038,2.341,1.156-4.32.55-6.94A16.666,16.666,0,0,0,1587.562,528.545Z" transform="translate(-1576.049 -524.86)" fill="#7a4e34"/>
            <path id="Path_636" data-name="Path 636" d="M1630.891,630.37a1.908,1.908,0,0,1-3.311,0Z" transform="translate(-1620.143 -618.871)" fill="#fff"/>
          </g>
          <path id="Path_637" data-name="Path 637" d="M1589.392,787.349h-11.119a1.292,1.292,0,1,1,0-2.585h11.119a1.293,1.293,0,0,1,0,2.585Z" transform="translate(-1564.605 -751.481)" fill="#99bbeb"/>
          <path id="Path_638" data-name="Path 638" d="M1574.784,823.795h-15.191a1.292,1.292,0,0,1,0-2.585h15.191a1.292,1.292,0,0,1,0,2.585Z" transform="translate(-1547.961 -783.957)" fill="#99bbeb"/>
          <path id="Path_639" data-name="Path 639" d="M1501.135,963.77H1464.18a.75.75,0,1,1,0-1.5h36.955a.75.75,0,1,1,0,1.5Z" transform="translate(-1463.43 -909.644)" fill="#99bbeb"/>
          <path id="Path_640" data-name="Path 640" d="M1501.135,995.76H1464.18a.75.75,0,1,1,0-1.5h36.955a.75.75,0,0,1,0,1.5Z" transform="translate(-1463.43 -938.147)" fill="#99bbeb"/>
          <path id="Path_641" data-name="Path 641" d="M1501.135,1027.76H1464.18a.75.75,0,1,1,0-1.5h36.955a.75.75,0,1,1,0,1.5Z" transform="translate(-1463.43 -966.66)" fill="#99bbeb"/>
          <g id="Group_1202" data-name="Group 1202" transform="translate(4.581 0)">
            <path id="Path_642" data-name="Path 642" d="M1533.408,506.6h-26.615a1.341,1.341,0,0,1-1.339-1.34V480.73a1.341,1.341,0,0,1,1.339-1.34h26.617a1.341,1.341,0,0,1,1.34,1.34v24.531A1.341,1.341,0,0,1,1533.408,506.6Zm-26.615-26.121a.253.253,0,0,0-.249.25v24.531a.253.253,0,0,0,.249.25h26.617a.253.253,0,0,0,.25-.25V480.73a.253.253,0,0,0-.25-.25Z" transform="translate(-1505.453 -479.39)" fill="#99bbeb"/>
          </g>
          <g id="Group_1203" data-name="Group 1203" transform="translate(7.267 43.211)">
            <path id="Path_643" data-name="Path 643" d="M1532.594,875.88l.77,1.562,1.723.25-1.247,1.215.294,1.715-1.541-.81-1.541.81.295-1.715-1.246-1.215,1.723-.25Z" transform="translate(-1530.101 -875.88)" fill="#99bbeb"/>
            <path id="Path_644" data-name="Path 644" d="M1590.513,875.88l.77,1.562,1.723.25-1.246,1.215.295,1.715-1.541-.81-1.542.81.3-1.715-1.247-1.215,1.723-.25Z" transform="translate(-1581.709 -875.88)" fill="#99bbeb"/>
            <path id="Path_645" data-name="Path 645" d="M1648.424,875.88l.77,1.562,1.723.25-1.247,1.215.295,1.715-1.541-.81-1.541.81.294-1.715-1.246-1.215,1.723-.25Z" transform="translate(-1633.307 -875.88)" fill="#99bbeb"/>
            <path id="Path_646" data-name="Path 646" d="M1706.335,875.88l.77,1.562,1.723.25-1.247,1.215.295,1.715-1.541-.81-1.542.81.295-1.715-1.246-1.215,1.723-.25Z" transform="translate(-1684.906 -875.88)" fill="#99bbeb"/>
          </g>
        </g>
      </g>
      <path id="Path_647" data-name="Path 647" d="M855.164,516.834H780.39l5.289-76.594h72.182Z" transform="translate(-720.31 -406.055)" fill="#99bbeb" opacity="0.2"/>
      <g id="Group_1210" data-name="Group 1210" transform="translate(67.935 19.691)">
        <rect id="Rectangle_1192" data-name="Rectangle 1192" width="64.714" height="106.07" fill="#99bbeb"/>
        <rect id="Rectangle_1193" data-name="Rectangle 1193" width="59.198" height="99.867" transform="translate(3.389 2.161)" fill="#fff"/>
        <g id="Group_1209" data-name="Group 1209" transform="translate(6.82 6.422)">
          <g id="Group_1206" data-name="Group 1206" transform="translate(13.528 4.612)">
            <path id="Path_648" data-name="Path 648" d="M1094.678,420.595c-.041-.124-1.078-6.072-1.2-8.386s3.718-2.644,3.718-2.644,3.14-1.694,5.412-.826a9.154,9.154,0,0,1,4.851,4.144c1.033,1.818-.909,7.483-.909,7.483Z" transform="translate(-1087.554 -408.491)" fill="#2e2d3d"/>
            <path id="Path_649" data-name="Path 649" d="M1039.166,622.569c-.014-.1.265-2.439.276-2.534.523-4.929,6.6-6.319,12.664-6.319,7.124,0,11.958,1.3,12.729,6.427.023.15.434,2.5.413,2.655C1052.042,622.981,1039.166,622.569,1039.166,622.569Z" transform="translate(-1039.165 -591.352)" fill="#d5e1e8"/>
            <path id="Path_650" data-name="Path 650" d="M1131.234,521.647c-.707,1.042-1.224,1.086-1.99,0-.609-.863-2.644-2.832-2.644-3.826l.835-9.921a1.815,1.815,0,0,1,1.809-1.809h1.99a1.815,1.815,0,0,1,1.809,1.809l.388,9.921C1133.431,518.815,1131.867,520.713,1131.234,521.647Z" transform="translate(-1117.071 -495.454)" fill="#f09959"/>
            <path id="Path_651" data-name="Path 651" d="M1132.135,506.1h-1.99a1.815,1.815,0,0,0-1.809,1.809l-.725,8.8c2.234.712,5.251-.734,6.585-2.325l-.253-6.474A1.813,1.813,0,0,0,1132.135,506.1Z" transform="translate(-1117.971 -495.462)" fill="#e38540"/>
            <path id="Path_652" data-name="Path 652" d="M1097.34,618.8l3.19,5.9s1.708-1.4,1.873-1.129a25.32,25.32,0,0,1-.3,3.751,32.835,32.835,0,0,0,3.966-.113c.165-.165-.771-3.775-.386-3.775s1.545,1.046,1.545,1.046l3.561-5.676-.783-.191-5.835,3.14-6.242-3.071Z" transform="translate(-1091 -595.71)" fill="#bdccd4"/>
            <path id="Path_653" data-name="Path 653" d="M1130.81,638.179l2.369,1.589-.735,4.22,3.194-.179-.8-3.837,1.964-1.793-.923-.87h-4.15Z" transform="translate(-1120.822 -612.372)" fill="#d54a41"/>
            <path id="Path_654" data-name="Path 654" d="M1104.17,591.594l-2.93,2.788s2.985,5.306,3.151,5.306,2.533-2.927,2.533-2.927l1.516-.026,2.4,2.513,2.783-4.924-2.838-3.008s-2.424,4.682-2.862,4.792-.443.166-.8-.11S1104.17,591.594,1104.17,591.594Z" transform="translate(-1094.475 -571.393)" fill="#d5e1e8"/>
            <ellipse id="Ellipse_49" data-name="Ellipse 49" cx="6.014" cy="8.195" rx="6.014" ry="8.195" transform="translate(7.154 2.544)" fill="#f09959"/>
            <path id="Path_655" data-name="Path 655" d="M1084.426,493.018c.562,1.185.379,2.449-.411,2.824s-1.886-.281-2.448-1.466-.378-2.449.411-2.824S1083.864,491.836,1084.426,493.018Z" transform="translate(-1076.656 -482.406)" fill="#f09959"/>
            <path id="Path_656" data-name="Path 656" d="M1204.379,493.018c-.562,1.185-.378,2.449.411,2.824s1.886-.281,2.448-1.466.378-2.449-.411-2.824S1204.94,491.836,1204.379,493.018Z" transform="translate(-1186.082 -482.406)" fill="#f09959"/>
            <path id="Path_657" data-name="Path 657" d="M1140.846,537.88s-1.192,1.935-2.668,1.935-2.668-1.935-2.668-1.935Z" transform="translate(-1125.01 -523.779)" fill="#fff"/>
            <path id="Path_658" data-name="Path 658" d="M1107.038,428.335c2.478-1.735,3.594-1.446,5.453,1.4s4.09,2.9,4.09,2.9l.289-2.956s-2.769-5.356-6.487-4.655a9.809,9.809,0,0,0-5.832,4.049s-.179,6.272.338,6.486.579-2.024.95-2.478-.372-2.6.124-3.594S1107.038,428.335,1107.038,428.335Z" transform="translate(-1097.397 -423.172)" fill="#2e2d3d"/>
            <path id="Path_659" data-name="Path 659" d="M1200.77,485.44c.866.947.537,4.71.992,4.668s.62-3.594.5-3.966S1200.77,485.44,1200.77,485.44Z" transform="translate(-1183.158 -477.054)" fill="#2e2d3d"/>
          </g>
          <path id="Path_660" data-name="Path 660" d="M1042.451,784.951h-27.625a1.766,1.766,0,1,1,0-3.531h27.625a1.766,1.766,0,1,1,0,3.531Z" transform="translate(-1002.377 -736.165)" fill="#99bbeb"/>
          <path id="Path_661" data-name="Path 661" d="M1067.125,834.741h-20.75a1.766,1.766,0,1,1,0-3.531h20.75a1.766,1.766,0,1,1,0,3.531Z" transform="translate(-1030.488 -780.528)" fill="#99bbeb"/>
          <path id="Path_662" data-name="Path 662" d="M966.538,1025.912H916.064a1.025,1.025,0,1,1,0-2.049h50.474a1.025,1.025,0,1,1,0,2.049Z" transform="translate(-915.039 -952.184)" fill="#99bbeb"/>
          <path id="Path_663" data-name="Path 663" d="M966.538,1069.612H916.064a1.025,1.025,0,1,1,0-2.049h50.474a1.025,1.025,0,0,1,0,2.049Z" transform="translate(-915.039 -991.121)" fill="#99bbeb"/>
          <path id="Path_664" data-name="Path 664" d="M966.538,1113.319H916.064a1.025,1.025,0,1,1,0-2.049h50.474a1.025,1.025,0,1,1,0,2.049Z" transform="translate(-915.039 -1030.066)" fill="#99bbeb"/>
          <g id="Group_1207" data-name="Group 1207" transform="translate(6.453 0)">
            <path id="Path_665" data-name="Path 665" d="M1012.235,402.928H975.88a1.632,1.632,0,0,1-1.63-1.63v-33.5a1.632,1.632,0,0,1,1.631-1.63h36.355a1.632,1.632,0,0,1,1.631,1.63v33.5a1.632,1.632,0,0,1-1.63,1.63Zm-36.355-35.677a.541.541,0,0,0-.541.541v33.5a.541.541,0,0,0,.541.541h36.355a.541.541,0,0,0,.541-.541v-33.5a.541.541,0,0,0-.541-.541Z" transform="translate(-974.25 -366.163)" fill="#99bbeb"/>
          </g>
          <g id="Group_1208" data-name="Group 1208" transform="translate(5.546 58.819)">
            <path id="Path_666" data-name="Path 666" d="M969.326,905.88l1.053,2.133,2.353.342-1.7,1.66.4,2.344-2.106-1.107-2.1,1.107.4-2.344-1.7-1.66,2.353-.342Z" transform="translate(-965.921 -905.88)" fill="#99bbeb"/>
            <path id="Path_667" data-name="Path 667" d="M1048.427,905.88l1.053,2.133,2.354.342-1.7,1.66.4,2.344-2.106-1.107-2.1,1.107.4-2.344-1.7-1.66,2.354-.342Z" transform="translate(-1036.401 -905.88)" fill="#99bbeb"/>
            <path id="Path_668" data-name="Path 668" d="M1127.526,905.88l1.053,2.133,2.354.342-1.7,1.66.4,2.344-2.106-1.107-2.1,1.107.4-2.344-1.7-1.66,2.354-.342Z" transform="translate(-1106.879 -905.88)" fill="#99bbeb"/>
            <path id="Path_669" data-name="Path 669" d="M1206.628,905.88l1.052,2.133,2.354.342-1.7,1.66.4,2.344-2.1-1.107-2.106,1.107.4-2.344-1.7-1.66,2.354-.342Z" transform="translate(-1177.359 -905.88)" fill="#99bbeb"/>
            <path id="Path_670" data-name="Path 670" d="M1286.988,905.88l1.052,2.133,2.354.342-1.7,1.66.4,2.344-2.1-1.107-2.106,1.107.4-2.344-1.7-1.66,2.354-.342Z" transform="translate(-1248.961 -905.88)" fill="#99bbeb"/>
          </g>
        </g>
      </g>
      <path id="Path_671" data-name="Path 671" d="M1713.6,1223.381h-83.045a.9.9,0,0,1-.9-.9v-1.354a.9.9,0,0,1,.9-.9H1713.6a.9.9,0,0,1,.9.9v1.354A.9.9,0,0,1,1713.6,1223.381Z" transform="translate(-1477.02 -1101.029)" fill="#2e5b9a"/>
      <g id="Group_1215" data-name="Group 1215" transform="translate(186.157 65.166)">
        <path id="Path_672" data-name="Path 672" d="M2503.475,784.031a7.522,7.522,0,0,1-4.65,8.914c-3.027.858-5.187-1.836-6.312-5.8s.417-7.879,3.444-8.737S2502.35,780.063,2503.475,784.031Z" transform="translate(-2431.667 -772.38)" fill="#f09959"/>
        <path id="Path_673" data-name="Path 673" d="M2411.7,1536.71s7.758,12.051,8.806,12.575,3.668.656,2.683,2.62-1.375,9.693-2.292,10.085-8.776,1.312-7.6,0,1.9-.656,2.5-3.012,1.431-6.812.317-7.728-7.924-9.169-7.924-9.169Z" transform="translate(-2356.869 -1448.192)" fill="#f09959"/>
        <path id="Path_674" data-name="Path 674" d="M1953.006,1584.19s-9.432,15.544-11.177,16.942-7.511,3.493-2.794,3.843,6.986-1.572,9.956-2.444,6.637-1.4,5.24-3.667-.817-7.227,2.195-10.373S1953.006,1584.19,1953.006,1584.19Z" transform="translate(-1937.219 -1490.497)" fill="#f09959"/>
        <path id="Path_675" data-name="Path 675" d="M2097.463,1253.364s-23.347-.61-32.6,6.986c-5.415,8.208-18.512,32.431-19.53,35.1.7.7,4.628,1.96,6.375,1.784,5.152-6.143,11.962-11.454,14.67-16.275,3.338-5.938,4.366-8.907,9.78-9.431s17.641-2.27,21.307-2.27S2097.463,1253.364,2097.463,1253.364Z" transform="translate(-2033.548 -1195.717)" fill="#6791c9"/>
        <path id="Path_676" data-name="Path 676" d="M2628.74,1475.934h-1.224l-8.775-36.614h2.692Z" transform="translate(-2544.465 -1361.416)" fill="#2e5b9a"/>
        <path id="Path_677" data-name="Path 677" d="M2374.11,1465.358h1.224l10.07-37.908h-2.691Z" transform="translate(-2326.496 -1350.84)" fill="#2e5b9a"/>
        <path id="Path_678" data-name="Path 678" d="M2270.424,1238.79l-13.574,2.343s-18.038.166-26.283,1.7c-7.5,1.4-8.607,9.921,0,21.657,4.888,6.667,9.023,11.983,17.477,17.981,2.15-1.579,2.973-2.177,3.567-5.975-.612-.839-2.2-6.089-2.688-7.117-4.676-9.774-10.917-13.329-11-14.29,1.048-1.7,27.756,8.875,33.067,2.653C2276.059,1251.8,2270.424,1238.79,2270.424,1238.79Z" transform="translate(-2193.209 -1182.741)" fill="#75a1de"/>
        <path id="Path_679" data-name="Path 679" d="M2509.3,955.563a14.2,14.2,0,0,0-10.62,2.643c-2.976,3.033-6.343,8.036-6.136,16.286.261,10.479-1.622,11.151.343,14.033,8.195,3.384,22.21,17.922,18.909,2.336-2.39-11.286,5.241-19.7-.915-32.218C2510.376,957.623,2509.75,956.635,2509.3,955.563Z" transform="translate(-2431.517 -930.243)" fill="#f37168"/>
        <path id="Path_680" data-name="Path 680" d="M2492.543,999.838c-.159,5.462-.931,7.072-.341,8.784,3.338.341,9.452,1.678,10.978,3.815,1.747,2.444,3.493,2.794,2.678.99s-2.969-4.366.35-13.157,4.888-14.729,1.63-20.841Z" transform="translate(-2431.523 -951.647)" fill="#d54a41"/>
        <path id="Path_681" data-name="Path 681" d="M2564.051,866.357a42.622,42.622,0,0,1-2.742-11.066l-5.763,1.7s3.275,7.333.131,9.956a30.112,30.112,0,0,0-2.248,2.052,14.2,14.2,0,0,1,10.623-2.643Z" transform="translate(-2486.272 -841.037)" fill="#f09959"/>
        <path id="Path_682" data-name="Path 682" d="M2578.868,859.2c-.342-.3-.769-.683-1.217-1.079l-4.7,1.388c0,.009-.007.017-.01.025a19.171,19.171,0,0,1,1.467,5.742,16.584,16.584,0,0,0,4.689-4.656C2579,860.082,2578.927,859.6,2578.868,859.2Z" transform="translate(-2503.657 -843.558)" fill="#e38540"/>
        <path id="Path_683" data-name="Path 683" d="M2327.458,970.519c-5.935,2.076-5.277,8.329-10.74,17.552-2.827,4.772-5.454,4.7-5.454,4.7a126.429,126.429,0,0,1-14.65-.928c-5.022-.613-5.342.881-1.848,2.13,7.045,2.519,14.354,5.229,20.248,4.574s15.977-15.694,16.5-19.608C2332.229,973.526,2330.448,969.473,2327.458,970.519Z" transform="translate(-2253.731 -943.56)" fill="#f09959"/>
        <g id="Group_1211" data-name="Group 1211" transform="translate(49.805 39.873)">
          <path id="Path_684" data-name="Path 684" d="M2415.066,1129.959c-.37,0-.747,0-1.133-.014a56.525,56.525,0,0,1-10.776-1.326c-3.09-.628-4.791-.974-6.772-.028a1.526,1.526,0,1,1-1.315-2.754c2.9-1.387,5.333-.894,8.694-.209a53.8,53.8,0,0,0,10.245,1.266c5.113.128,8.232-.631,9.812-2.385,1.408-1.562,1.82-4.185,1.3-8.256-.179-1.393-.358-2.552-.516-3.577a24.752,24.752,0,0,1-.376-7.736c.339-2.736,1.245-6.379,3.343-13.446a1.526,1.526,0,1,1,2.926.869c-3.909,13.166-3.711,14.449-2.877,19.846.162,1.041.344,2.22.527,3.652.645,5.021-.008,8.417-2.056,10.689C2423.974,1128.895,2420.551,1129.959,2415.066,1129.959Z" transform="translate(-2394.2 -1090.403)" fill="#2e5b9a"/>
        </g>
        <path id="Path_685" data-name="Path 685" d="M1953.65,1704.4c-6.26,3.06-9.625,4.814-11.631,4.65-.477-.039-.866-.088-1.2-.14-2.232,1.319-5.793,2.877-1.789,3.175,4.716.349,6.986-1.572,9.956-2.444s6.637-1.4,5.24-3.668a4.753,4.753,0,0,1-.581-1.573Z" transform="translate(-1937.222 -1597.607)" fill="#d54a41"/>
        <path id="Path_686" data-name="Path 686" d="M2461.982,1654.43c-.153,4.955-.834,9.864-3.864,10.791a5.09,5.09,0,0,1-2.183.195c-.477.59-1.058.6-1.839,1.462-1.179,1.312,6.677.393,7.6,0s1.312-8.12,2.292-10.085C2464.792,1655.18,2463.171,1654.8,2461.982,1654.43Z" transform="translate(-2397.658 -1553.083)" fill="#d54a41"/>
        <g id="Group_1212" data-name="Group 1212" transform="translate(10.778 34.117)">
          <path id="Path_687" data-name="Path 687" d="M2065.563,1057.877h-19.88a1.526,1.526,0,0,1-1.384-.883l-8.035-17.289a1.526,1.526,0,0,1,2.769-1.286l7.624,16.407h18.907a1.526,1.526,0,0,1,0,3.052Z" transform="translate(-2036.122 -1037.536)" fill="#75a1de"/>
        </g>
        <path id="Path_688" data-name="Path 688" d="M2199.9,1151.652c-4.017-.06-8-2.452-9.981-2.1s-8.442,4.833-7.626,5.008,5.938-2.481,6.113-2.521a8.616,8.616,0,0,0,4.017,2.53c2.736.691.02-2.051,8.5.511C2206.439,1156.739,2199.9,1151.652,2199.9,1151.652Z" transform="translate(-2155.52 -1103.194)" fill="#f09959"/>
        <path id="Path_689" data-name="Path 689" d="M2534.3,913.19l.591,4.756s-5.2.309-7.785,1.765-6.4,5.664-6.4,5.664l3.119-5.37.449-3.435Z" transform="translate(-2457.11 -892.626)" fill="#f2e5de"/>
        <path id="Path_690" data-name="Path 690" d="M2377.618,965.836c-3.862-.724-5.646,2.736-8.15,8.383a81.18,81.18,0,0,1-7.626,13.39c-.85.884-14.322,0-14.322,0s-.408,3.9,0,4.366,2.737.408,2.737.408.932.743,1.8,1.333,8.266,1.695,11.7,1.52,6.578-.466,7.043-.99,9.837-14.964,10.421-20.144S2379.588,966.2,2377.618,965.836Z" transform="translate(-2302.642 -939.447)" fill="#f2e5de"/>
        <path id="Path_691" data-name="Path 691" d="M2469.833,727.147c-7.3.35-6.156,11.334-6.156,11.334s1.9.585,5.87-.07a21.917,21.917,0,0,1-.174-4.192,27.453,27.453,0,0,0,1.049,3.93c.84.384,1.788.043,3.406-.346a7.184,7.184,0,0,0,4.779,5.47c1.774.558,3.651,1.223,5.747.174s.944-11.759-.17-13.914c-1.669-3.234-4.446-6.127-9.25-4.6a35.64,35.64,0,0,0-5.1,2.214Z" transform="translate(-2406.243 -724.513)" fill="#303c60"/>
        <path id="Path_692" data-name="Path 692" d="M2637.22,861.955l2.985,4.36s-3.309,8.266,6.314,12.013c7.537,2.933,6.648,8.1,3.244,13.3s2.037,9.736,2.037,9.736.831-5.758,8.152-6.844c9.984-1.482,12.811-14.886,5.354-21.589-6.171-5.544-8.048-.954-12.226-5.931s-12.063-1.615-12.063-1.615l-2.89-4.214Z" transform="translate(-2560.931 -846.276)" fill="#303c60"/>
        <g id="Group_1213" data-name="Group 1213" transform="translate(79.823 17.211)">
          <path id="Path_693" data-name="Path 693" d="M2697.635,905.364a.266.266,0,0,1-.234-.393c2.511-4.59.462-10.147-.567-11.653-.109-.159-.212-.321-.323-.492-1.013-1.58-2.273-3.547-8.995-4.757a10.673,10.673,0,0,1-4.318-2.273c-2.866-2.1-6.116-4.49-13.175-1.24a.265.265,0,0,1-.222-.482c7.344-3.38,10.727-.894,13.711,1.295a10.338,10.338,0,0,0,4.1,2.178c6.951,1.252,8.28,3.326,9.347,4.993.108.168.209.326.314.477,1.079,1.577,3.226,7.4.6,12.207a.268.268,0,0,1-.233.14Z" transform="translate(-2669.646 -882.417)" fill="#303c60"/>
        </g>
        <g id="Group_1214" data-name="Group 1214" transform="translate(66.894 9.771)">
          <path id="Path_694" data-name="Path 694" d="M2558.81,824.462a10.442,10.442,0,0,1-1.55-.125c-2.555-.383-5.982-1.834-6.25-9.987a.265.265,0,0,1,.53-.017c.111,3.36.775,5.847,1.981,7.392a5.567,5.567,0,0,0,3.815,2.087c2.364.354,3.931-.083,4.657-1.3a.265.265,0,0,1,.455.272A3.884,3.884,0,0,1,2558.81,824.462Z" transform="translate(-2551.01 -814.085)" fill="#303c60"/>
        </g>
      </g>
      <path id="Path_695" data-name="Path 695" d="M1711.33,1298.319h1.962l7.631-58.339h-4.316Z" transform="translate(-1549.792 -1118.636)" fill="#2e5b9a"/>
      <path id="Path_696" data-name="Path 696" d="M2243.745,1298.319h-1.962l-7.631-58.339h4.317Z" transform="translate(-2015.633 -1118.636)" fill="#2e5b9a"/>
      <g id="Group_1216" data-name="Group 1216" transform="translate(281.338 116.848)">
        <path id="Path_697" data-name="Path 697" d="M2999.183,1323.43c3.393,3.1,1.918,6.2-.591,11.954s-2.951,27.006-2.951,27.006l2.066-.3s-.3-21.841,2.509-27.745,3.985-8.855,6.493-6.936S2999.183,1323.43,2999.183,1323.43Z" transform="translate(-2975.47 -1309.839)" fill="#74b570"/>
        <path id="Path_698" data-name="Path 698" d="M3009.531,1208.294c.412-1.836,2.861-3.824,6.134-5.51-.487,2.71-2.048,7.138-.433,8.048,2.179,1.225.212-4.959,1.053-8.358a40.456,40.456,0,0,1,10.177-3.339c0,.013-.009.025-.014.037-1.919,4.871-4.427,6.788-3.394,7.526.775.555,3.309-5.071,6.651-7.954,2.509-.134,4.632.206,5.887,1.2,1.941,1.537,3.243,2.9,1.291,7.579a8.776,8.776,0,0,1-4.238,1.536c-4.427.442-6.493.591-3.395,2.066,1.518.723,4.062-.041,6.124-.505-.669,1.233-1.49,2.628-2.491,4.218a15.654,15.654,0,0,1-2.074,2.639,6.55,6.55,0,0,1-3.33-.005c-2.066-.886-7.379-3.689-8.7-2.509-1.3,1.155,9.837,1.887,9.068,4.823-5.4,3.11-11.577,1.631-12.67-1.226C3013.705,1214.725,3008.29,1213.823,3009.531,1208.294Z" transform="translate(-2987.684 -1198.716)" fill="#9cd499"/>
        <path id="Path_699" data-name="Path 699" d="M2976.878,1463.72c-5.9-4.428-11.955-.3-15.053,4.427s-.886,15.348-.886,15.348,1.181,0,1.181-.442-3.247-12.544,4.427-18c4.8-3.415,8.265-1.771,8.7-.147s-1.918,4.575-1.918,4.575Z" transform="translate(-2943.869 -1433.154)" fill="#74b570"/>
        <path id="Path_700" data-name="Path 700" d="M2986.723,1395.65c5.9,0,7.822,9.15,6.2,14.463s-3.838,15.2-3.838,15.2l-1.476-1.475s5.608-13.873,4.28-20.071-4.576-7.231-5.166-7.231S2986.723,1395.65,2986.723,1395.65Z" transform="translate(-2967.29 -1374.188)" fill="#9cd499"/>
        <path id="Path_701" data-name="Path 701" d="M3022.191,1518.056a4.269,4.269,0,0,1,1.554-1.306,11.771,11.771,0,0,1-.306,1.264c-.74,2.42-1.6,5.791-2.322,8.743-.066-.378-.166-.96-.321-1.859-.037-.213-.066-.442-.086-.687a57.438,57.438,0,0,0,1.481-6.155Z" transform="translate(-2997.807 -1482.09)" fill="#74b570"/>
        <path id="Path_702" data-name="Path 702" d="M3024.154,1461.111c11.216-4.722,5.306-11.2,15.195-6.924a1.721,1.721,0,1,1-.738,2.361c-2.951-.442-1.918,1.919,2.951,2.509a10.932,10.932,0,0,1,2.282.482c2.32,4.456,3.365,10.319-1.544,12.358a11.116,11.116,0,0,1-3.494.715c-1.515-1.2.37-8.173-1.967-7.211-2.243.923.7,5.974.3,7.246a32.409,32.409,0,0,1-7.007-.982,3.491,3.491,0,0,1-1.853-2.132c-.738-3.1,4.132-5.018,4.28-7.675.136-2.444-1.785,5.373-6.874,6.523C3021.085,1466.236,3018.911,1463.32,3024.154,1461.111Z" transform="translate(-2998.156 -1425.101)" fill="#9cd499"/>
        <path id="Path_703" data-name="Path 703" d="M2828.567,1365.054c1.18-2.509-1.918-3.1-1.771-1.18.131,1.7.145,5.833-1.6,6.958a27.38,27.38,0,0,1-10.191-3.384,1.255,1.255,0,0,1,.13-.77c1.329-2.657,9.888-4.871,7.231-5.755-2.115-.705-5.823,3.458-8.81,5.554-1.794-1.361-3-2.984-3-4.8,0-2.452,2.981-5.227,6.831-6.553,1.734.174,3.345,1.123,5.86,2.548,3.716,2.106,2.857-1.3-.656-3.319a10.584,10.584,0,0,1,8.287,4.549,5.172,5.172,0,0,0,1.192,3.371c3.821,5.585-.588,8.845-5.86,8.634A34.757,34.757,0,0,1,2828.567,1365.054Z" transform="translate(-2810.561 -1337.397)" fill="#9cd499"/>
        <path id="Path_704" data-name="Path 704" d="M3099.391,1476.555a50.176,50.176,0,0,0,10.028,6.609c3.935,1.771,3.149,7.543,3.149,7.543s.591-4.985-2.69-6.691-5.445-3.739-7.937-4.132a36.126,36.126,0,0,1-3.87-.787s.787-1.574.328-2.165S3099.391,1476.555,3099.391,1476.555Z" transform="translate(-3066.737 -1446.242)" fill="#74b570"/>
        <path id="Path_705" data-name="Path 705" d="M3067.507,1236.56c-10.561,2.82-18.3,9.577-19.744,11.217s-1.443,2.1-1.443,2.1l1.115,2.1.524-.263s-.852-1.771,1.378-4.068a40.322,40.322,0,0,1,11.741-8.461C3064.294,1237.806,3067.507,1236.56,3067.507,1236.56Z" transform="translate(-3020.627 -1232.437)" fill="#74b570"/>
        <path id="Path_706" data-name="Path 706" d="M2930.772,1654.665h4.035a5.2,5.2,0,0,0,5.2-5.2V1640.2h-14.427v9.27a5.194,5.194,0,0,0,5.2,5.195Z" transform="translate(-2913.043 -1592.086)" fill="#75a1de"/>
        <rect id="Rectangle_1194" data-name="Rectangle 1194" width="14.424" height="1.016" transform="translate(12.534 49.771)" fill="#fff"/>
        <rect id="Rectangle_1195" data-name="Rectangle 1195" width="14.424" height="0.597" transform="translate(12.534 51.623)" fill="#fff"/>
      </g>
      <g id="Group_1217" data-name="Group 1217" transform="translate(12.536 161.341)">
        <path id="Path_707" data-name="Path 707" d="M548.116,1612.428h3.442a1.317,1.317,0,0,0,1.316-1.316v-2.835a1.317,1.317,0,0,0-1.316-1.316h-3.442a1.317,1.317,0,0,0-1.316,1.316v2.835a1.316,1.316,0,0,0,1.316,1.316Z" transform="translate(-524.713 -1606.961)" fill="#9ec8ff"/>
        <path id="Path_708" data-name="Path 708" d="M446.786,1612.428h3.442a1.317,1.317,0,0,0,1.316-1.316v-2.835a1.317,1.317,0,0,0-1.316-1.316h-3.442a1.317,1.317,0,0,0-1.316,1.316v2.835a1.316,1.316,0,0,0,1.316,1.316Z" transform="translate(-434.427 -1606.961)" fill="#9ec8ff"/>
        <path id="Path_709" data-name="Path 709" d="M345.456,1612.428H348.9a1.317,1.317,0,0,0,1.316-1.316v-2.835a1.317,1.317,0,0,0-1.316-1.316h-3.442a1.317,1.317,0,0,0-1.316,1.316v2.835a1.316,1.316,0,0,0,1.316,1.316Z" transform="translate(-344.14 -1606.961)" fill="#9ec8ff"/>
      </g>
      <g id="Group_1218" data-name="Group 1218" transform="translate(322.664 60.181)">
        <path id="Path_710" data-name="Path 710" d="M3195.227,683.519v-3.442a1.316,1.316,0,0,0-1.316-1.316h-2.834a1.316,1.316,0,0,0-1.316,1.316v3.442a1.316,1.316,0,0,0,1.316,1.316h2.834A1.316,1.316,0,0,0,3195.227,683.519Z" transform="translate(-3189.76 -678.761)" fill="#9ec8ff"/>
        <path id="Path_711" data-name="Path 711" d="M3195.227,784.849v-3.441a1.316,1.316,0,0,0-1.316-1.316h-2.834a1.316,1.316,0,0,0-1.316,1.316v3.442a1.316,1.316,0,0,0,1.316,1.316h2.834A1.316,1.316,0,0,0,3195.227,784.849Z" transform="translate(-3189.76 -769.048)" fill="#9ec8ff"/>
        <path id="Path_712" data-name="Path 712" d="M3195.227,886.187v-3.442a1.316,1.316,0,0,0-1.316-1.316h-2.834a1.316,1.316,0,0,0-1.316,1.316v3.442a1.316,1.316,0,0,0,1.316,1.316h2.834A1.315,1.315,0,0,0,3195.227,886.187Z" transform="translate(-3189.76 -859.343)" fill="#9ec8ff"/>
      </g>
    </g>
  </g>
</svg>
