<svg xmlns="http://www.w3.org/2000/svg" width="62" height="62" viewBox="0 0 62 62"><defs><style>.a{fill:rgba(244,163,76,0.93);}</style></defs><g transform="translate(-16 -16)"><path class="a" d="M41.833,211.133v-4.916a4.106,4.106,0,0,0-1.211-2.923l-5.9-5.9a1.033,1.033,0,0,1,0-1.461l5.9-5.9a4.106,4.106,0,0,0,1.211-2.923V182.2a3.1,3.1,0,0,0,0-6.2H19.1a3.1,3.1,0,0,0,0,6.2v4.916a4.106,4.106,0,0,0,1.211,2.923l5.9,5.9a1.033,1.033,0,0,1,0,1.461l-5.9,5.9a4.106,4.106,0,0,0-1.211,2.923v4.916a3.1,3.1,0,0,0,0,6.2H41.833a3.1,3.1,0,0,0,0-6.2ZM18.067,179.1a1.034,1.034,0,0,1,1.033-1.033H41.833a1.033,1.033,0,1,1,0,2.067H19.1A1.034,1.034,0,0,1,18.067,179.1Zm3.1,27.117a2.054,2.054,0,0,1,.605-1.461l5.9-5.9a3.1,3.1,0,0,0,0-4.384l-5.9-5.9a2.054,2.054,0,0,1-.605-1.461V182.2h18.6v4.916a2.054,2.054,0,0,1-.605,1.461l-5.9,5.9a3.1,3.1,0,0,0,0,4.384l5.9,5.9a2.054,2.054,0,0,1,.605,1.461v4.916H39.2l-4.865-5.473a5.172,5.172,0,0,0-7.732,0l-4.865,5.473h-.569Zm15.266,4.916H24.5l3.644-4.1a3.106,3.106,0,0,1,4.643,0Zm5.4,4.133H19.1a1.033,1.033,0,1,1,0-2.067H41.833a1.033,1.033,0,1,1,0,2.067Z" transform="translate(0 -139.333)"/><path class="a" d="M174.5,21.167h-5.167V20.133a4.133,4.133,0,0,0-8.267,0v1.033h-3.1V20.133a4.133,4.133,0,0,0-8.267,0v1.033h-3.1V20.133a4.133,4.133,0,1,0-8.267,0v1.033h-5.167a1.033,1.033,0,0,0-1.033,1.033v2.067h-3.1A1.033,1.033,0,0,0,128,25.3v9.3h2.067V26.333h2.067V34.6H134.2V23.233h4.133v3.1a3.1,3.1,0,1,0,6.2,0V25.3h-2.067v1.033a1.033,1.033,0,1,1-2.067,0v-6.2a2.067,2.067,0,0,1,4.133,0v1.033h-2.067v2.067H149.7v3.1a3.1,3.1,0,1,0,6.2,0V25.3h-2.067v1.033a1.033,1.033,0,0,1-2.067,0v-6.2a2.067,2.067,0,1,1,4.133,0v1.033h-2.067v2.067h7.233v3.1a3.1,3.1,0,1,0,6.2,0V25.3H165.2v1.033a1.033,1.033,0,1,1-2.067,0v-6.2a2.067,2.067,0,1,1,4.133,0v1.033H165.2v2.067h8.267V67.667H141.433v2.067h27.9V71.8h-24.8v2.067h25.833a1.033,1.033,0,0,0,1.033-1.033v-3.1h3.1a1.033,1.033,0,0,0,1.033-1.033V22.2A1.033,1.033,0,0,0,174.5,21.167Z" transform="translate(-97.533)"/><path class="a" d="M291.386,282.276a8.049,8.049,0,0,1,5.786,1.25l1.235-1.657a10.01,10.01,0,0,0-7.3-1.64c-4.367.6-7.939,4.288-7.928,7.982l-3.541.161.094,2.065,3.848-.175a6.5,6.5,0,0,0,3.016,3.209,10,10,0,0,0,4.783,1.155,11.714,11.714,0,0,0,1.589-.109c3.611-.495,5.8-2.306,6.115-4.96l3.384-.154-.094-2.065-3.415.155c-.575-1.905-2.989-3.279-5.373-2.952l.28,2.048A3.29,3.29,0,0,1,296.7,287.6l-11.453.521C285.312,285.682,287.8,282.767,291.386,282.276Zm1.3,10.192c-2.958.405-5.66-.584-6.829-2.311l11.113-.505c-.352,1.529-1.786,2.474-4.284,2.816Z" transform="translate(-229.583 -230.004)"/><path class="a" d="M280,152h2.067v2.067H280Z" transform="translate(-229.9 -118.433)"/><path class="a" d="M312,152h17.567v2.067H312Z" transform="translate(-257.767 -118.433)"/><path class="a" d="M264,184h23.767v2.067H264Z" transform="translate(-215.967 -146.3)"/><path class="a" d="M264,216h23.767v2.067H264Z" transform="translate(-215.967 -174.167)"/><path class="a" d="M264,248h9.3v2.067H264Z" transform="translate(-215.967 -202.033)"/><path class="a" d="M80,264H92.4v2.067H80Z" transform="translate(-55.733 -215.967)"/><path class="a" d="M120,360h2.067v2.067H120Z" transform="translate(-90.567 -299.567)"/></g></svg>