<svg xmlns="http://www.w3.org/2000/svg" width="61.524" height="61.888" viewBox="0 0 61.524 61.888"><defs><style>.a{fill:rgba(244,163,76,0.93);}</style></defs><g transform="translate(-1.502)"><circle class="a" cx="1.76" cy="1.76" r="1.76" transform="translate(6.412 5.064)"/><circle class="a" cx="1.76" cy="1.76" r="1.76" transform="translate(11.763 5.064)"/><circle class="a" cx="1.76" cy="1.76" r="1.76" transform="translate(17.114 5.064)"/><path class="a" d="M111.511,382.8H87.456a.9.9,0,1,0,0,1.8h24.054a.9.9,0,0,0,0-1.8Z" transform="translate(-74.771 -336.53)"/><path class="a" d="M87.456,142.992h24.054a.9.9,0,1,0,0-1.8H87.456a.9.9,0,1,0,0,1.8Z" transform="translate(-74.771 -124.121)"/><path class="a" d="M87.456,175.209H106.1a.9.9,0,1,0,0-1.8H87.456a.9.9,0,1,0,0,1.8Z" transform="translate(-74.771 -152.444)"/><path class="a" d="M62.644,44.6c-.034-.209-.082-.428-.14-.651L60.115,34.9a.9.9,0,0,0-1.745.461l2.389,9.047c.044.167.079.33.1.482a27.479,27.479,0,0,1,.359,4.417v7.469a.29.29,0,0,1-.292.29l-11.755.024a.29.29,0,0,1-.29-.29V48.578a1.5,1.5,0,0,0-1.179-1.468L44.938,46.5a4.38,4.38,0,0,1-3.452-4.288,3.534,3.534,0,0,0-.731-2.162L34.385,31.9a.53.53,0,0,1,.091-.743,3.748,3.748,0,0,1,2.336-.8h.049a3.8,3.8,0,0,1,2.929,1.452s1.524,1.948,2.551,3.259a3.963,3.963,0,0,0,3.1,1.524,4.006,4.006,0,0,0,4-3.994l.011-7.15a2.819,2.819,0,0,0-.171-.973l-1.531-4.2V10.465l6.253,13.98a8.656,8.656,0,0,0,1.329,2.1,6.891,6.891,0,0,1,1.421,2.709l.6,2.256a.9.9,0,0,0,1.745-.461l-.6-2.255a8.707,8.707,0,0,0-1.8-3.422,6.851,6.851,0,0,1-1.052-1.661L49.31,9.523a3.391,3.391,0,0,0-1.556-1.64V2.106A2.108,2.108,0,0,0,45.649,0H39.136a.9.9,0,0,0,0,1.8h6.513a.3.3,0,0,1,.3.3v9.805H3.307V2.106a.3.3,0,0,1,.3-.3H34.6a.9.9,0,0,0,0-1.8H3.607A2.108,2.108,0,0,0,1.5,2.106V59.782a2.108,2.108,0,0,0,2.106,2.106h8.156a.9.9,0,1,0,0-1.8H7.315V53.736a.824.824,0,0,1,.823-.823H35.791a.9.9,0,0,1,.9.9v6.268H16.207a.9.9,0,0,0,0,1.8H45.649a2.108,2.108,0,0,0,2.106-2.106V58.333a2.087,2.087,0,0,0,1.423.56l11.755-.024a2.1,2.1,0,0,0,2.094-2.094V49.307a29.3,29.3,0,0,0-.382-4.709ZM33.364,29.736a2.334,2.334,0,0,0-.4,3.277l3.73,4.77s0,0,0,.006v2.673a.824.824,0,0,1-.823.823H8.138a.824.824,0,0,1-.823-.823v-13.2a.824.824,0,0,1,.823-.823H35.791a.9.9,0,0,1,.9.9v1.209a5.608,5.608,0,0,0-3.329,1.183ZM45.649,60.083H38.5V53.815a2.71,2.71,0,0,0-2.707-2.707H8.138A2.631,2.631,0,0,0,5.51,53.736v6.347h-1.9a.3.3,0,0,1-.3-.3V13.715H45.95v21.01a2.127,2.127,0,0,1-2.189-.773c-1.026-1.309-2.548-3.255-2.548-3.255A5.594,5.594,0,0,0,38.5,28.808V27.343a2.71,2.71,0,0,0-2.707-2.707H8.138A2.631,2.631,0,0,0,5.51,27.264v13.2a2.631,2.631,0,0,0,2.628,2.628H35.87A2.631,2.631,0,0,0,38.5,40.461v-.372l.836,1.07a1.7,1.7,0,0,1,.348,1.055,6.174,6.174,0,0,0,4.866,6.045l1.4.311V59.782a.3.3,0,0,1-.3.3Z"/><path class="a" d="M31.459,368.244a2.662,2.662,0,1,0,2.662,2.662A2.665,2.665,0,0,0,31.459,368.244Zm0,3.519a.857.857,0,1,1,.857-.857A.858.858,0,0,1,31.459,371.763Z" transform="translate(-23.996 -323.733)"/><path class="a" d="M31.459,131.954a2.662,2.662,0,1,0-2.662-2.662A2.665,2.665,0,0,0,31.459,131.954Zm0-3.519a.857.857,0,1,1-.857.857A.858.858,0,0,1,31.459,128.435Z" transform="translate(-23.996 -111.324)"/></g></svg>