<svg xmlns="http://www.w3.org/2000/svg" width="20.375" height="20.375" viewBox="0 0 20.375 20.375">
  <path id="Icon_awesome-check-circle" data-name="Icon awesome-check-circle" d="M20.938,10.75A10.188,10.188,0,1,1,10.75.563,10.187,10.187,0,0,1,20.938,10.75ZM9.572,16.144,17.13,8.586a.657.657,0,0,0,0-.929L16.2,6.727a.657.657,0,0,0-.93,0L9.107,12.891,6.229,10.013a.657.657,0,0,0-.93,0l-.929.929a.657.657,0,0,0,0,.929l4.272,4.272a.657.657,0,0,0,.93,0Z" transform="translate(-0.563 -0.563)" fill="#f78077"/>
</svg>
