<svg xmlns="http://www.w3.org/2000/svg" width="45" height="60" viewBox="0 0 45 60"><defs><style>.a{fill:#707789;}.b{fill:#636978;}.c{fill:#414952;}.d{fill:#23272b;}</style></defs><path class="a" d="M81.84,41.791l-3.507-8.158a9.734,9.734,0,0,1-.744-3.1A20.336,20.336,0,0,0,37.03,32.041v1.01h0v.286a6.007,6.007,0,0,0,.052.613l4.075,23.941V72.258h20.51V61.669a2.858,2.858,0,0,1,2.892-2.818h5.165a6.568,6.568,0,0,0,6.657-6.475V45.122h3.182a2.493,2.493,0,0,0,2.053-1.074A2.35,2.35,0,0,0,81.84,41.791Z" transform="translate(-37.03 -12.258)"/><path class="b" d="M98.265,45.153H95.083v7.254a6.568,6.568,0,0,1-6.658,6.47H83.261a2.854,2.854,0,0,0-2.892,2.813v10.6H75.72V12.32h.336A20.093,20.093,0,0,1,96.307,30.567a9.734,9.734,0,0,0,.734,3.1l3.507,8.158a2.35,2.35,0,0,1-.226,2.259,2.493,2.493,0,0,1-2.057,1.071Z" transform="translate(-55.737 -12.289)"/><path class="c" d="M76.641,35.53,67.3,37.273,69.121,39.2l-5.485,4.451-5.94-5.41L47.16,46.963,50.1,50.329l7.448-6.169,5.9,5.385,8.739-7.083,1.859,1.969Z" transform="translate(-41.928 -23.84)"/><path class="d" d="M85.994,42.462l1.859,1.974,2.582-8.906L81.1,37.273,82.92,39.2l-5.49,4.451L75.7,42.07v6.053l1.549,1.422Z" transform="translate(-55.728 -23.84)"/></svg>