<svg xmlns="http://www.w3.org/2000/svg" width="21" height="21" viewBox="0 0 21 21">
  <path id="user" d="M10.5,8A10.5,10.5,0,1,0,21,18.5,10.5,10.5,0,0,0,10.5,8Zm0,4.065A3.726,3.726,0,1,1,6.774,15.79,3.726,3.726,0,0,1,10.5,12.065Zm0,14.565a8.113,8.113,0,0,1-6.2-2.888,4.721,4.721,0,0,1,4.17-2.532,1.036,1.036,0,0,1,.3.047,5.606,5.606,0,0,0,1.732.292,5.584,5.584,0,0,0,1.732-.292,1.036,1.036,0,0,1,.3-.047,4.721,4.721,0,0,1,4.17,2.532A8.113,8.113,0,0,1,10.5,26.629Z" transform="translate(0 -8)" fill="#036"/>
</svg>
