<svg xmlns="http://www.w3.org/2000/svg" xmlns:xlink="http://www.w3.org/1999/xlink" width="252" height="80" viewBox="0 0 252 80">
  <defs>
    <style>
      .cls-1, .cls-2 {
        fill: #fff;
      }

      .cls-1 {
        stroke: #707070;
      }

      .cls-3 {
        clip-path: url(#clip-path);
      }

      .cls-4 {
        fill: #29abe2;
      }

      .cls-5 {
        fill: #3f6b77;
      }

      .cls-6 {
        fill: #0b9cc0;
      }

      .cls-7 {
        fill: #197d9b;
      }

      .cls-8 {
        fill: #186470;
      }

      .cls-9 {
        fill: #4d4d4d;
      }

      .cls-10 {
        fill: #333;
      }

      .cls-11, .cls-12 {
        fill: none;
        stroke-miterlimit: 10;
        stroke-width: 2.23px;
      }

      .cls-11 {
        stroke: #666;
      }

      .cls-12 {
        stroke: #4d4d4d;
      }
    </style>
    <clipPath id="clip-path">
      <rect id="Rectangle_2418" data-name="Rectangle 2418" class="cls-1" width="163" height="37" transform="translate(0.001 0)"/>
    </clipPath>
  </defs>
  <g id="Buyhatke_logo" transform="translate(-454 -5721)">
    <rect id="testimonialBg" class="cls-2" width="252" height="80" rx="6" transform="translate(454 5721)"/>
    <g id="Buy_Hatke_logo" class="cls-3" transform="translate(498.999 5742)">
      <g id="download" transform="translate(2.215 2.452)">
        <g id="Group_1824" data-name="Group 1824" transform="translate(83.519 3.024)">
          <path id="Path_4358" data-name="Path 4358" class="cls-4" d="M525.176,43.941c0-2.679.52-5.326.374-8.022-.065-1.072-.114-2.923-.893-3.767-.763-.844-1.819.016-2.452.65-2.42,2.4-2.452,5.245-2.03,8.428.195,1.559,1.608,4.79-.991,4.9-2.16.1-2.208-1.656-2.484-3.345-.406-2.468-.666-4.969-.926-7.47-.309-2.874-.8-5.749-1.121-8.623-.195-1.705-.8-4.466.309-5.943a2.919,2.919,0,0,1,3.41-.65c1.364.763.747,2.842.7,4.092-.114,2.972.373,5.878.471,8.834.65-2.533,4.449-4.612,6.95-4.011,2.615.633,3.085,4.3,3.232,6.5a71.49,71.49,0,0,1-.308,7.454c-.049,1.1-.211,2.111-1.38,2.517-1.185.422-2.858-.1-2.858-1.543Zm5.927-.211c0-3.962,4.222-6.658,7.048-8.769.357-.26.779-.471,1.1-.747.422-.341.471-.032.292-.8a2.2,2.2,0,0,0-1.591-1.835,4.435,4.435,0,0,0-2.874,1.007c-.763.552-1.185,1.429-2.208.877-2.582-1.38.6-3.118,1.867-3.654,1.608-.682,3.605-1.559,5.343-.844,3.459,1.429,3.979,7.194,4.092,10.377.049,1.754.487,5.911-1.754,6.4-.844.179-2.062.049-2.4-.893a3.666,3.666,0,0,1,.049-1.624c-1.51,1.705-8.964,4.872-8.964.5Zm8.931-7.08c-1.705,1.088-4.839,2.988-4.937,5.343-.049,1.3,1.185,1.218,2.111.828.861-.373,1.965-1.965,2.939-1.965,0-1.332,0-2.826-.114-4.206Zm7.373-3.605c-.779.081-1.884.39-2.517-.227-.893-.893-.1-2,.861-2.241.227-.065,1.283,0,1.4-.179.162-.26-.065-1.267-.1-1.559-.114-1.088-.39-2.176-.438-3.28a1.838,1.838,0,0,1,1.12-2.046,2.322,2.322,0,0,1,2.712.828,7.776,7.776,0,0,1,.292,2.679c.081.958.162,1.916.162,2.891.861-.146,1.624-.666,2.355.114a1.521,1.521,0,0,1,.13,1.916c-.438.52-1.12.357-1.689.617-.877.406-.26-.13-.455.438a2.387,2.387,0,0,0,.033.828c.13,3.345.438,6.69.585,10.036.065,1.705-.747,3.248-2.793,2.517-1.656-.585-1.3-2.566-1.364-4.011-.114-3.1-.292-6.236-.292-9.321C547.293,33.045,547.407,33.256,547.407,33.045Zm12.049,6.593c.049,1.153.276,2.29.438,3.426a2.539,2.539,0,0,1-.211,2.095,2.045,2.045,0,0,1-3.654-.974c-.406-3.248-.487-6.528-.926-9.776-.276-2.014-.731-3.995-1.007-6.008-.195-1.429-.6-3.134,1.137-3.7,2.192-.715,2.322,1.348,2.631,2.842a48.317,48.317,0,0,1,.991,5.213c1.185-1.023,2.322-2.111,3.475-3.167.373-.341,1.088-.812,1.283-1.283.146-.357-.13-.568-.049-.942.1-.438.552-.633.942-.779,1.705-.65,3.556.227,2.631,2.225-.552,1.185-2.014,2.111-2.988,2.923C562.882,32.8,561.6,33.873,560.3,34.9c-.276.227-.974.568-1.055.909-.146.568.422.682.926.974a47.806,47.806,0,0,0,4.823,2.647c1.267.552,3.167.7,3.605,2.273.7,2.55-2.387,1.819-3.637,1.3a19.738,19.738,0,0,1-5.505-3.361C559.488,40.434,560.4,40.483,559.456,39.638Z" transform="translate(-514.314 -19.798)"/>
          <path id="Path_4359" data-name="Path 4359" class="cls-4" d="M858.953,38.522c0,1.25-1.932,2.582-2.744,3.248a37.436,37.436,0,0,1-4.839,3.605c-3.54,2.046-4.823-3.962-4.807-6.349-1.137.455-1.8-.747-1.364-1.738.211-.455.52-.5.877-.8.422-.049.552-.276.422-.682l.049-.974c.162-1.9.7-4.888,2.371-6.106,1.592-1.169,4.953.568,6.22,1.656,1.445,1.234,2.03,3.2.374,4.547-1.429,1.169-3.573,1.559-4.888,2.842-.422.406-.39.487-.374,1.153.016.779.065,2.582.893,3.037,1.283.7,3.475-2.306,4.222-3.037a5.224,5.224,0,0,1,1.932-1.494C858.125,37.239,858.953,37.629,858.953,38.522Zm-7.762-6.853c-.779,0-1.023,2.809-1.023,3.329.7-.373,2.387-.731,2.842-1.38C853.578,32.806,851.986,31.669,851.191,31.669Zm13.17,6.008c0,1.056-.487,2.208-1.672,2.257a2.15,2.15,0,0,1-2.176-1.543c-.341-1.705.065-3.816.081-5.554.032-3.459-.39-6.918-.406-10.377,0-1.656,1.608-3.7,3.313-2.241,1.267,1.088.666,3.995.65,5.424C864.133,29.656,864.36,33.667,864.36,37.678Zm-3.995,6.837a2.226,2.226,0,0,1,2.533-1.949,2.716,2.716,0,0,1,1.738,2.793C864,47.5,860.366,46.674,860.366,44.514Z" transform="translate(-791.352 -19.721)"/>
        </g>
        <path id="Path_4360" data-name="Path 4360" class="cls-5" d="M205.344,45.479v7.649a6.845,6.845,0,0,1,8.3-1.185,8.148,8.148,0,0,1,3.784,7.048,8.268,8.268,0,0,1-3.621,7.145,6.786,6.786,0,0,1-8.444-.942c0,.309.179,1.283,0,1.526-.162.211-.731.1-1.056.1h-1.981c-.146,0-.715.081-.8-.016-.162-.179,0-1.218,0-1.445V46.6c0-.341-.114-.958.114-1.12.309-.227,1.705,0,2.095,0Zm4.043,9.11c-5.489,0-5.586,8.931-.146,9.078C214.827,63.829,214.99,54.589,209.387,54.589Zm10.2-3.167h2.891c.861,0,1.007-.211,1.007.617V58.6c0,1.25-.114,2.793.617,3.881a2.832,2.832,0,0,0,4.644-.13c.65-1.072.487-2.5.5-3.7V52.023c0-.861.195-.617,1.056-.617h1.738c.162,0,.958-.114,1.056,0,.26.276,0,2.014,0,2.371a60.661,60.661,0,0,1-.179,7.681c-.536,4.238-4.173,6.366-8.282,5.6a5.853,5.853,0,0,1-4.6-4.141,17.808,17.808,0,0,1-.455-5.164C219.569,55.644,219.585,53.533,219.585,51.422Zm14.648,0h3.946l3.995,9.662,4.4-9.662h3.946l-9.63,21.029h-3.979l3.167-6.788Z" transform="translate(-168.741 -38.188)"/>
        <path id="Path_4361" data-name="Path 4361" class="cls-6" d="M12.1,28.6H34.266V55.2H12.1Z" transform="translate(-10.135 -24.134)"/>
        <path id="Path_4362" data-name="Path 4362" class="cls-7" d="M2,28.6H24.131l-1.867.926,3.832,1.38H0l3.832-1.38" transform="translate(0 -24.134)"/>
        <path id="Path_4363" data-name="Path 4363" class="cls-8" d="M0,35.68c2.014-.715,2.306-.828,3.832-1.38v1.38Zm26.047,0c-2.014-.715-2.306-.828-3.832-1.38v1.38Z" transform="translate(0 -28.909)"/>
        <g id="Group_1825" data-name="Group 1825" transform="translate(6.544 5.96)">
          <ellipse id="Ellipse_88" data-name="Ellipse 88" class="cls-9" cx="0.373" cy="0.325" rx="0.373" ry="0.325"/>
          <ellipse id="Ellipse_89" data-name="Ellipse 89" class="cls-9" cx="0.373" cy="0.325" rx="0.373" ry="0.325" transform="translate(12.26)"/>
        </g>
        <path id="Path_4364" data-name="Path 4364" class="cls-4" d="M0,42.8H26.1V67.418H0Z" transform="translate(0 -36.028)"/>
        <path id="Path_4365" data-name="Path 4365" class="cls-2" d="M57.682,80.2h6.9v.016a8.458,8.458,0,0,1-.7,1.137H62.05a2.93,2.93,0,0,1,.52,1.234h1.965a.035.035,0,0,1,.032.032q-.658,1.12-.682,1.12H62.619a3.881,3.881,0,0,1-.487,1.4,3.233,3.233,0,0,1-1.137,1.072,4.039,4.039,0,0,1-1.916.536v.016a2.863,2.863,0,0,0,.455.666l3.41,4.661v.227a.035.035,0,0,1-.032.032H61.417c-2.7-3.556-4.043-5.359-4.043-5.375V85.884l.016-.049a6.17,6.17,0,0,0,.844.065c1.51,0,2.452-.552,2.826-1.673a1.719,1.719,0,0,0,.081-.5H57.032c-.016,0-.032-.016-.032-.049.455-.747.682-1.12.7-1.12h3.264v-.016a2.079,2.079,0,0,0-1.088-1.007,2.957,2.957,0,0,0-1.039-.211H57v-.049C57.455,80.573,57.682,80.2,57.682,80.2Z" transform="translate(-47.744 -67.355)"/>
        <g id="Group_1826" data-name="Group 1826" transform="translate(4.92 9.191)">
          <circle id="Ellipse_90" data-name="Ellipse 90" class="cls-10" cx="0.471" cy="0.471" r="0.471"/>
          <circle id="Ellipse_91" data-name="Ellipse 91" class="cls-10" cx="0.471" cy="0.471" r="0.471" transform="translate(15.313)"/>
        </g>
        <path id="Path_4366" data-name="Path 4366" class="cls-11" d="M54.742,7.531c0-8.574-12.342-8.574-12.342,0" transform="translate(-35.515 -1.1)"/>
        <path id="Path_4367" data-name="Path 4367" class="cls-12" d="M48.665,10.674c0-12.7-15.265-12.7-15.265,0" transform="translate(-27.976 -1.142)"/>
      </g>
    </g>
  </g>
</svg>
