<svg xmlns="http://www.w3.org/2000/svg" width="67.673" height="27.067" viewBox="0 0 67.673 27.067">
  <path id="ibm-ar21" d="M20.824,14.33v1.852H33.995V14.33Zm15.038,0v1.852H54.633a7.147,7.147,0,0,0-4.456-1.852Zm22.452,0v1.852H69.669L69,14.33Zm19.5,0-.674,1.852H88.391V14.33Zm-56.987,3.6v1.852H33.995V17.931Zm15.038,0v1.848H56.809a4.859,4.859,0,0,0-.671-1.848Zm22.452,0v1.848H70.924L70.3,17.934Zm18.149,0-.624,1.848H88.39V17.934Zm-51.854,3.6v1.854h5.7V21.533Zm15.038,0v1.854h5.7V21.533Zm11.253,0v1.854h5.7a6.3,6.3,0,0,0,.363-1.854Zm11.2,0v1.854h10.1l-.674-1.854Zm13.122,0-.677,1.854H84.709V21.533Zm-50.612,3.6v1.852h5.7V25.137Zm15.038,0v1.852h14.57a6.251,6.251,0,0,0,1.606-1.852Zm22.452,0v1.852h5.7V25.957l.363,1.031h10.45l.389-1.031v1.031h5.7V25.137H74l-.568,1.568-.57-1.568Zm-37.491,3.6V30.59h5.7V28.738Zm15.038,0V30.59H55.824a6.3,6.3,0,0,0-1.606-1.852Zm22.452,0V30.59h5.7V28.738Zm6.741,0,.691,1.852h7.835l.656-1.852Zm10.164,0V30.59h5.7V28.738Zm-54.393,3.6v1.852h5.7V32.34Zm15.038,0v1.852h5.7V32.34Zm11.253,0v1.852h6.066a6.282,6.282,0,0,0-.363-1.852Zm11.2,0v1.852h5.7V32.34Zm8.035,0,.668,1.852h5.251l.674-1.852Zm8.868,0v1.852h5.7V32.34Zm-58.077,3.6V37.8H34.1V35.941Zm14.935,0V37.8H56.141a4.887,4.887,0,0,0,.671-1.854Zm22.555,0V37.8H67.8V35.941Zm13.015,0,.687,1.854h2.672l.645-1.854Zm7.571,0V37.8H88.5V35.941Zm-58.077,3.6V41.4H34.1V39.545Zm14.935,0v1.848H50.176a7.153,7.153,0,0,0,4.456-1.848Zm22.555,0V41.4H67.8V39.545Zm14.319,0,.661,1.846.114,0,.671-1.848Zm6.268,0V41.4H88.5V39.545Z" transform="translate(-20.824 -14.33)" fill="#1f70c1"/>
</svg>
