<svg xmlns="http://www.w3.org/2000/svg" width="153.643" height="28.656" viewBox="0 0 153.643 28.656">
  <g id="honeywell-vector-logo" transform="translate(-5.8 -6.2)">
    <path id="Path_1345" data-name="Path 1345" d="M18.11,6.2h6.859V28.534H18.11v-10.2H12.717v10.2H5.8V6.2h6.917v9.321H18.11Zm26.262,9.731a9.955,9.955,0,0,1,.528,7.8,7.727,7.727,0,0,1-3.869,4.4,10.885,10.885,0,0,1-4.865,1,9.766,9.766,0,0,1-5.745-1.641,8.1,8.1,0,0,1-3.107-4.455,9.317,9.317,0,0,1,1.231-7.8,8.2,8.2,0,0,1,5.628-3.283,11.14,11.14,0,0,1,1.817-.176,11.336,11.336,0,0,1,4.045.586A7.548,7.548,0,0,1,44.372,15.931ZM38.51,18.159a7.325,7.325,0,0,0-.41-2.638c-.352-.821-.938-1.759-1.934-1.759a.743.743,0,0,0-.352.059c-.528.117-1.055.645-1.524,1.7a11.284,11.284,0,0,0-.41,4.162V21.5c-.059,2.931.234,3.81.821,4.748a2.181,2.181,0,0,0,1.29.938,1.477,1.477,0,0,0,1.172-.352,5.459,5.459,0,0,0,1.29-3.224C38.51,22.965,38.51,20.386,38.51,18.159ZM61.782,12.3a7.057,7.057,0,0,0-5.862.234,7.635,7.635,0,0,0-2.169,1.876V12.238H47.3v16.3h6.448V16.81a3.751,3.751,0,0,1,1.641-1.583,1.941,1.941,0,0,1,2.286.234,2.531,2.531,0,0,1,.528,1.7V28.476h6.331V16.048A4.515,4.515,0,0,0,61.782,12.3Zm21.983,3.752a10.414,10.414,0,0,1,1,5.334H73.33v3.283a3.3,3.3,0,0,0,.352,1c.234.352,1.172,1.7,4.338,1.231,3.459-.528,3.4-3.048,3.459-3.048h2.755A4.54,4.54,0,0,1,83.061,26.6a9.644,9.644,0,0,1-5.452,2.462c-2.286.234-5.51.293-8.09-1.876a8.312,8.312,0,0,1-2.638-3.869,10.115,10.115,0,0,1,.586-7.152,8.852,8.852,0,0,1,8.559-4.4C80.013,11.886,82.358,13.352,83.765,16.048Zm-5.686,1.7a11.738,11.738,0,0,0-.234-2.11v-.059a3.418,3.418,0,0,0-.879-1.466,2.04,2.04,0,0,0-2.345-.176,3.464,3.464,0,0,0-1.172,2.11,18.308,18.308,0,0,0-.117,2.99h4.748C78.079,18.921,78.079,18.51,78.079,17.748Zm64.13-1.7a10.414,10.414,0,0,1,1,5.334H131.775v3.283a3.3,3.3,0,0,0,.352,1c.234.352,1.172,1.7,4.338,1.231,3.459-.528,3.4-3.048,3.459-3.048h2.755a4.54,4.54,0,0,1-1.172,2.755,9.644,9.644,0,0,1-5.452,2.462c-2.286.234-5.51.293-8.09-1.876a8.312,8.312,0,0,1-2.638-3.869,10.115,10.115,0,0,1,.586-7.152,8.852,8.852,0,0,1,8.559-4.4C138.516,11.886,140.8,13.352,142.209,16.048Zm-5.628,1.7a11.737,11.737,0,0,0-.234-2.11v-.059a3.418,3.418,0,0,0-.879-1.466,2.04,2.04,0,0,0-2.345-.176,3.464,3.464,0,0,0-1.172,2.11,13.462,13.462,0,0,0-.117,2.99h4.748C136.582,18.921,136.582,18.51,136.582,17.748ZM122.4,12.238l-2.462,9.145-2.755-9.145h-5.628l-2.462,9.145-2.814-9.145H97.482l-3.224,7.738-2.99-7.738H84.292l6.448,16.707a3.176,3.176,0,0,1-.117.645,6.566,6.566,0,0,1-1.407,2.521,1.76,1.76,0,0,1-1.641.586,2.01,2.01,0,0,0,.528-.762,2.944,2.944,0,0,0-.234-2.052c-.352-.762-1.348-1.348-2.872-1.055a2.625,2.625,0,0,0-2.052,3.048c.176,1.348,1,2.462,3.224,2.872a5.037,5.037,0,0,0,4.69-1.466,12.155,12.155,0,0,0,2.169-3.81l6.8-16.59,4.807,15.71h5.452l2.579-9.438,2.931,9.438h5.276l4.455-16.3H122.4Zm22.745,16.3H151.3V6.2H145.14ZM153.288,6.2V28.534h6.155V6.2Z" fill="#ee3124"/>
  </g>
</svg>
