<svg xmlns="http://www.w3.org/2000/svg" width="107.759" height="27.009" viewBox="0 0 107.759 27.009">
  <path id="HCL_Technologies-Logo.wine" d="M53.482,1.511A30.024,30.024,0,0,1,69.8.786c2.239.51,4.57,1.026,6.544,3.1a8.568,8.568,0,0,1,2.086,5.688c-3.694.133-7.388.066-11.081.046a5.176,5.176,0,0,0-4.49-3.095,8.727,8.727,0,0,0-6.429,1.822,11.5,11.5,0,0,0-3.574,7.225,4.424,4.424,0,0,0,1.065,3.665,7.05,7.05,0,0,0,4.635,1.528,7.008,7.008,0,0,0,5.944-2.529c.173-.172.324-.5.544-.45q5.6-.035,11.205.015a14.539,14.539,0,0,1-4.777,5.481,19.964,19.964,0,0,1-6.974,2.9A34.529,34.529,0,0,1,56.578,27a23.374,23.374,0,0,1-10.662-2.2,9.3,9.3,0,0,1-4.241-4.583,10.928,10.928,0,0,1-.42-6.795A14.249,14.249,0,0,1,44.943,6.94a22.675,22.675,0,0,1,8.538-5.429ZM6.483.9c3.882-.11,7.766.064,11.649.037-.714,2.826-1.439,5.647-2.156,8.473,3.779.012,7.558-.023,11.336.017.739-2.817,1.428-5.678,2.169-8.495,3.99-.008,7.98-.025,11.97,0Q38.2,13.522,34.975,26.116c-3.342.128-6.686.05-10.028.068a7.258,7.258,0,0,1-1.894-.118c.884-3.3,1.718-6.632,2.568-9.953q-5.685,0-11.371,0c-.822,3.331-1.671,6.642-2.466,9.99-3.928.147-7.855.091-11.783.052C2.129,17.71,4.341,9.333,6.483.9ZM84.033.862H96.071q-2.438,9.586-4.9,19.151c5.53.006,11.061.029,16.591.027q-.788,3.066-1.577,6.13-14.3.02-28.606,0C79.7,17.712,81.875,9.293,84.033.862Z" transform="translate(0 0)" fill="#006cb7"/>
</svg>
