<svg xmlns="http://www.w3.org/2000/svg" width="145.686" height="26" viewBox="0 0 145.686 26">
  <g id="accenture-2" transform="translate(-88.624 -347.715)">
    <path id="Path_34" data-name="Path 34" d="M99.222,400.264c0,2.459-1,5.765-3.947,5.765a2.092,2.092,0,0,1-2.348-2.3c0-2.89,4.186-3.463,6.295-3.463m4.229,8.464V395.064c0-4.43-2.874-5.961-6.9-5.961-3.937,0-7.216,1.692-7.216,6.087h4.313a2.621,2.621,0,0,1,2.9-2.941c2.188,0,2.671,1.605,2.671,3.5v1.9c-4.3.12-10.6.727-10.6,6.491,0,3.264,2.552,5.037,5.576,5.037,2.074,0,3.985-.686,4.946-2.662h.077v2.215h4.228m13.112-12.614h4.7c0-4.717-2.585-7.011-7.212-7.011-5.688,0-8.687,3.623-8.687,9.183,0,6.691,3.388,10.889,10.157,10.889a18.4,18.4,0,0,0,5.542-.887v-2.74a9.623,9.623,0,0,1-3.182.481c-5.032,0-7.815-3.708-7.815-8.542,0-2.3.836-5.237,3.627-5.237,2.309,0,2.867,1.893,2.867,3.865m16.99,0h4.707c0-4.717-2.6-7.011-7.215-7.011-5.7,0-8.686,3.623-8.686,9.183,0,6.691,3.384,10.889,10.158,10.889a18.356,18.356,0,0,0,5.537-.887v-2.74a9.588,9.588,0,0,1-3.186.481c-5.018,0-7.815-3.708-7.815-8.542,0-2.3.844-5.237,3.63-5.237,2.31,0,2.869,1.893,2.869,3.865m17.338-.848h-6.933a3.553,3.553,0,0,1,3.568-3.312,3.109,3.109,0,0,1,3.364,3.312m4.184,2.707v-1.093c0-4.674-2.39-7.777-7.213-7.777-5.654,0-8.132,3.587-8.132,9.028,0,6.321,2.828,11.044,9.56,11.044a16.69,16.69,0,0,0,5.3-.767v-3.1a11.211,11.211,0,0,1-3.618.721c-4.3,0-7.138-3.986-7.138-8.055h11.245m13.105,10.754h4.432v-13.3c0-3.3-1.529-6.326-5.148-6.326a5.89,5.89,0,0,0-5.618,4.028h-.078v-3.6h-4.431v19.194h4.431v-8.3c0-2.585,1.277-7.134,4.452-7.134a1.763,1.763,0,0,1,1.285.366c.747.721.675,3.178.675,4.108v10.96M181.8,392.649h5.633v-3.113H181.8v-6.36l-4.4,1.812v4.546h-3.711v3.113H177.4v11.243c0,3.994,1.932,5.284,5.809,5.284a21.718,21.718,0,0,0,3.615-.319v-3.149a8.418,8.418,0,0,1-2.029.321c-2.757,0-2.992-2.054-2.992-4.316v-9.062m18.43,16.079h4.423V389.536h-4.423v8.307c0,2.585-1.277,7.135-4.47,7.135a1.773,1.773,0,0,1-1.277-.357c-.761-.729-.675-3.189-.675-4.111V389.535h-4.416v13.311c0,3.308,1.5,6.329,5.135,6.329a5.985,5.985,0,0,0,5.627-4.026h.076v3.579m11.637-8.42c0-4.515,1.671-6.526,6.209-6.526V389.1c-3.181,0-4.664,1.331-6.134,3.983h-.075v-3.552h-4.43v19.193h4.43v-8.421m18.262-5.041h-6.935a3.556,3.556,0,0,1,3.581-3.312,3.1,3.1,0,0,1,3.354,3.312m4.182,2.707v-1.093c0-4.674-2.388-7.777-7.214-7.777-5.656,0-8.128,3.587-8.128,9.028,0,6.321,2.83,11.044,9.557,11.044a16.8,16.8,0,0,0,5.3-.767v-3.1a11.23,11.23,0,0,1-3.617.721c-4.315,0-7.143-3.986-7.143-8.055h11.24" transform="translate(0 -35.461)" fill="#231f20"/>
  </g>
</svg>
