<svg xmlns="http://www.w3.org/2000/svg" width="107.509" height="29.711" viewBox="0 0 107.509 29.711">
  <g id="tech-mahindra-new-logo" transform="translate(-3.025 -2.912)">
    <path id="Path_1380" data-name="Path 1380" d="M16.071,2.913H3.026V5.969H7.781V16h3.529V5.969h4.763Z" transform="translate(-0.001 0)" fill="#656262" fill-rule="evenodd"/>
    <g id="Group_1334" data-name="Group 1334" transform="translate(3.025 3.076)">
      <g id="Group_1333" data-name="Group 1333" transform="translate(0 16.448)">
        <path id="Path_1381" data-name="Path 1381" d="M101.552-168.358a2.07,2.07,0,0,0-2.077-2.065H94.884a.91.91,0,0,0-.814.519c-.012.011-1.369,1.971-1.369,1.971h4.425a.976.976,0,0,1,.932.979v6.125h3.493v-7.53Zm-12.344-5.558H92.7v13.088H89.208Zm30.353,3.493h-9.925v9.594h3.517v-7.1h3.989a.987.987,0,0,1,.992.979v6.125h3.5v-7.529a2.07,2.07,0,0,0-2.077-2.065m-49.754-3.493H53.025v13.088h3.481v-10.031h3.729a.645.645,0,0,1,.637.649v9.382h3.493v-9.382a.647.647,0,0,1,.189-.46.647.647,0,0,1,.46-.19h2.75a.962.962,0,0,1,.968.956v9.075h3.481v-10.681a2.4,2.4,0,0,0-.7-1.7,2.4,2.4,0,0,0-1.7-.7m34.047,6.608v6.479h3.493v-9.488s-1.617,1-2.762,1.723a1.547,1.547,0,0,0-.732,1.286m0-6.621h3.493v2.419l-3.493,2.313Zm36.466,3.5a1.4,1.4,0,0,0-1.44,1.393v8.2H142.4v-6.113a.961.961,0,0,1,.944-1h2.608a1.19,1.19,0,0,0,.9-.543c.012-.012,1.369-1.935,1.369-1.935Zm-7.246-3.493v10.692H128.01a.607.607,0,0,1-.6-.567v-3.163h.012a.977.977,0,0,1,.286-.693.977.977,0,0,1,.693-.286h2.56a1.18,1.18,0,0,0,.932-.484l1.18-2.006h-7.1a2.067,2.067,0,0,0-2.066,2.065v5.806a1.687,1.687,0,0,0,1.7,1.723h10.975v-13.088Zm25.4,3.493H150.4a1.222,1.222,0,0,0-.991.5l-1.357,1.994h8.131a.982.982,0,0,1,.92.979l-.012,3.812H151v-1.1a.393.393,0,0,1,.389-.39h4.261v-1.416a.484.484,0,0,0-.508-.531h-5.9a1.3,1.3,0,0,0-1.309,1.3v3.481a.108.108,0,0,0,.012.059,1.081,1.081,0,0,0,1.074.908h11.518v-7.529a2.06,2.06,0,0,0-.6-1.462,2.059,2.059,0,0,0-1.462-.6m-73.5,0H76.9a1.2,1.2,0,0,0-.979.5l-1.369,1.994h8.131a.982.982,0,0,1,.921.979v3.812H77.5v-1.1a.393.393,0,0,1,.389-.39h4.26v-1.416a.484.484,0,0,0-.507-.531h-5.9a1.3,1.3,0,0,0-1.309,1.3v3.481a.109.109,0,0,0,.012.059,1.081,1.081,0,0,0,1.074.908H87.036v-7.529a2.06,2.06,0,0,0-.6-1.462,2.06,2.06,0,0,0-1.462-.6" transform="translate(-53.025 173.927)" fill="#e51635" fill-rule="evenodd"/>
      </g>
      <path id="Path_1382" data-name="Path 1382" d="M175.254-262.263a2.07,2.07,0,0,0-2.077-2.065h-4.711a.909.909,0,0,0-.815.519c-.012.012-1.369,1.971-1.369,1.971h4.546a.976.976,0,0,1,.932.979v6.125h3.494v-7.529Zm-12.465-5.558h3.493v13.088h-3.493Zm-9.695,9.618h.012a.979.979,0,0,0,.289.694.98.98,0,0,0,.7.285h6.527v2.49h-8.97a2.073,2.073,0,0,1-2.075-2.065v-5.628a2.073,2.073,0,0,1,2.075-2.065H160.6l-.551,1.369a1.356,1.356,0,0,1-.442.72.959.959,0,0,1-.593.226h-4.92a.98.98,0,0,0-.7.285.98.98,0,0,0-.289.694h-.012Zm-15.674,3.349h7.474a1.2,1.2,0,0,0,.979-.5l1.369-1.995H139.71a.982.982,0,0,1-.921-.979v-3.812h5.5v1.1a.393.393,0,0,1-.39.389h-3.661v1.416a.484.484,0,0,0,.507.531h5.3a1.3,1.3,0,0,0,1.31-1.3v-3.482a.105.105,0,0,0-.012-.059,1.081,1.081,0,0,0-1.074-.909H135.355v7.529a2.06,2.06,0,0,0,.6,1.462,2.06,2.06,0,0,0,1.462.6" transform="translate(-120.932 267.821)" fill="#656262" fill-rule="evenodd"/>
    </g>
  </g>
</svg>
