<svg xmlns="http://www.w3.org/2000/svg" xmlns:xlink="http://www.w3.org/1999/xlink" width="70.432" height="28.342" viewBox="0 0 70.432 28.342">
  <defs>
    <linearGradient id="linear-gradient" x2="0.011" gradientUnits="objectBoundingBox">
      <stop offset="0" stop-color="#00b8f1"/>
      <stop offset="0.22" stop-color="#06a5e5"/>
      <stop offset="0.794" stop-color="#1870c5"/>
      <stop offset="1" stop-color="#1d61bc"/>
    </linearGradient>
  </defs>
  <g id="sap-2011-logo" transform="translate(15.807 -0.004)">
    <path id="Path_19" data-name="Path 19" d="M-15.807,0V28.346H54.625V0l-70.432,0Z" transform="translate(0)" fill="url(#linear-gradient)"/>
    <path id="Path_21" data-name="Path 21" d="M34.652,16.381H33.415V11.857h1.237c1.651,0,2.966.544,2.966,2.233,0,1.744-1.314,2.291-2.966,2.291M21.339,19.615a5.138,5.138,0,0,1-1.8-.319l1.782-5.619h.038L23.1,19.311a5.245,5.245,0,0,1-1.763.3M34.324,8.182H28.707V21.538L23.8,8.182H18.936L14.743,19.349c-.443-2.815-3.359-3.789-5.651-4.516-1.511-.486-3.119-1.2-3.1-1.992.013-.647.864-1.247,2.543-1.157a9.119,9.119,0,0,1,4.111,1.107l1.951-3.4A15.177,15.177,0,0,0,8.231,7.883H8.218A7.734,7.734,0,0,0,2.6,9.938a4.752,4.752,0,0,0-1.344,3.278,4.4,4.4,0,0,0,1.929,3.92A13.257,13.257,0,0,0,7,18.884c1.56.481,2.834.9,2.82,1.8a1.3,1.3,0,0,1-.37.873,2.471,2.471,0,0,1-1.811.571A7.78,7.78,0,0,1,2.99,20.8L1.255,24.246a12.961,12.961,0,0,0,6.358,1.691h.293a7.7,7.7,0,0,0,4.834-1.623l.206-.18-.562,1.51h5.1l.857-2.605a9.755,9.755,0,0,0,5.927.025l.824,2.581h8.323v-5.4h1.816c4.386,0,6.983-2.232,6.983-5.979,0-4.17-2.522-6.082-7.892-6.082" transform="translate(-2.9 -2.872)" fill="#fff" fill-rule="evenodd"/>
  </g>
</svg>
