<svg xmlns="http://www.w3.org/2000/svg" width="177.09" height="27.582" viewBox="0 0 177.09 27.582">
  <g id="samsungBlack" transform="translate(0 42.496)">
    <path id="Path_45" data-name="Path 45" d="M4.856-41.738A6.258,6.258,0,0,0,.666-37.93c-1.428,4.475-.1,6.95,5.522,10.378,4,2.38,5.237,3.618,5.237,5.332,0,1.809-.476,2.19-2.095,1.9a2.662,2.662,0,0,1-2.475-2.475c-.286-1.714-.952-2.095-3.618-2.095C.286-24.886,0-24.6,0-22.22c0,3.142,2.095,5.427,6.474,6.95,4,1.333,9.807-1.238,11.044-5.141,1.523-4.189-.286-7.426-5.9-10.663-3.713-2.095-4.951-3.332-4.76-4.76.381-2.761,4-2.571,4.38.19.286,1.714.952,2.19,3.142,2.19,2.38,0,2.761-.381,2.761-2.666C17.138-41.167,11.044-43.928,4.856-41.738Z" transform="translate(0 0)" fill="#0c4da2"/>
    <path id="Path_46" data-name="Path 46" d="M88.9-40.1A7.628,7.628,0,0,0,87-34.859c0,3.332.381,3.713,7.617,8.378,4.189,2.666,5.046,6.379,1.523,6.379-1.714,0-2.38-.571-2.666-2.19-.19-1.619-1.047-2.19-3.332-2.38C87.19-24.957,87-24.767,87-22.006a7.214,7.214,0,0,0,1.523,4.475c2.19,2.285,9.045,2.666,12.568.857,2.761-1.428,3.047-2,3.047-5.808,0-4.57-.952-6-6.665-9.14-4.38-2.475-5.237-4-3.142-5.713,1.238-1.047,1.714-.952,3.142.857,2.285,2.761,6.665,2.856,6.665.19,0-3.523-3.332-5.713-8.569-5.713C92.046-42,90.332-41.524,88.9-40.1Z" transform="translate(-4.168 -0.024)" fill="#0c4da2"/>
    <path id="Path_47" data-name="Path 47" d="M169.785-40.2c-2.095,1.714-2.285,2.475-2.285,10.949,0,8.188.19,9.331,2.19,11.235,1.714,1.714,3.047,2.095,7.046,2,6.474-.19,8.378-2.285,8.378-9.426v-5.141h-4.284c-3.618,0-4.284.286-4.284,1.9,0,1.047.666,1.9,1.428,1.9.857,0,1.428.857,1.428,2.095,0,3.142-1.333,4.856-3.428,4.38-1.523-.286-1.809-1.333-2.095-7.807-.286-8.283.667-10.663,3.713-9.045a3.214,3.214,0,0,1,1.809,2.285q0,1.428,2.856,1.428c2.38,0,2.856-.381,2.856-2.38C185.114-41.437,174.926-44.389,169.785-40.2Z" transform="translate(-8.024 -0.015)" fill="#0c4da2"/>
    <path id="Path_48" data-name="Path 48" d="M26.359-31.765c-.857,5.141-2,10.473-2.38,11.9-.952,3.047-.476,3.618,2.951,3.618,3.047,0,3.332-.571,4.76-10.949.666-4.475,1.428-8.093,1.809-8.093.666,0,2.38,7.236,3.332,14.472.571,4.475.666,4.57,4,4.57,3.142,0,3.332-.1,2.666-2.571-.286-1.428-1.047-4.951-1.523-7.9-.476-2.856-1.333-7.236-1.9-9.807L39.021-41H28.072Z" transform="translate(-1.128 -0.072)" fill="#0c4da2"/>
    <path id="Path_49" data-name="Path 49" d="M51-28.623v12.377h5.713l.1-11.711.1-11.616,2.285,11.425c1.238,6.284,2.19,11.52,2.285,11.711,0,.19,1.333.19,3.047,0l3.047-.286,1.9-10c1.047-5.427,2-9.521,2.095-9.045.1.571.571,5.141.857,10.187l.666,9.331h5.522L78.23-26.528c-.19-5.617-.476-11.14-.476-12.377-.1-2-.476-2.19-5.046-1.9l-5.046.286L67-36.24c-.381,2.38-1.047,6.569-1.333,9.426-.571,4.094-.857,4.76-1.428,3.142A33.712,33.712,0,0,1,63-30.241c-.286-2.475-.762-6-1.143-7.712C61.283-40.9,61.092-41,56.141-41H51Z" transform="translate(-2.443 -0.072)" fill="#0c4da2"/>
    <path id="Path_50" data-name="Path 50" d="M112-30.622c0,8.474.286,10.759,1.714,12.472,2.38,2.856,8.664,3.618,12.472,1.333l2.951-1.714V-41H123.52l-.286,10.187c-.286,9.14-.476,10.283-2.095,10.568-2.761.571-3.428-1.523-3.428-11.52V-41H112Z" transform="translate(-5.365 -0.072)" fill="#0c4da2"/>
    <path id="Path_51" data-name="Path 51" d="M138-28.628V-16.25h2.761c3.332,0,3.9-1.9,3.332-12.758-.476-8.95.19-8.188,3.9,4.38l2.475,8.378h8.474V-41.1l-3.047.286-3.142.286.286,9.045c.19,8.854.19,8.95-1.142,5.237-.762-2.095-2.095-6.284-2.952-9.331L147.426-41H138Z" transform="translate(-6.611 -0.067)" fill="#0c4da2"/>
  </g>
</svg>
