<svg xmlns="http://www.w3.org/2000/svg" width="114.921" height="27.911" viewBox="0 0 114.921 27.911">
  <g id="hsbc-ar21" transform="translate(-4.536 -16.53)">
    <path id="Path_1346" data-name="Path 1346" d="M18.023,16.53H45.9V44.407H18.023Z" transform="translate(0.486)" fill="#fff"/>
    <path id="Path_1347" data-name="Path 1347" d="M60.324,30.5,46.386,16.53V44.441Zm-27.878,0L46.386,16.53H18.509Zm-27.911,0L18.509,44.441V16.53Zm27.911,0L18.509,44.441H46.386Z" fill="#db0011"/>
    <path id="Path_1348" data-name="Path 1348" d="M73.045,31.323H66.759v6.2H63.617V23h3.142v5.959h6.286V23h3.142v14.53H73.045Zm10.733,6.49c-3.142,0-5.714-1.264-5.755-4.735h3.142a2.364,2.364,0,0,0,2.652,2.49c1.264,0,2.735-.653,2.735-2.072,0-1.143-.979-1.469-2.611-1.968l-1.061-.286c-2.285-.653-4.571-1.551-4.571-4.163,0-3.224,3.02-4.326,5.755-4.326,2.816,0,5.265.979,5.3,4.2H86.226a2.114,2.114,0,0,0-2.367-2.072c-1.183,0-2.327.622-2.327,1.919,0,1.061.979,1.388,3.02,2.041l1.225.368c2.49.777,4.082,1.633,4.082,4.082-.041,3.266-3.224,4.531-6.082,4.531Zm7.838-14.774h5.061a13.371,13.371,0,0,1,2.857.164,3.562,3.562,0,0,1,3.1,3.51c0,1.877-1.183,2.816-2.9,3.266,1.968.368,3.419,1.347,3.419,3.51,0,3.315-3.266,4.041-5.8,4.041H91.648Zm5.061,6.04c1.388,0,2.816-.286,2.816-1.968,0-1.511-1.305-1.919-2.611-1.919h-2.2V29.07Zm.286,6.286c1.469,0,2.9-.326,2.9-2.124s-1.225-2.124-2.735-2.124h-2.49v4.245Zm14.367,2.449c-4.693,0-6.776-2.98-6.776-7.428s2.327-7.673,6.938-7.673c2.9,0,5.714,1.305,5.8,4.571h-3.266a2.322,2.322,0,0,0-2.531-2.2c-2.857,0-3.714,3.061-3.714,5.387s.857,5.021,3.592,5.021a2.5,2.5,0,0,0,2.694-2.245h3.266c-.326,3.346-2.98,4.571-6.009,4.571Z" transform="translate(2.129 0.223)"/>
  </g>
</svg>
